
<svg width="253px" height="148px" viewBox="0 0 253 148" version="1.1" xmlns="http://www.w3.org/2000/svg" xmlns:xlink="http://www.w3.org/1999/xlink">
    <!-- Generator: Sketch 44.1 (41455) - http://www.bohemiancoding.com/sketch -->
    <desc>Created with Sketch.</desc>
    <defs>
        <filter x="-1.7%" y="-4.1%" width="103.4%" height="112.9%" filterUnits="objectBoundingBox" id="filter-1">
            <feOffset dx="0" dy="4" in="SourceAlpha" result="shadowOffsetOuter1"></feOffset>
            <feGaussianBlur stdDeviation="3" in="shadowOffsetOuter1" result="shadowBlurOuter1"></feGaussianBlur>
            <feColorMatrix values="0 0 0 0 0   0 0 0 0 0   0 0 0 0 0  0 0 0 0.1 0" type="matrix" in="shadowBlurOuter1" result="shadowMatrixOuter1"></feColorMatrix>
            <feMerge>
                <feMergeNode in="shadowMatrixOuter1"></feMergeNode>
                <feMergeNode in="SourceGraphic"></feMergeNode>
            </feMerge>
        </filter>
    </defs>
    <g id="Page-1" stroke="none" stroke-width="1" fill="none" fill-rule="evenodd">
        <g id="messages" transform="translate(-2343.000000, -826.000000)">
            <g id="new-alert" filter="url(#filter-1)" transform="translate(1970.000000, 793.500000)">
                <g id="Imported-Layers-Copy-4" transform="translate(366.500000, 35.020478)">
                    <path d="M95.8361775,82.5255973 C94.365802,82.5255973 93.1740614,81.3338567 93.1740614,79.8634812 L93.1740614,2.66211604 C93.1740614,1.19174061 94.365802,0 95.8361775,0 C97.3065529,0 98.4982935,1.19174061 98.4982935,2.66211604 L98.4982935,79.8634812 C98.4982935,81.3338567 97.3065529,82.5255973 95.8361775,82.5255973" id="Fill-1" fill="#A67C52"></path>
                    <path d="M166.825939,96.7235495 C165.355563,96.7235495 164.163823,95.5318089 164.163823,94.0614334 L164.163823,2.66211604 C164.163823,1.19174061 165.355563,0 166.825939,0 C168.296314,0 169.488055,1.19174061 169.488055,2.66211604 L169.488055,94.0614334 C169.488055,95.5318089 168.296314,96.7235495 166.825939,96.7235495" id="Fill-2" fill="#A67C52"></path>
                    <path d="M175.699659,15.0853242 L85.1877133,15.0853242 C83.7173379,15.0853242 82.5255973,13.8935836 82.5255973,12.4232082 C82.5255973,10.9528328 83.7173379,9.76109215 85.1877133,9.76109215 L175.699659,9.76109215 C177.170034,9.76109215 178.361775,10.9528328 178.361775,12.4232082 C178.361775,13.8935836 177.170034,15.0853242 175.699659,15.0853242" id="Fill-3" fill="#A67C52"></path>
                    <path d="M137.062594,57.6321502 C137.062594,61.1150853 134.239863,63.9378157 130.756928,63.9378157 C127.273993,63.9378157 124.450375,61.1150853 124.450375,57.6321502" id="Fill-4" fill="#FFF3B6"></path>
                    <path d="M130.756928,66.6008191 C125.811604,66.6008191 121.788259,62.576587 121.788259,57.6321502 C121.788259,56.1617747 122.98,54.9700341 124.450375,54.9700341 C125.920751,54.9700341 127.112491,56.1617747 127.112491,57.6321502 C127.112491,59.6420478 128.747031,61.276587 130.756928,61.276587 C132.765939,61.276587 134.400478,59.6420478 134.400478,57.6321502 C134.400478,56.1617747 135.592218,54.9700341 137.062594,54.9700341 C138.532969,54.9700341 139.72471,56.1617747 139.72471,57.6321502 C139.72471,62.576587 135.701365,66.6008191 130.756928,66.6008191" id="Fill-5" fill="#FFDC0D"></path>
                    <path d="M114.552628,53.7268259 L114.552628,37.1427304 C114.552628,28.125256 121.931126,20.7467577 130.948601,20.7467577 C139.966075,20.7467577 147.343686,28.125256 147.343686,37.1427304 L147.343686,53.7268259" id="Fill-6" fill="#FFE876"></path>
                    <path d="M147.343686,56.388942 C145.873311,56.388942 144.68157,55.1972014 144.68157,53.7268259 L144.68157,37.141843 C144.68157,29.5690102 138.521433,23.4088737 130.947713,23.4088737 C123.374881,23.4088737 117.214744,29.5690102 117.214744,37.141843 L117.214744,53.7268259 C117.214744,55.1972014 116.023003,56.388942 114.552628,56.388942 C113.082253,56.388942 111.890512,55.1972014 111.890512,53.7268259 L111.890512,37.141843 C111.890512,26.634471 120.440341,18.0846416 130.947713,18.0846416 C141.455973,18.0846416 150.005802,26.634471 150.005802,37.141843 L150.005802,53.7268259 C150.005802,55.1972014 148.814061,56.388942 147.343686,56.388942" id="Fill-7" fill="#FFDC0D"></path>
                    <path d="M130.443686,20.4095563 L130.443686,8.87372014" id="Fill-8" fill="#FFF3B6"></path>
                    <path d="M130.443686,23.0716724 C128.973311,23.0716724 127.78157,21.8799317 127.78157,20.4095563 L127.78157,8.87372014 C127.78157,7.40334471 128.973311,6.2116041 130.443686,6.2116041 C131.914061,6.2116041 133.105802,7.40334471 133.105802,8.87372014 L133.105802,20.4095563 C133.105802,21.8799317 131.914061,23.0716724 130.443686,23.0716724" id="Fill-9" fill="#FFDC0D"></path>
                    <path d="M109.146758,55.0170648 L151.740614,55.0170648" id="Fill-10" fill="#FFE876"></path>
                    <path d="M151.740614,57.6791809 L109.146758,57.6791809 C107.676382,57.6791809 106.484642,56.4874403 106.484642,55.0170648 C106.484642,53.5466894 107.676382,52.3549488 109.146758,52.3549488 L151.740614,52.3549488 C153.21099,52.3549488 154.40273,53.5466894 154.40273,55.0170648 C154.40273,56.4874403 153.21099,57.6791809 151.740614,57.6791809" id="Fill-11" fill="#FFDC0D"></path>
                    <path d="M15.9265529,138.983754 L15.9265529,99.9704437 C15.9265529,97.8451877 17.2034812,95.856587 19.3384983,94.6559727 L38.9574061,83.6215017 C44.1645051,80.6922867 51.2404096,83.7528328 51.2404096,88.9350853 L51.2404096,137.910922" id="Fill-12" fill="#E6E6E6"></path>
                    <path d="M15.9265529,141.64587 C14.4561775,141.64587 13.2644369,140.45413 13.2644369,138.983754 L13.2644369,99.9695563 C13.2644369,96.8690785 15.0471672,94.0152901 18.0331741,92.3363823 L37.6520819,81.3001365 C41.2104437,79.3008874 45.7875085,79.3399317 49.3103754,81.4004096 C52.228942,83.1077133 53.9025256,85.8541297 53.9025256,88.9359727 L53.9025256,137.910922 C53.9025256,139.381297 52.710785,140.573038 51.2404096,140.573038 C49.7700341,140.573038 48.5782935,139.381297 48.5782935,137.910922 L48.5782935,88.9359727 C48.5782935,87.374198 47.3528328,86.4247099 46.6225256,85.9969966 C45.0474403,85.0741297 42.4678498,84.6996587 40.261843,85.9419795 L20.6438225,96.9755631 C19.3571331,97.7005461 18.5886689,98.8186348 18.5886689,99.9695563 L18.5886689,138.983754 C18.5886689,140.45413 17.3969283,141.64587 15.9265529,141.64587" id="Fill-13" fill="#CCCCCC"></path>
                    <polyline id="Fill-14" fill="#F2F2F2" points="36.3822526 104.709898 25.7337884 104.709898 25.7337884 127.78157 37.2696246 127.78157"></polyline>
                    <path d="M37.2696246,130.443686 L25.7337884,130.443686 C24.263413,130.443686 23.0716724,129.251945 23.0716724,127.78157 L23.0716724,104.709898 C23.0716724,103.239522 24.263413,102.047782 25.7337884,102.047782 L36.3822526,102.047782 C37.852628,102.047782 39.0443686,103.239522 39.0443686,104.709898 C39.0443686,106.180273 37.852628,107.372014 36.3822526,107.372014 L28.3959044,107.372014 L28.3959044,125.119454 L37.2696246,125.119454 C38.74,125.119454 39.9317406,126.311195 39.9317406,127.78157 C39.9317406,129.251945 38.74,130.443686 37.2696246,130.443686" id="Fill-15" fill="#CCCCCC"></path>
                    <path d="M206.620137,136.966758 L206.620137,111.742321 C206.620137,109.513242 208.427713,107.706553 210.655904,107.706553 L245.969761,107.706553 C248.19884,107.706553 250.005529,109.513242 250.005529,111.742321 L250.005529,137.974812" id="Fill-16" fill="#F2F2F2"></path>
                    <path d="M250.005529,140.636928 C248.535154,140.636928 247.343413,139.445188 247.343413,137.974812 L247.343413,111.742321 C247.343413,110.984505 246.727577,110.368669 245.969761,110.368669 L210.656792,110.368669 C209.898089,110.368669 209.282253,110.984505 209.282253,111.742321 L209.282253,136.966758 C209.282253,138.437133 208.090512,139.628874 206.620137,139.628874 C205.148874,139.628874 203.95802,138.437133 203.95802,136.966758 L203.95802,111.742321 C203.95802,108.049078 206.962662,105.044437 210.656792,105.044437 L245.969761,105.044437 C249.663891,105.044437 252.667645,108.049078 252.667645,111.742321 L252.667645,137.974812 C252.667645,139.445188 251.476792,140.636928 250.005529,140.636928" id="Fill-17" fill="#CCCCCC"></path>
                    <polyline id="Fill-18" fill="#F2F2F2" points="108.259386 136.65529 108.259386 119.795222 151.740614 119.795222 151.740614 137.542662"></polyline>
                    <path d="M151.740614,140.204778 C150.270239,140.204778 149.078498,139.013038 149.078498,137.542662 L149.078498,122.457338 L110.921502,122.457338 L110.921502,136.65529 C110.921502,138.125666 109.729761,139.317406 108.259386,139.317406 C106.78901,139.317406 105.59727,138.125666 105.59727,136.65529 L105.59727,119.795222 C105.59727,118.324846 106.78901,117.133106 108.259386,117.133106 L151.740614,117.133106 C153.21099,117.133106 154.40273,118.324846 154.40273,119.795222 L154.40273,137.542662 C154.40273,139.013038 153.21099,140.204778 151.740614,140.204778" id="Fill-19" fill="#CCCCCC"></path>
                    <path d="M38.1241638,137.470785 L38.1241638,51.8562457 C38.1241638,47.8905802 40.8164505,44.6463481 44.1077133,44.6463481 L75.5251195,44.6463481 C78.8163823,44.6463481 81.5095563,47.8905802 81.5095563,51.8562457 L81.5095563,137.470785" id="Fill-20" fill="#F2F2F2"></path>
                    <path d="M81.5095563,140.132901 C80.0382935,140.132901 78.8474403,138.94116 78.8474403,137.470785 L78.8474403,51.8553584 C78.8474403,49.3902389 77.3255973,47.3075768 75.5242321,47.3075768 L44.1077133,47.3075768 C42.3072355,47.3075768 40.7862799,49.3902389 40.7862799,51.8553584 L40.7862799,137.470785 C40.7862799,138.94116 39.5945392,140.132901 38.1241638,140.132901 C36.6537884,140.132901 35.4620478,138.94116 35.4620478,137.470785 L35.4620478,51.8553584 C35.4620478,46.4122184 39.3407509,41.9833447 44.1077133,41.9833447 L75.5242321,41.9833447 C80.2929693,41.9833447 84.1716724,46.4122184 84.1716724,51.8553584 L84.1716724,137.470785 C84.1716724,138.94116 82.9799317,140.132901 81.5095563,140.132901" id="Fill-21" fill="#CCCCCC"></path>
                    <path d="M144.064846,137.974812 L144.064846,98.6260751 C144.064846,96.3969966 145.871536,94.5894198 148.100614,94.5894198 L177.360819,94.5894198 C179.58901,94.5894198 181.396587,92.7827304 181.396587,90.5536519 L181.396587,64.3211604 C181.396587,62.0920819 183.203276,60.2853925 185.432355,60.2853925 L213.68273,60.2853925 C215.911809,60.2853925 217.718498,62.0920819 217.718498,64.3211604 L217.718498,137.974812" id="Fill-22" fill="#E6E6E6"></path>
                    <path d="M217.719386,140.636928 C216.248123,140.636928 215.05727,139.445188 215.05727,137.974812 L215.05727,64.320273 C215.05727,63.5633447 214.440546,62.9475085 213.683618,62.9475085 L185.432355,62.9475085 C184.674539,62.9475085 184.058703,63.5633447 184.058703,64.320273 L184.058703,90.5545392 C184.058703,94.2477816 181.053174,97.2524232 177.359932,97.2524232 L148.100614,97.2524232 C147.342799,97.2524232 146.726962,97.8682594 146.726962,98.6260751 L146.726962,137.974812 C146.726962,139.445188 145.535222,140.636928 144.064846,140.636928 C142.593584,140.636928 141.40273,139.445188 141.40273,137.974812 L141.40273,98.6260751 C141.40273,94.9319454 144.406485,91.9281911 148.100614,91.9281911 L177.359932,91.9281911 C178.118635,91.9281911 178.734471,91.3114676 178.734471,90.5545392 L178.734471,64.320273 C178.734471,60.6270307 181.739113,57.6232765 185.432355,57.6232765 L213.683618,57.6232765 C217.37686,57.6232765 220.381502,60.6270307 220.381502,64.320273 L220.381502,137.974812 C220.381502,139.445188 219.189761,140.636928 217.719386,140.636928" id="Fill-23" fill="#CCCCCC"></path>
                    <path d="M64.86157,138.983754 L64.86157,88.5357679 C64.86157,84.0971331 68.2744027,80.4642321 72.4459386,80.4642321 L112.264983,80.4642321 C116.436519,80.4642321 119.849352,84.0971331 119.849352,88.5357679 L119.849352,138.983754" id="Fill-24" fill="#E6E6E6"></path>
                    <path d="M119.850239,141.64587 C118.378976,141.64587 117.188123,140.45413 117.188123,138.983754 L117.188123,88.5357679 C117.188123,85.5533106 114.979454,83.1263481 112.264983,83.1263481 L72.4459386,83.1263481 C69.7314676,83.1263481 67.523686,85.5533106 67.523686,88.5357679 L67.523686,138.983754 C67.523686,140.45413 66.3319454,141.64587 64.86157,141.64587 C63.3911945,141.64587 62.1994539,140.45413 62.1994539,138.983754 L62.1994539,88.5357679 C62.1994539,82.617884 66.796041,77.802116 72.4459386,77.802116 L112.264983,77.802116 C117.914881,77.802116 122.512355,82.617884 122.512355,88.5357679 L122.512355,138.983754 C122.512355,140.45413 121.320614,141.64587 119.850239,141.64587" id="Fill-25" fill="#CCCCCC"></path>
                    <path d="M2.66211604,138.430034 L257.337884,138.430034" id="Fill-26" fill="#F2F2F2"></path>
                    <path d="M257.337884,141.09215 L2.66211604,141.09215 C1.19174061,141.09215 0,139.90041 0,138.430034 C0,136.959659 1.19174061,135.767918 2.66211604,135.767918 L257.337884,135.767918 C258.808259,135.767918 260,136.959659 260,138.430034 C260,139.90041 258.808259,141.09215 257.337884,141.09215" id="Fill-27" fill="#CCCCCC"></path>
                    <path d="M240.477816,118.90785 L225.392491,118.90785" id="Fill-28" fill="#F2F2F2"></path>
                    <path d="M240.477816,121.569966 L225.392491,121.569966 C223.922116,121.569966 222.730375,120.378225 222.730375,118.90785 C222.730375,117.437474 223.922116,116.245734 225.392491,116.245734 L240.477816,116.245734 C241.948191,116.245734 243.139932,117.437474 243.139932,118.90785 C243.139932,120.378225 241.948191,121.569966 240.477816,121.569966" id="Fill-29" fill="#CCCCCC"></path>
                    <path d="M240.477816,128.668942 L225.392491,128.668942" id="Fill-30" fill="#F2F2F2"></path>
                    <path d="M240.477816,131.331058 L225.392491,131.331058 C223.922116,131.331058 222.730375,130.139317 222.730375,128.668942 C222.730375,127.198567 223.922116,126.006826 225.392491,126.006826 L240.477816,126.006826 C241.948191,126.006826 243.139932,127.198567 243.139932,128.668942 C243.139932,130.139317 241.948191,131.331058 240.477816,131.331058" id="Fill-31" fill="#CCCCCC"></path>
                    <polygon id="Fill-32" fill="#F2F2F2" points="153.515358 111.808874 206.757679 111.808874 206.757679 124.232082 153.515358 124.232082"></polygon>
                    <path d="M206.757679,126.894198 L153.515358,126.894198 C152.044983,126.894198 150.853242,125.702457 150.853242,124.232082 L150.853242,111.808874 C150.853242,110.338498 152.044983,109.146758 153.515358,109.146758 L206.757679,109.146758 C208.228055,109.146758 209.419795,110.338498 209.419795,111.808874 L209.419795,124.232082 C209.419795,125.702457 208.228055,126.894198 206.757679,126.894198 L206.757679,126.894198 Z M156.177474,121.569966 L204.095563,121.569966 L204.095563,114.47099 L156.177474,114.47099 L156.177474,121.569966 Z" id="Fill-33" fill="#CCCCCC"></path>
                    <path d="M206.757679,85.1877133 L189.897611,85.1877133" id="Fill-34" fill="#E6E6E6"></path>
                    <path d="M206.757679,87.8498294 L189.897611,87.8498294 C188.427235,87.8498294 187.235495,86.6580887 187.235495,85.1877133 C187.235495,83.7173379 188.427235,82.5255973 189.897611,82.5255973 L206.757679,82.5255973 C208.228055,82.5255973 209.419795,83.7173379 209.419795,85.1877133 C209.419795,86.6580887 208.228055,87.8498294 206.757679,87.8498294" id="Fill-35" fill="#CCCCCC"></path>
                    <path d="M206.757679,71.8771331 L189.897611,71.8771331" id="Fill-36" fill="#E6E6E6"></path>
                    <path d="M206.757679,74.5392491 L189.897611,74.5392491 C188.427235,74.5392491 187.235495,73.3475085 187.235495,71.8771331 C187.235495,70.4067577 188.427235,69.2150171 189.897611,69.2150171 L206.757679,69.2150171 C208.228055,69.2150171 209.419795,70.4067577 209.419795,71.8771331 C209.419795,73.3475085 208.228055,74.5392491 206.757679,74.5392491" id="Fill-37" fill="#CCCCCC"></path>
                    <path d="M47.9180887,56.7918089 L70.9897611,56.7918089" id="Fill-38" fill="#E6E6E6"></path>
                    <path d="M70.9897611,59.4539249 L47.9180887,59.4539249 C46.4477133,59.4539249 45.2559727,58.2621843 45.2559727,56.7918089 C45.2559727,55.3214334 46.4477133,54.1296928 47.9180887,54.1296928 L70.9897611,54.1296928 C72.4601365,54.1296928 73.6518771,55.3214334 73.6518771,56.7918089 C73.6518771,58.2621843 72.4601365,59.4539249 70.9897611,59.4539249" id="Fill-39" fill="#CCCCCC"></path>
                    <path d="M47.9180887,69.2150171 L70.9897611,69.2150171" id="Fill-40" fill="#E6E6E6"></path>
                    <path d="M70.9897611,71.8771331 L47.9180887,71.8771331 C46.4477133,71.8771331 45.2559727,70.6853925 45.2559727,69.2150171 C45.2559727,67.7446416 46.4477133,66.552901 47.9180887,66.552901 L70.9897611,66.552901 C72.4601365,66.552901 73.6518771,67.7446416 73.6518771,69.2150171 C73.6518771,70.6853925 72.4601365,71.8771331 70.9897611,71.8771331" id="Fill-41" fill="#CCCCCC"></path>
                    <polygon id="Fill-42" fill="#F2F2F2" points="75.4550171 91.0585666 108.75099 91.0585666 108.75099 111.742321 75.4550171 111.742321"></polygon>
                    <path d="M108.75099,114.404437 L75.4550171,114.404437 C73.9846416,114.404437 72.792901,113.212696 72.792901,111.742321 L72.792901,91.0585666 C72.792901,89.5881911 73.9846416,88.3964505 75.4550171,88.3964505 L108.75099,88.3964505 C110.221365,88.3964505 111.413106,89.5881911 111.413106,91.0585666 L111.413106,111.742321 C111.413106,113.212696 110.221365,114.404437 108.75099,114.404437 L108.75099,114.404437 Z M78.1171331,109.080205 L106.088874,109.080205 L106.088874,93.7206826 L78.1171331,93.7206826 L78.1171331,109.080205 Z" id="Fill-43" fill="#CCCCCC"></path>
                    <path d="M131.331058,119.795222 L131.331058,137.542662" id="Fill-44" fill="#F2F2F2"></path>
                    <path d="M131.331058,140.204778 C129.860683,140.204778 128.668942,139.013038 128.668942,137.542662 L128.668942,119.795222 C128.668942,118.324846 129.860683,117.133106 131.331058,117.133106 C132.801433,117.133106 133.993174,118.324846 133.993174,119.795222 L133.993174,137.542662 C133.993174,139.013038 132.801433,140.204778 131.331058,140.204778" id="Fill-45" fill="#CCCCCC"></path>
                </g>
            </g>
        </g>
    </g>
</svg>
