
<svg width="174px" height="181px" viewBox="0 0 174 181" version="1.1" xmlns="http://www.w3.org/2000/svg" xmlns:xlink="http://www.w3.org/1999/xlink">
    <!-- Generator: Sketch 44.1 (41455) - http://www.bohemiancoding.com/sketch -->
    <desc>Created with Sketch.</desc>
    <defs>
        <filter x="-1.7%" y="-1.8%" width="103.4%" height="105.5%" filterUnits="objectBoundingBox" id="filter-1">
            <feOffset dx="0" dy="4" in="SourceAlpha" result="shadowOffsetOuter1"></feOffset>
            <feGaussianBlur stdDeviation="3" in="shadowOffsetOuter1" result="shadowBlurOuter1"></feGaussianBlur>
            <feColorMatrix values="0 0 0 0 0   0 0 0 0 0   0 0 0 0 0  0 0 0 0.1 0" type="matrix" in="shadowBlurOuter1" result="shadowMatrixOuter1"></feColorMatrix>
            <feMerge>
                <feMergeNode in="shadowMatrixOuter1"></feMergeNode>
                <feMergeNode in="SourceGraphic"></feMergeNode>
            </feMerge>
        </filter>
    </defs>
    <g id="Page-1" stroke="none" stroke-width="1" fill="none" fill-rule="evenodd">
        <g id="messages" transform="translate(-1526.000000, -1524.000000)">
            <g id="show-pass" filter="url(#filter-1)" transform="translate(1283.000000, 1455.500000)">
                <g id="Imported-Layers" transform="translate(249.000000, 70.000000)">
                    <path d="M52.309,94.202 C52.309,96.963 50.07,99.202 47.309,99.202 C44.547,99.202 42.309,96.963 42.309,94.202 C42.309,91.441 44.547,89.202 47.309,89.202 C50.07,89.202 52.309,91.441 52.309,94.202" id="Fill-1" fill="#CCCCCC"></path>
                    <path d="M41.177,78.045 C41.177,78.045 47.144,76.23 50.762,81.675" id="Fill-2" fill="#FFFFFF"></path>
                    <path d="M50.765,84.675 C49.793,84.675 48.841,84.204 48.263,83.335 C46,79.93 42.419,80.814 42.018,80.925 C40.441,81.366 38.775,80.457 38.314,78.879 C37.855,77.302 38.731,75.653 40.304,75.175 C43.107,74.322 49.421,74.235 53.261,80.015 C54.178,81.394 53.802,83.257 52.422,84.174 C51.911,84.513 51.335,84.675 50.765,84.675" id="Fill-3" fill="#CCCCCC"></path>
                    <path d="M88.976,94.202 C88.976,96.963 91.214,99.202 93.976,99.202 C96.737,99.202 98.976,96.963 98.976,94.202 C98.976,91.441 96.737,89.202 93.976,89.202 C91.214,89.202 88.976,91.441 88.976,94.202" id="Fill-4" fill="#CCCCCC"></path>
                    <path d="M100.107,78.045 C100.107,78.045 94.141,76.23 90.523,81.675" id="Fill-5" fill="#FFFFFF"></path>
                    <path d="M90.521,84.675 C89.95,84.675 89.374,84.513 88.863,84.174 C87.484,83.257 87.108,81.394 88.024,80.015 C91.864,74.236 98.18,74.324 100.98,75.175 C102.566,75.657 103.46,77.333 102.978,78.918 C102.498,80.493 100.837,81.386 99.262,80.923 C98.837,80.808 95.276,79.942 93.022,83.335 C92.444,84.204 91.492,84.675 90.521,84.675" id="Fill-6" fill="#CCCCCC"></path>
                    <path d="M100.584,58.68 C100.584,58.68 113.121,54.804 112.657,39.885 C112.657,39.885 123.411,51.381 109.87,68.615 C109.87,68.615 99.191,64.996 100.584,58.68" id="Fill-7" fill="#FFABB9"></path>
                    <path d="M109.869,71.615 C109.548,71.615 109.224,71.563 108.907,71.456 C103.995,69.792 96.098,65.092 97.653,58.034 C97.885,56.984 98.659,56.14 99.684,55.817 C100.155,55.665 110.042,52.299 109.657,39.979 C109.619,38.731 110.358,37.589 111.512,37.112 C112.666,36.635 113.994,36.923 114.847,37.835 C114.973,37.969 127.188,51.432 112.23,70.469 C111.649,71.206 110.774,71.615 109.869,71.615 L109.869,71.615 Z M103.647,60.674 C104.35,62.42 106.916,63.992 108.864,64.938 C112.935,59.106 113.914,54.164 113.66,50.372 C111.226,55.722 107.03,59.034 103.647,60.674 L103.647,60.674 Z" id="Fill-8" fill="#FF6470"></path>
                    <path d="M39.75,58.68 C39.75,58.68 27.213,54.804 27.677,39.885 C27.677,39.885 16.923,51.381 30.463,68.615 C30.463,68.615 41.143,64.996 39.75,58.68" id="Fill-9" fill="#FFABB9"></path>
                    <path d="M30.464,71.615 C29.56,71.615 28.684,71.206 28.104,70.469 C20.405,60.671 20.019,52.409 21.05,47.205 C22.18,41.5 25.151,38.193 25.485,37.835 C26.338,36.925 27.668,36.637 28.821,37.111 C29.976,37.588 30.714,38.729 30.676,39.977 C30.287,52.468 40.532,55.781 40.636,55.813 C41.667,56.132 42.447,56.98 42.68,58.033 C44.236,65.092 36.338,69.792 31.426,71.457 C31.11,71.563 30.785,71.615 30.464,71.615 L30.464,71.615 Z M26.672,50.369 C26.418,54.162 27.397,59.107 31.475,64.945 C33.553,63.938 35.982,62.349 36.675,60.669 C33.294,59.027 29.104,55.715 26.672,50.369 L26.672,50.369 Z" id="Fill-10" fill="#FF6470"></path>
                    <path d="M70.633,132.789 C62.322,132.789 55.561,126.027 55.561,117.716 C55.561,116.059 56.903,114.716 58.561,114.716 C60.218,114.716 61.561,116.059 61.561,117.716 C61.561,122.719 65.63,126.789 70.633,126.789 C75.636,126.789 79.706,122.719 79.706,117.716 C79.706,116.059 81.049,114.716 82.706,114.716 C84.363,114.716 85.706,116.059 85.706,117.716 C85.706,126.027 78.944,132.789 70.633,132.789" id="Fill-11" fill="#CCCCCC"></path>
                    <path d="M123.215,133.192 C120.22,133.192 117.339,132.174 114.984,130.258 C112.272,128.053 110.583,124.925 110.225,121.448 C109.866,117.972 110.884,114.565 113.089,111.854 C115.475,108.918 119.014,107.161 122.797,107.032 C124.459,106.984 125.841,108.271 125.898,109.928 C125.954,111.584 124.657,112.973 123.002,113.028 C120.952,113.099 119.035,114.05 117.744,115.639 C115.279,118.669 115.739,123.139 118.77,125.604 C121.801,128.065 126.27,127.606 128.735,124.577 C129.972,123.056 130.515,121.148 130.264,119.203 C130.052,117.56 131.213,116.056 132.855,115.844 C134.503,115.639 136.003,116.793 136.215,118.436 C136.671,121.975 135.642,125.593 133.391,128.362 C131.185,131.074 128.056,132.764 124.579,133.122 C124.123,133.169 123.667,133.192 123.215,133.192" id="Fill-12" fill="#FF6470"></path>
                    <path d="M84.837,169.668 C84.172,169.668 83.503,169.448 82.946,168.995 C81.66,167.95 81.466,166.061 82.512,164.775 L121.629,116.673 C122.674,115.388 124.563,115.191 125.849,116.238 C127.135,117.283 127.329,119.173 126.283,120.458 L87.166,168.561 C86.573,169.29 85.709,169.668 84.837,169.668" id="Fill-13" fill="#FF6470"></path>
                    <path d="M93.55,3.332 L103.45,13.232" id="Fill-14" fill="#F2F2F2"></path>
                    <path d="M103.45,16.231 C102.683,16.231 101.915,15.939 101.329,15.353 L91.429,5.453 C90.257,4.282 90.257,2.383 91.429,1.211 C92.599,0.039 94.499,0.039 95.671,1.211 L105.571,11.11 C106.743,12.281 106.743,14.181 105.571,15.353 C104.986,15.939 104.218,16.231 103.45,16.231" id="Fill-15" fill="#E6E6E6"></path>
                    <path d="M103.45,3.332 L93.55,13.232" id="Fill-16" fill="#F2F2F2"></path>
                    <path d="M93.55,16.231 C92.782,16.231 92.015,15.939 91.429,15.353 C90.257,14.181 90.257,12.281 91.429,11.11 L101.329,1.211 C102.501,0.039 104.4,0.039 105.571,1.211 C106.743,2.383 106.743,4.282 105.571,5.453 L95.671,15.353 C95.085,15.939 94.317,16.231 93.55,16.231" id="Fill-17" fill="#E6E6E6"></path>
                    <path d="M148.55,69.332 L158.45,79.232" id="Fill-18" fill="#F2F2F2"></path>
                    <path d="M158.45,82.231 C157.683,82.231 156.915,81.939 156.329,81.353 L146.429,71.453 C145.257,70.282 145.257,68.383 146.429,67.211 C147.599,66.039 149.499,66.039 150.671,67.211 L160.571,77.11 C161.743,78.281 161.743,80.181 160.571,81.353 C159.986,81.939 159.218,82.231 158.45,82.231" id="Fill-19" fill="#E6E6E6"></path>
                    <path d="M158.45,69.332 L148.55,79.232" id="Fill-20" fill="#F2F2F2"></path>
                    <path d="M148.55,82.231 C147.782,82.231 147.015,81.939 146.429,81.353 C145.257,80.181 145.257,78.281 146.429,77.11 L156.329,67.211 C157.501,66.039 159.399,66.039 160.571,67.211 C161.743,68.383 161.743,70.282 160.571,71.453 L150.671,81.353 C150.085,81.939 149.318,82.231 148.55,82.231" id="Fill-21" fill="#E6E6E6"></path>
                    <path d="M3.55,112.332 L13.45,122.232" id="Fill-22" fill="#F2F2F2"></path>
                    <path d="M13.45,125.231 C12.683,125.231 11.915,124.938 11.329,124.352 L1.429,114.453 C0.257,113.282 0.257,111.383 1.429,110.211 C2.599,109.039 4.499,109.039 5.671,110.211 L15.571,120.11 C16.743,121.281 16.743,123.181 15.571,124.352 C14.986,124.938 14.218,125.231 13.45,125.231" id="Fill-23" fill="#E6E6E6"></path>
                    <path d="M13.45,112.332 L3.55,122.232" id="Fill-24" fill="#F2F2F2"></path>
                    <path d="M3.55,125.231 C2.782,125.231 2.015,124.938 1.429,124.352 C0.257,123.181 0.257,121.281 1.429,120.11 L11.329,110.211 C12.501,109.039 14.4,109.039 15.571,110.211 C16.743,111.383 16.743,113.282 15.571,114.453 L5.671,124.352 C5.085,124.938 4.317,125.231 3.55,125.231" id="Fill-25" fill="#E6E6E6"></path>
                    <path d="M3.55,17.332 L13.45,27.232" id="Fill-26" fill="#F2F2F2"></path>
                    <path d="M13.45,30.231 C12.683,30.231 11.915,29.938 11.329,29.352 L1.429,19.453 C0.257,18.282 0.257,16.383 1.429,15.211 C2.599,14.039 4.499,14.039 5.671,15.211 L15.571,25.11 C16.743,26.281 16.743,28.181 15.571,29.352 C14.986,29.938 14.218,30.231 13.45,30.231" id="Fill-27" fill="#E6E6E6"></path>
                    <path d="M13.45,17.332 L3.55,27.232" id="Fill-28" fill="#F2F2F2"></path>
                    <path d="M3.55,30.231 C2.782,30.231 2.015,29.938 1.429,29.352 C0.257,28.181 0.257,26.281 1.429,25.11 L11.329,15.211 C12.501,14.039 14.4,14.039 15.571,15.211 C16.743,16.383 16.743,18.282 15.571,19.453 L5.671,29.352 C5.085,29.938 4.317,30.231 3.55,30.231" id="Fill-29" fill="#E6E6E6"></path>
                </g>
            </g>
        </g>
    </g>
</svg>
