
<svg width="174px" height="170px" viewBox="0 0 174 170" version="1.1" xmlns="http://www.w3.org/2000/svg" xmlns:xlink="http://www.w3.org/1999/xlink">
    <!-- Generator: Sketch 44.1 (41455) - http://www.bohemiancoding.com/sketch -->
    <desc>Created with Sketch.</desc>
    <defs>
        <filter x="-1.7%" y="-1.8%" width="103.4%" height="105.5%" filterUnits="objectBoundingBox" id="filter-1">
            <feOffset dx="0" dy="4" in="SourceAlpha" result="shadowOffsetOuter1"></feOffset>
            <feGaussianBlur stdDeviation="3" in="shadowOffsetOuter1" result="shadowBlurOuter1"></feGaussianBlur>
            <feColorMatrix values="0 0 0 0 0   0 0 0 0 0   0 0 0 0 0  0 0 0 0.1 0" type="matrix" in="shadowBlurOuter1" result="shadowMatrixOuter1"></feColorMatrix>
            <feMerge>
                <feMergeNode in="shadowMatrixOuter1"></feMergeNode>
                <feMergeNode in="SourceGraphic"></feMergeNode>
            </feMerge>
        </filter>
    </defs>
    <g id="Page-1" stroke="none" stroke-width="1" fill="none" fill-rule="evenodd">
        <g id="messages" transform="translate(-2206.000000, -1672.000000)">
            <g id="hide-pass" filter="url(#filter-1)" transform="translate(1973.000000, 1604.500000)">
                <g id="Imported-Layers" transform="translate(239.000000, 70.000000)">
                    <path d="M84.7509231,102.807692 C84.7509231,110.076923 90.3638077,115.345038 97.2882692,115.345038 C104.211692,115.345038 109.825615,110.076923 109.825615,102.807692 L84.7509231,102.807692" id="Fill-1" fill="#CCCCCC"></path>
                    <path d="M97.2882692,118.460423 C88.5111923,118.460423 81.6345,111.584769 81.6345,102.807692 C81.6345,101.086962 83.0291538,99.6923077 84.7498846,99.6923077 L109.825615,99.6923077 C111.546346,99.6923077 112.941,101.086962 112.941,102.807692 C112.941,111.584769 106.065346,118.460423 97.2882692,118.460423 L97.2882692,118.460423 Z M88.3533462,105.923077 C89.5839231,109.669846 93.0181154,112.229654 97.2882692,112.229654 C101.557385,112.229654 104.992615,109.669846 106.222154,105.923077 L88.3533462,105.923077 L88.3533462,105.923077 Z" id="Fill-2" fill="#CCCCCC"></path>
                    <path d="M97.8230769,63.3243462 C90.3835385,63.3243462 73.0806923,62.5413462 73.0806923,55.2762692 C73.0806923,48.0122308 90.3835385,47.2281923 97.8230769,47.2281923 C105.262615,47.2281923 122.565462,48.0122308 122.565462,55.2762692 C122.565462,62.5413462 105.262615,63.3243462 97.8230769,63.3243462 L97.8230769,63.3243462 Z M81.4506923,55.2762692 C84.4871538,56.1786923 90.0585,57.0935769 97.8230769,57.0935769 C105.588692,57.0935769 111.159,56.1786923 114.1965,55.2762692 C111.159,54.3759231 105.588692,53.4589615 97.8230769,53.4589615 C90.0585,53.4589615 84.4871538,54.3759231 81.4506923,55.2762692 L81.4506923,55.2762692 Z" id="Fill-3" fill="#FFDC0D"></path>
                    <path d="M125.161615,83.6750769 C123.440885,83.6750769 122.046231,82.2804231 122.046231,80.5596923 C122.046231,79.5575769 121.231038,78.7423846 120.228923,78.7423846 C119.227846,78.7423846 118.411615,79.5575769 118.411615,80.5596923 C118.411615,82.2804231 117.018,83.6750769 115.296231,83.6750769 C113.5755,83.6750769 112.180846,82.2804231 112.180846,80.5596923 C112.180846,76.1223462 115.791577,72.5116154 120.228923,72.5116154 C124.667308,72.5116154 128.277,76.1223462 128.277,80.5596923 C128.277,82.2804231 126.883385,83.6750769 125.161615,83.6750769" id="Fill-4" fill="#CCCCCC"></path>
                    <path d="M78.4308462,83.6750769 C76.7101154,83.6750769 75.3154615,82.2804231 75.3154615,80.5596923 C75.3154615,79.5575769 74.5002692,78.7423846 73.4981538,78.7423846 C72.4970769,78.7423846 71.6808462,79.5575769 71.6808462,80.5596923 C71.6808462,82.2804231 70.2872308,83.6750769 68.5654615,83.6750769 C66.8447308,83.6750769 65.4500769,82.2804231 65.4500769,80.5596923 C65.4500769,76.1223462 69.0608077,72.5116154 73.4981538,72.5116154 C77.9365385,72.5116154 81.5462308,76.1223462 81.5462308,80.5596923 C81.5462308,82.2804231 80.1526154,83.6750769 78.4308462,83.6750769" id="Fill-5" fill="#CCCCCC"></path>
                    <path d="M80.8670769,157.795269 C79.8327692,157.795269 78.8213077,157.281231 78.2293846,156.342462 L50.5180385,112.429038 C49.6000385,110.974154 50.0351538,109.049885 51.4900385,108.131885 C52.9428462,107.212846 54.8702308,107.650038 55.7871923,109.103885 L83.4985385,153.018346 C84.4165385,154.472192 83.9814231,156.396462 82.5265385,157.314462 C82.0114615,157.640538 81.4351154,157.795269 80.8670769,157.795269" id="Fill-6" fill="#FFDC0D"></path>
                    <path d="M48.5252308,114.696 C47.4410769,114.696 46.3506923,114.559962 45.2727692,114.286846 C41.8801154,113.423885 39.0285,111.291923 37.2392308,108.2835 C35.4520385,105.275077 34.9421538,101.750538 35.8051154,98.3599615 C36.6680769,94.9673077 38.799,92.1156923 41.8074231,90.3264231 C44.8148077,88.5381923 48.3403846,88.0303846 51.732,88.8923077 C55.1236154,89.7552692 57.9762692,91.8861923 59.7645,94.8956538 C61.5516923,97.9030385 62.0626154,101.427577 61.1996538,104.819192 C60.3366923,108.210808 58.2047308,111.063462 55.1952692,112.851692 C53.1443077,114.071885 50.8513846,114.696 48.5252308,114.696 L48.5252308,114.696 Z M48.4899231,94.716 C47.2707692,94.716 46.0671923,95.0431154 44.9913462,95.6838462 C43.4139231,96.6205385 42.2955,98.1169615 41.8427308,99.8948077 C41.391,101.673692 41.6578846,103.522154 42.5966538,105.099577 C43.5333462,106.678038 45.0297692,107.795423 46.8076154,108.248192 C48.5844231,108.696808 50.4349615,108.432 52.0123846,107.495308 C53.5908462,106.557577 54.7082308,105.062192 55.161,103.283308 C55.6137692,101.504423 55.3458462,99.6559615 54.4081154,98.0785385 L54.4081154,98.0775 C53.4703846,96.5011154 51.975,95.3837308 50.1961154,94.9299231 C49.6311923,94.7866154 49.0579615,94.716 48.4899231,94.716 L48.4899231,94.716 Z" id="Fill-7" fill="#FFDC0D"></path>
                    <path d="M53.4807692,22.9520769 C47.1669231,22.9520769 42.0306923,17.8148077 42.0306923,11.5009615 C42.0306923,5.18711538 47.1669231,0.0508846154 53.4807692,0.0508846154 C59.7946154,0.0508846154 64.9308462,5.18711538 64.9308462,11.5009615 C64.9308462,17.8148077 59.7946154,22.9520769 53.4807692,22.9520769 L53.4807692,22.9520769 Z M53.4807692,6.28165385 C50.6031923,6.28165385 48.2614615,8.62338462 48.2614615,11.5009615 C48.2614615,14.3795769 50.6031923,16.7213077 53.4807692,16.7213077 C56.3593846,16.7213077 58.7000769,14.3795769 58.7000769,11.5009615 C58.7000769,8.62338462 56.3593846,6.28165385 53.4807692,6.28165385 L53.4807692,6.28165385 Z" id="Fill-8" fill="#E6E6E6"></path>
                    <path d="M152.134615,56.1548077 C146.980731,56.1548077 142.788462,51.9625385 142.788462,46.8086538 C142.788462,41.6547692 146.980731,37.4625 152.134615,37.4625 C157.2885,37.4625 161.480769,41.6547692 161.480769,46.8086538 C161.480769,51.9625385 157.2885,56.1548077 152.134615,56.1548077 L152.134615,56.1548077 Z M152.134615,43.6932692 C150.417,43.6932692 149.019231,45.0910385 149.019231,46.8086538 C149.019231,48.5262692 150.417,49.9240385 152.134615,49.9240385 C153.852231,49.9240385 155.25,48.5262692 155.25,46.8086538 C155.25,45.0910385 153.852231,43.6932692 152.134615,43.6932692 L152.134615,43.6932692 Z" id="Fill-9" fill="#E6E6E6"></path>
                    <path d="M9.86538462,81.0778846 C4.7115,81.0778846 0.519230769,76.8856154 0.519230769,71.7317308 C0.519230769,66.5778462 4.7115,62.3855769 9.86538462,62.3855769 C15.0192692,62.3855769 19.2115385,66.5778462 19.2115385,71.7317308 C19.2115385,76.8856154 15.0192692,81.0778846 9.86538462,81.0778846 L9.86538462,81.0778846 Z M9.86538462,68.6163462 C8.14776923,68.6163462 6.75,70.0141154 6.75,71.7317308 C6.75,73.4493462 8.14776923,74.8471154 9.86538462,74.8471154 C11.583,74.8471154 12.9807692,73.4493462 12.9807692,71.7317308 C12.9807692,70.0141154 11.583,68.6163462 9.86538462,68.6163462 L9.86538462,68.6163462 Z" id="Fill-10" fill="#E6E6E6"></path>
                    <path d="M143.826923,149.644385 C137.513077,149.644385 132.376846,144.507115 132.376846,138.193269 C132.376846,131.879423 137.513077,126.743192 143.826923,126.743192 C150.140769,126.743192 155.277,131.879423 155.277,138.193269 C155.277,144.507115 150.140769,149.644385 143.826923,149.644385 L143.826923,149.644385 Z M143.826923,132.973962 C140.949346,132.973962 138.607615,135.315692 138.607615,138.193269 C138.607615,141.071885 140.949346,143.413615 143.826923,143.413615 C146.705538,143.413615 149.046231,141.071885 149.046231,138.193269 C149.046231,135.315692 146.705538,132.973962 143.826923,132.973962 L143.826923,132.973962 Z" id="Fill-11" fill="#E6E6E6"></path>
                </g>
            </g>
        </g>
    </g>
</svg>
