
<svg width="147px" height="180px" viewBox="0 0 167 220" version="1.1" xmlns="http://www.w3.org/2000/svg" xmlns:xlink="http://www.w3.org/1999/xlink">
    <!-- Generator: Sketch 44.1 (41455) - http://www.bohemiancoding.com/sketch -->
    <desc>Created with Sketch.</desc>
    <defs>
        <polyline id="path-1" points="0 0.0152552595 25.0385459 0.0152552595 25.0385459 17.1621669 0 17.1621669"></polyline>
    </defs>
    <g id="(Freebie)-Dashboard-Widgets-by-Polary" stroke="none" stroke-width="1" fill="none" fill-rule="evenodd">
        <g transform="translate(-274.000000, -163.000000)" id="Widget-1">
            <g transform="translate(80.000000, 80.000000)">
                <g id="Illustration" transform="translate(141.000000, 83.000000)">
                    <g transform="translate(53.114754, 0.000000)">
                        <g id="note" transform="translate(0.000000, 65.788307)">
                            <path d="M112.46769,102.979008 L106.936347,102.979008 L106.936347,83.9099341 L112.46769,83.9099341 C114.504147,83.9099341 116.155252,85.6175697 116.155252,87.7237489 L116.155252,99.1651936 C116.155252,101.271373 114.504147,102.979008 112.46769,102.979008" id="Fill-1" fill="#E7F5FE"></path>
                            <path d="M112.46769,102.979008 L106.936347,102.979008 L106.936347,83.9099341 L112.46769,83.9099341 C114.504147,83.9099341 116.155252,85.6175697 116.155252,87.7237489 L116.155252,99.1651936 C116.155252,101.271373 114.504147,102.979008 112.46769,102.979008 L112.46769,102.979008 Z" id="Stroke-3" stroke="#14ABF4" stroke-width="2" stroke-linecap="round"></path>
                            <path d="M112.46769,85.8151253 L106.936347,85.8151253 L106.936347,66.7460509 L112.46769,66.7460509 C114.504147,66.7460509 116.155252,68.4536865 116.155252,70.5598658 L116.155252,82.0013104 C116.155252,84.1074897 114.504147,85.8151253 112.46769,85.8151253" id="Fill-5" fill="#E7F5FE"></path>
                            <path d="M112.46769,85.8151253 L106.936347,85.8151253 L106.936347,66.7460509 L112.46769,66.7460509 C114.504147,66.7460509 116.155252,68.4536865 116.155252,70.5598658 L116.155252,82.0013104 C116.155252,84.1074897 114.504147,85.8151253 112.46769,85.8151253 L112.46769,85.8151253 Z" id="Stroke-7" stroke="#14ABF4" stroke-width="2" stroke-linecap="round"></path>
                            <path d="M112.46769,68.6512421 L106.936347,68.6512421 L106.936347,49.5821677 L112.46769,49.5821677 C114.504147,49.5821677 116.155252,51.2898033 116.155252,53.3959826 L116.155252,64.8374272 C116.155252,66.9436065 114.504147,68.6512421 112.46769,68.6512421" id="Fill-9" fill="#E7F5FE"></path>
                            <path d="M112.46769,68.6512421 L106.936347,68.6512421 L106.936347,49.5821677 L112.46769,49.5821677 C114.504147,49.5821677 116.155252,51.2898033 116.155252,53.3959826 L116.155252,64.8374272 C116.155252,66.9436065 114.504147,68.6512421 112.46769,68.6512421 L112.46769,68.6512421 Z" id="Stroke-11" stroke="#14ABF4" stroke-width="2" stroke-linecap="round"></path>
                            <path d="M112.46769,51.4873589 L106.936347,51.4873589 L106.936347,32.4182846 L112.46769,32.4182846 C114.504147,32.4182846 116.155252,34.1259202 116.155252,36.2320994 L116.155252,47.6735441 C116.155252,49.7797233 114.504147,51.4873589 112.46769,51.4873589" id="Fill-13" fill="#E7F5FE"></path>
                            <path d="M112.46769,51.4873589 L106.936347,51.4873589 L106.936347,32.4182846 L112.46769,32.4182846 C114.504147,32.4182846 116.155252,34.1259202 116.155252,36.2320994 L116.155252,47.6735441 C116.155252,49.7797233 114.504147,51.4873589 112.46769,51.4873589 L112.46769,51.4873589 Z" id="Stroke-15" stroke="#14ABF4" stroke-width="2" stroke-linecap="round"></path>
                            <path d="M112.46769,34.3234758 L106.936347,34.3234758 L106.936347,15.2544014 L112.46769,15.2544014 C114.504147,15.2544014 116.155252,16.962037 116.155252,19.0682163 L116.155252,30.5096609 C116.155252,32.6158402 114.504147,34.3234758 112.46769,34.3234758" id="Fill-17" fill="#E7F5FE"></path>
                            <path d="M112.46769,34.3234758 L106.936347,34.3234758 L106.936347,15.2544014 L112.46769,15.2544014 C114.504147,15.2544014 116.155252,16.962037 116.155252,19.0682163 L116.155252,30.5096609 C116.155252,32.6158402 114.504147,34.3234758 112.46769,34.3234758 L112.46769,34.3234758 Z" id="Stroke-19" stroke="#14ABF4" stroke-width="2" stroke-linecap="round"></path>
                            <path d="M106.936347,112.510304 L106.936347,5.72348733 C106.936347,2.56374171 104.46015,0.00276501579 101.405004,0.00276501579 L11.0625016,0.00276501579 C8.00735647,0.00276501579 5.5311586,2.56374171 5.5311586,5.72348733 L5.5311586,112.510304 C5.5311586,115.67005 8.00735647,118.231026 11.0625016,118.231026 L101.405004,118.231026 C104.46015,118.231026 106.936347,115.67005 106.936347,112.510304" id="Fill-21" fill="#F7F7F7"></path>
                            <path d="M11.0625016,116.323928 C10.0456564,116.323928 9.21872058,115.46868 9.21872058,114.417021 L9.21872058,5.72329664 C9.21872058,4.67163719 10.0456564,3.8163892 11.0625016,3.8163892 L103.248785,3.8163892 C104.265631,3.8163892 105.092566,4.67163719 105.092566,5.72329664 L105.092566,114.417021 C105.092566,115.46868 104.265631,116.323928 103.248785,116.323928 L11.0625016,116.323928 Z" id="Fill-23" fill="#E7F5FE"></path>
                            <path d="M106.936347,5.72348733 C106.936347,2.56374171 104.46015,0.00276501579 101.405004,0.00276501579 L11.0625016,0.00276501579 C8.00735647,0.00276501579 5.5311586,2.56374171 5.5311586,5.72348733 L5.5311586,112.510304 C5.5311586,115.67005 8.00735647,118.231026 11.0625016,118.231026 L101.405004,118.231026 C104.46015,118.231026 106.936347,115.67005 106.936347,112.510304 L106.936347,5.72348733 Z" id="Stroke-25" stroke="#14ABF4" stroke-width="4"></path>
                            <path d="M13.8284496,17.1657901 C15.3560222,17.1657901 16.5941211,15.8853017 16.5941211,14.3054289 C16.5941211,12.7255561 15.3560222,11.4450678 13.8284496,11.4450678 C12.3008771,11.4450678 11.0627781,12.7255561 11.0627781,14.3054289 C11.0627781,15.8853017 12.3008771,17.1657901 13.8284496,17.1657901" id="Fill-27" fill="#F7F7F7"></path>
                            <path d="M12.9064669,16.2121457 C14.4340395,16.2121457 15.6721384,14.9316573 15.6721384,13.3517845 C15.6721384,11.7719117 14.4340395,10.4914233 12.9064669,10.4914233 C11.3788944,10.4914233 10.1407955,11.7719117 10.1407955,13.3517845 C10.1407955,14.9316573 11.3788944,16.2121457 12.9064669,16.2121457" id="Fill-29" fill="#14ABF4"></path>
                            <path d="M12.9064669,14.3054289 L0,14.3054289" id="Stroke-31" stroke="#14ABF4" stroke-width="2"></path>
                            <path d="M12.9064669,12.3983308 L0,12.3983308" id="Stroke-33" stroke="#F7F7F7" stroke-width="2"></path>
                            <path d="M13.8284496,28.6083788 C15.3560222,28.6083788 16.5941211,27.3278905 16.5941211,25.7480177 C16.5941211,24.1681449 15.3560222,22.8876565 13.8284496,22.8876565 C12.3008771,22.8876565 11.0627781,24.1681449 11.0627781,25.7480177 C11.0627781,27.3278905 12.3008771,28.6083788 13.8284496,28.6083788" id="Fill-35" fill="#F7F7F7"></path>
                            <path d="M12.9064669,27.6548298 C14.4340395,27.6548298 15.6721384,26.3743414 15.6721384,24.7944686 C15.6721384,23.2145958 14.4340395,21.9341075 12.9064669,21.9341075 C11.3788944,21.9341075 10.1407955,23.2145958 10.1407955,24.7944686 C10.1407955,26.3743414 11.3788944,27.6548298 12.9064669,27.6548298" id="Fill-37" fill="#14ABF4"></path>
                            <path d="M12.9064669,25.7480177 L0,25.7480177" id="Stroke-39" stroke="#14ABF4" stroke-width="2"></path>
                            <path d="M12.9064669,23.8409196 L0,23.8409196" id="Stroke-41" stroke="#F7F7F7" stroke-width="2"></path>
                            <path d="M13.8284496,40.0508723 C15.3560222,40.0508723 16.5941211,38.7703839 16.5941211,37.1905111 C16.5941211,35.6106383 15.3560222,34.33015 13.8284496,34.33015 C12.3008771,34.33015 11.0627781,35.6106383 11.0627781,37.1905111 C11.0627781,38.7703839 12.3008771,40.0508723 13.8284496,40.0508723" id="Fill-43" fill="#F7F7F7"></path>
                            <path d="M12.9064669,39.0973232 C14.4340395,39.0973232 15.6721384,37.8168349 15.6721384,36.2369621 C15.6721384,34.6570892 14.4340395,33.3766009 12.9064669,33.3766009 C11.3788944,33.3766009 10.1407955,34.6570892 10.1407955,36.2369621 C10.1407955,37.8168349 11.3788944,39.0973232 12.9064669,39.0973232" id="Fill-45" fill="#14ABF4"></path>
                            <path d="M12.9064669,37.1905111 L0,37.1905111" id="Stroke-47" stroke="#14ABF4" stroke-width="2"></path>
                            <path d="M12.9064669,35.2835083 L0,35.2835083" id="Stroke-49" stroke="#F7F7F7" stroke-width="2"></path>
                            <path d="M13.8284496,51.4935564 C15.3560222,51.4935564 16.5941211,50.2130681 16.5941211,48.6331952 C16.5941211,47.0533224 15.3560222,45.7728341 13.8284496,45.7728341 C12.3008771,45.7728341 11.0627781,47.0533224 11.0627781,48.6331952 C11.0627781,50.2130681 12.3008771,51.4935564 13.8284496,51.4935564" id="Fill-51" fill="#F7F7F7"></path>
                            <path d="M12.9064669,50.539912 C14.4340395,50.539912 15.6721384,49.2594236 15.6721384,47.6795508 C15.6721384,46.099678 14.4340395,44.8191897 12.9064669,44.8191897 C11.3788944,44.8191897 10.1407955,46.099678 10.1407955,47.6795508 C10.1407955,49.2594236 11.3788944,50.539912 12.9064669,50.539912" id="Fill-53" fill="#14ABF4"></path>
                            <path d="M12.9064669,48.6331952 L0,48.6331952" id="Stroke-55" stroke="#14ABF4" stroke-width="2"></path>
                            <path d="M12.9064669,46.7260971 L0,46.7260971" id="Stroke-57" stroke="#F7F7F7" stroke-width="2"></path>
                            <path d="M13.8284496,62.9360498 C15.3560222,62.9360498 16.5941211,61.6555615 16.5941211,60.0756887 C16.5941211,58.4958159 15.3560222,57.2153275 13.8284496,57.2153275 C12.3008771,57.2153275 11.0627781,58.4958159 11.0627781,60.0756887 C11.0627781,61.6555615 12.3008771,62.9360498 13.8284496,62.9360498" id="Fill-59" fill="#F7F7F7"></path>
                            <path d="M12.9064669,61.9825961 C14.4340395,61.9825961 15.6721384,60.7021078 15.6721384,59.1222349 C15.6721384,57.5423621 14.4340395,56.2618738 12.9064669,56.2618738 C11.3788944,56.2618738 10.1407955,57.5423621 10.1407955,59.1222349 C10.1407955,60.7021078 11.3788944,61.9825961 12.9064669,61.9825961" id="Fill-61" fill="#14ABF4"></path>
                            <path d="M12.9064669,60.0756887 L0,60.0756887" id="Stroke-63" stroke="#14ABF4" stroke-width="2"></path>
                            <path d="M12.9064669,58.1685905 L0,58.1685905" id="Stroke-65" stroke="#F7F7F7" stroke-width="2"></path>
                            <path d="M13.8284496,74.3787339 C15.3560222,74.3787339 16.5941211,73.0982456 16.5941211,71.5183728 C16.5941211,69.9385 15.3560222,68.6580116 13.8284496,68.6580116 C12.3008771,68.6580116 11.0627781,69.9385 11.0627781,71.5183728 C11.0627781,73.0982456 12.3008771,74.3787339 13.8284496,74.3787339" id="Fill-67" fill="#F7F7F7"></path>
                            <path d="M12.9064669,73.4250895 C14.4340395,73.4250895 15.6721384,72.1446012 15.6721384,70.5647284 C15.6721384,68.9848556 14.4340395,67.7043672 12.9064669,67.7043672 C11.3788944,67.7043672 10.1407955,68.9848556 10.1407955,70.5647284 C10.1407955,72.1446012 11.3788944,73.4250895 12.9064669,73.4250895" id="Fill-69" fill="#14ABF4"></path>
                            <path d="M12.9064669,71.5183728 L0,71.5183728" id="Stroke-71" stroke="#14ABF4" stroke-width="2"></path>
                            <path d="M12.9064669,69.6112747 L0,69.6112747" id="Stroke-73" stroke="#F7F7F7" stroke-width="2"></path>
                            <path d="M13.8284496,85.8213227 C15.3560222,85.8213227 16.5941211,84.5408344 16.5941211,82.9609616 C16.5941211,81.3810888 15.3560222,80.1006004 13.8284496,80.1006004 C12.3008771,80.1006004 11.0627781,81.3810888 11.0627781,82.9609616 C11.0627781,84.5408344 12.3008771,85.8213227 13.8284496,85.8213227" id="Fill-75" fill="#F7F7F7"></path>
                            <path d="M12.9064669,84.8676783 C14.4340395,84.8676783 15.6721384,83.58719 15.6721384,82.0073172 C15.6721384,80.4274443 14.4340395,79.146956 12.9064669,79.146956 C11.3788944,79.146956 10.1407955,80.4274443 10.1407955,82.0073172 C10.1407955,83.58719 11.3788944,84.8676783 12.9064669,84.8676783" id="Fill-77" fill="#14ABF4"></path>
                            <path d="M12.9064669,82.9609616 L0,82.9609616" id="Stroke-79" stroke="#14ABF4" stroke-width="2"></path>
                            <path d="M12.9064669,81.0537681 L0,81.0537681" id="Stroke-81" stroke="#F7F7F7" stroke-width="2"></path>
                            <path d="M13.8284496,97.2638162 C15.3560222,97.2638162 16.5941211,95.9833278 16.5941211,94.403455 C16.5941211,92.8235822 15.3560222,91.5430938 13.8284496,91.5430938 C12.3008771,91.5430938 11.0627781,92.8235822 11.0627781,94.403455 C11.0627781,95.9833278 12.3008771,97.2638162 13.8284496,97.2638162" id="Fill-83" fill="#F7F7F7"></path>
                            <path d="M12.9064669,96.3103624 C14.4340395,96.3103624 15.6721384,95.0298741 15.6721384,93.4500013 C15.6721384,91.8701285 14.4340395,90.5896401 12.9064669,90.5896401 C11.3788944,90.5896401 10.1407955,91.8701285 10.1407955,93.4500013 C10.1407955,95.0298741 11.3788944,96.3103624 12.9064669,96.3103624" id="Fill-85" fill="#14ABF4"></path>
                            <path d="M12.9064669,94.403455 L0,94.403455" id="Stroke-87" stroke="#14ABF4" stroke-width="2"></path>
                            <path d="M12.9064669,92.4963569 L0,92.4963569" id="Stroke-89" stroke="#F7F7F7" stroke-width="2"></path>
                            <path d="M13.8284496,108.7065 C15.3560222,108.7065 16.5941211,107.426012 16.5941211,105.846139 C16.5941211,104.266266 15.3560222,102.985778 13.8284496,102.985778 C12.3008771,102.985778 11.0627781,104.266266 11.0627781,105.846139 C11.0627781,107.426012 12.3008771,108.7065 13.8284496,108.7065" id="Fill-91" fill="#F7F7F7"></path>
                            <path d="M12.9064669,107.752856 C14.4340395,107.752856 15.6721384,106.472368 15.6721384,104.892495 C15.6721384,103.312622 14.4340395,102.032134 12.9064669,102.032134 C11.3788944,102.032134 10.1407955,103.312622 10.1407955,104.892495 C10.1407955,106.472368 11.3788944,107.752856 12.9064669,107.752856" id="Fill-93" fill="#14ABF4"></path>
                            <path d="M12.9064669,105.846139 L0,105.846139" id="Stroke-95" stroke="#14ABF4" stroke-width="2"></path>
                            <path d="M12.9064669,103.939041 L0,103.939041" id="Stroke-97" stroke="#F7F7F7" stroke-width="2"></path>
                        </g>
                        <g id="note" transform="translate(86.578554, 162.087132)">
                            <path d="M7.44699325,57.2072232 C3.38053427,57.2072232 0.0718692794,53.7852778 0.0718692794,49.5795934 L0.0718692794,7.62953666 C0.0718692794,3.42385231 3.38053427,0.00190690744 7.44699325,0.00190690744 L72.9039841,0.00190690744 C76.9704431,0.00190690744 80.2791081,3.42385231 80.2791081,7.62953666 L80.2791081,49.5795934 C80.2791081,53.7852778 76.9704431,57.2072232 72.9039841,57.2072232 L7.44699325,57.2072232 Z" id="Fill-99" fill="#F7F7F7"></path>
                            <polygon id="Fill-102" fill="#E7F5FE" points="7.44690106 7.62953666 74.7476729 7.62953666 74.7476729 51.4865008 7.44690106 51.4865008"></polygon>
                            <path d="M39.2621718,8.58194158 L39.2621718,52.4417661" id="Stroke-104" stroke="#14ABF4"></path>
                            <path d="M45.5670731,20.4166859 C48.211055,19.5223463 50.8550369,18.6270532 53.4990189,17.7327137 C54.3407049,17.447631 53.9802457,16.0660766 53.1311846,16.3540196 C50.4872026,17.2483592 47.8432207,18.1426988 45.1992388,19.0379918 C44.3575527,19.322121 44.7180119,20.7036754 45.5670731,20.4166859" id="Fill-106" fill="#545E65"></path>
                            <path d="M56.6573235,21.341822 C58.4347284,21.3570773 60.1844766,21.1444571 61.9111775,20.7106357 C62.7749889,20.4932482 62.4089983,19.1136007 61.5433432,19.3309881 C59.9328005,19.736206 58.3139608,19.9259432 56.6573235,19.9116414 C55.7676992,19.9040138 55.7667773,21.3341944 56.6573235,21.341822" id="Fill-107" fill="#545E65"></path>
                            <path d="M7.44708544,52.4399546 L72.9040763,52.4399546 C74.4316489,52.4399546 75.6697478,51.1594662 75.6697478,49.5795934 L75.6697478,7.62953666 C75.6697478,6.04966385 74.4316489,4.7691755 72.9040763,4.7691755 L7.44708544,4.7691755 C5.91951288,4.7691755 4.68141395,6.04966385 4.68141395,7.62953666 L4.68141395,49.5795934 C4.68141395,51.1594662 5.91951288,52.4399546 7.44708544,52.4399546 L7.44708544,52.4399546 Z" id="Stroke-110" stroke="#14ABF4" stroke-width="2"></path>
                            <g id="Page-1" transform="translate(44.329896, 16.208713)">
                                <path d="M9.16091805,1.43332698 C10.0026041,1.14824431 9.64214489,-0.233310125 8.79308374,0.0546328981 C6.1491018,0.948972487 3.50511985,1.84331208 0.862059803,2.73860512 C0.0194518895,3.02273433 0.379911073,4.40428877 1.22897222,4.1172992 C1.46497619,4.03816254 1.70005826,3.95807242 1.93606223,3.87798231 C1.24187869,6.21585083 0.59655534,8.5670677 0.0212956705,10.940214 C-0.141878947,11.6133523 0.687822499,12.1682624 1.17642446,11.6362352 C1.82820104,10.9259122 2.45232091,10.3166553 3.26081887,9.77700047 C3.9854248,9.29455289 4.72109342,8.40688748 5.30096254,9.31266851 C6.59806247,11.3378042 3.18706763,15.5463489 1.57283737,16.1041194 C2.41267962,15.813316 2.05314232,14.4317615 1.20500307,14.7244718 C0.108875268,15.1029929 0.198298646,16.3129257 1.1340175,16.8792772 C3.30599151,18.1940899 5.42726154,14.5785934 6.14633612,13.0387656 C6.77783111,11.6886752 7.7780823,8.26100906 5.85870629,7.41434216 C4.7616566,6.93094112 3.22394325,7.87009303 1.97385974,8.91698522 C2.46153981,7.04726248 2.97411093,5.18516736 3.53554224,3.3364206 C5.41066751,2.70237388 7.28579278,2.0673737 9.16091805,1.43332698" id="Fill-1" fill="#14ABF4"></path>
                                <path d="M17.2053345,3.03179214 C15.5947918,3.43700997 13.9759521,3.62674726 12.3193149,3.61244545 C11.745899,3.60767818 11.5467706,4.19786604 11.7136328,4.62119949 C11.7127109,4.62405985 11.7099453,4.6250133 11.7090234,4.62787366 C10.9530732,6.83893284 10.1962011,9.04999201 9.43932898,11.2610512 C9.21715337,11.9103532 10.1667006,12.5177032 10.5953797,11.9570724 C11.0028553,11.4240918 11.8546821,10.153138 12.5479437,10.1140464 C14.9623749,9.97674903 14.1409705,15.3713902 11.0268244,14.7564125 C10.1565598,14.5847909 9.78411602,15.9625315 10.6589901,16.1351066 C13.7086039,16.7376894 15.9672356,13.6046404 15.3292874,10.5602627 C14.8130287,8.09653829 13.135188,8.22048728 11.6306627,9.13484939 C12.0989831,7.76568985 12.5682253,6.39557686 13.0365457,5.02546386 C14.5678058,4.98541881 16.0797062,4.78614698 17.5731688,4.41048621 C18.4369802,4.19309877 18.0709897,2.81440469 17.2053345,3.03179214" id="Fill-3" fill="#14ABF4"></path>
                                <g id="Group-7">
                                    <mask id="mask-2" fill="white">
                                        <use xlink:href="#path-1"></use>
                                    </mask>
                                    <g id="Clip-6"></g>
                                    <path d="M22.8157757,14.9676979 C21.1821857,15.9716846 20.7627256,13.9465489 20.6843649,12.4076746 C20.9959639,12.2913533 21.3223131,12.225565 21.6671001,12.2207977 C23.1900632,12.2036355 23.5726478,13.1189511 22.8157757,14.9676979 M21.6671001,10.7906171 C21.3776265,10.7868033 21.0429803,10.8602192 20.7037246,10.9851217 C20.9286658,8.89705804 21.7343981,6.46575105 23.5984607,5.37881381 C24.3737706,4.92687675 23.6777433,3.69120073 22.9005896,4.14409125 C20.4566579,5.5685511 19.2259341,8.96284634 19.2277779,11.8909027 C18.4543118,12.6250621 18.2035575,13.5527725 19.5605804,14.1257982 C20.3653908,16.2567673 22.6876329,17.5954163 24.4217089,15.3538466 C26.129972,13.1456478 23.9911861,10.8220811 21.6671001,10.7906171" id="Fill-5" fill="#14ABF4" mask="url(#mask-2)"></path>
                                </g>
                            </g>
                        </g>
                        <g id="pen" transform="translate(142.813875, 80.090112)">
                            <path d="M11.1389803,6.67570156 L1.92007535,6.67570156 L1.92007535,1.91129333 C1.92007535,0.85868042 2.74516734,0.00438588711 3.76385634,0.00438588711 L9.29519931,0.00438588711 C10.3138883,0.00438588711 11.1389803,0.85868042 11.1389803,1.91129333 L11.1389803,6.67570156 L11.1389803,6.67570156 Z" id="Stroke-111" stroke="#14ABF4" stroke-width="2"></path>
                            <path d="M15.7498156,6.67951538 L17.5926747,6.67951538 C18.6113637,6.67951538 19.4364557,7.53285645 19.4364557,8.58642281 L19.4364557,34.3287198" id="Stroke-112" stroke="#14ABF4" stroke-width="2"></path>
                            <polygon id="Fill-113" fill="#E7F5FE" points="2.84205803 43.8636384 12.9828535 43.8636384 12.9828535 9.53930446 2.84205803 9.53930446"></polygon>
                            <polygon id="Fill-114" fill="#E7F5FE" points="8.37266349 68.6486678 12.982116 57.2100835 12.982116 46.724953 2.84224241 46.724953 2.84224241 57.2100835 7.45169489 68.6486678"></polygon>
                            <path d="M6.52934345,68.6580116 L6.52934345,74.3787339" id="Stroke-115" stroke="#14ABF4" stroke-width="2"></path>
                            <polygon id="Stroke-116" stroke="#14ABF4" stroke-width="2" points="12.9828535 43.8636384 0.0763865428 43.8636384 0.0763865428 6.6789433 12.9828535 6.6789433"></polygon>
                            <polygon id="Stroke-117" stroke="#14ABF4" stroke-width="2" points="0.0761099757 43.8639244 0.0761099757 57.2103696 4.68648435 68.6489538 8.37312444 68.6489538 12.9825769 57.2103696 12.9825769 43.8639244"></polygon>
                        </g>
                        <g id="decor" transform="translate(91.808143, 0.000000)">
                            <polygon id="Fill-118" fill="#E7F5FE" points="0.00569745749 12.7270816 6.91987618 0.341717813 13.8340549 12.7270816"></polygon>
                            <polygon id="Fill-119" fill="#14ABF4" points="40.5699855 31.9794098 46.1013285 28.6766461 51.6326715 31.9794098 51.6326715 38.5849372 46.1013285 41.8877009 40.5699855 38.5849372"></polygon>
                        </g>
                        <g id="profile" transform="translate(40.563182, 95.904377)">
                            <path d="M16.5903414,49.964508 C9.31570346,49.964508 4.79751814,47.1604006 4.79751814,42.6467507 C4.79751814,38.1321473 9.31570346,35.3280399 16.5903414,35.3280399 C23.8649793,35.3280399 28.3831646,38.1321473 28.3831646,42.6467507 C28.3831646,47.1604006 23.8649793,49.964508 16.5903414,49.964508" id="Fill-120" fill="#C2E9F9"></path>
                            <path d="M16.5903414,49.964508 C9.31570346,49.964508 4.79751814,47.1604006 4.79751814,42.6467507 C4.79751814,38.1321473 9.31570346,35.3280399 16.5903414,35.3280399 C23.8649793,35.3280399 28.3831646,38.1321473 28.3831646,42.6467507 C28.3831646,47.1604006 23.8649793,49.964508 16.5903414,49.964508 L16.5903414,49.964508 Z" id="Stroke-121" stroke="#14ABF4" stroke-width="2"></path>
                            <path d="M9.51455524,30.4489312 L9.51455524,42.6464647 C9.51455524,43.9936948 12.682171,45.0853993 16.5900648,45.0853993 C20.4979586,45.0853993 23.6664962,43.9936948 23.6664962,42.6464647 L23.6664962,30.4489312 L9.51455524,30.4489312 Z" id="Fill-122" fill="#C2E9F9"></path>
                            <path d="M9.51455524,30.4489312 L9.51455524,42.6464647 C9.51455524,43.9936948 12.682171,45.0853993 16.5900648,45.0853993 C20.4979586,45.0853993 23.6664962,43.9936948 23.6664962,42.6464647 L23.6664962,30.4489312 L9.51455524,30.4489312 L9.51455524,30.4489312 Z" id="Stroke-123" stroke="#14ABF4" stroke-width="2"></path>
                            <path d="M8.38219714,20.0680132 C8.38219714,22.3315123 6.60847983,24.1659573 4.41991179,24.1659573 C2.23134376,24.1659573 0.457626442,21.4533814 0.457626442,19.1898823 C0.457626442,16.9263832 2.23134376,15.9700691 4.41991179,15.9700691 C6.60847983,15.9700691 8.38219714,17.804514 8.38219714,20.0680132" id="Fill-124" fill="#C2E9F9"></path>
                            <path d="M8.38219714,20.0680132 C8.38219714,22.3315123 6.60847983,24.1659573 4.41991179,24.1659573 C2.23134376,24.1659573 0.457626442,21.4533814 0.457626442,19.1898823 C0.457626442,16.9263832 2.23134376,15.9700691 4.41991179,15.9700691 C6.60847983,15.9700691 8.38219714,17.804514 8.38219714,20.0680132 L8.38219714,20.0680132 Z" id="Stroke-125" stroke="#14ABF4" stroke-width="2"></path>
                            <path d="M24.79867,19.6289477 C24.79867,21.8924469 26.5723873,23.7268918 28.7609553,23.7268918 C30.9495233,23.7268918 32.7232407,21.014316 32.7232407,18.7508169 C32.7232407,16.4873177 30.9495233,15.5310036 28.7609553,15.5310036 C26.5723873,15.5310036 24.79867,17.3654486 24.79867,19.6289477" id="Fill-126" fill="#C2E9F9"></path>
                            <path d="M24.79867,19.6289477 C24.79867,21.8924469 26.5723873,23.7268918 28.7609553,23.7268918 C30.9495233,23.7268918 32.7232407,21.014316 32.7232407,18.7508169 C32.7232407,16.4873177 30.9495233,15.5310036 28.7609553,15.5310036 C26.5723873,15.5310036 24.79867,17.3654486 24.79867,19.6289477 L24.79867,19.6289477 Z" id="Stroke-127" stroke="#14ABF4" stroke-width="2"></path>
                            <path d="M16.5904336,0.225973855 C9.55640907,0.225973855 3.85451635,6.51686149 3.85451635,14.2770213 C3.85451635,22.0362277 9.55640907,28.3271153 16.5904336,28.3271153 C23.624458,28.3271153 29.3272726,22.0362277 29.3272726,14.2770213 C29.3272726,6.51686149 23.624458,0.225973855 16.5904336,0.225973855" id="Fill-128" fill="#14ABF4"></path>
                            <path d="M16.5904336,0.225973855 C9.55640907,0.225973855 3.85451635,6.51686149 3.85451635,14.2770213 C3.85451635,22.0362277 9.55640907,28.3271153 16.5904336,28.3271153 C23.624458,28.3271153 29.3272726,22.0362277 29.3272726,14.2770213 C29.3272726,6.51686149 23.624458,0.225973855 16.5904336,0.225973855 L16.5904336,0.225973855 Z" id="Stroke-129" stroke="#14ABF4" stroke-width="2"></path>
                            <path d="M25.2645934,7.8590383 C22.9893677,6.39644029 19.9462071,5.49447307 16.5905257,5.49447307 C13.2348443,5.49447307 10.1916838,6.39644029 7.91645807,7.8590383 C7.12916358,10.739422 6.28010244,13.2279362 3.85368665,15.1300764 L3.85368665,17.7892588 C3.85368665,28.2534134 9.63854951,35.3518763 16.5905257,35.3518763 C23.542502,35.3518763 29.3264429,28.2534134 29.3264429,17.7892588 L29.3264429,15.1300764 C26.9000272,13.2279362 26.050966,10.739422 25.2645934,7.8590383" id="Fill-130" fill="#C2E9F9"></path>
                            <path d="M25.2645934,7.8590383 C22.9893677,6.39644029 19.9462071,5.49447307 16.5905257,5.49447307 C13.2348443,5.49447307 10.1916838,6.39644029 7.91645807,7.8590383 C7.12916358,10.739422 6.28010244,13.2279362 3.85368665,15.1300764 L3.85368665,17.7892588 C3.85368665,28.2534134 9.63854951,35.3518763 16.5905257,35.3518763 C23.542502,35.3518763 29.3264429,28.2534134 29.3264429,17.7892588 L29.3264429,15.1300764 C26.9000272,13.2279362 26.050966,10.739422 25.2645934,7.8590383 L25.2645934,7.8590383 Z" id="Stroke-131" stroke="#14ABF4" stroke-width="2"></path>
                            <path d="M11.5166248,19.3746616 C11.5166248,20.5874548 10.7560652,21.5704655 9.81850254,21.5704655 C8.8809399,21.5704655 8.12038024,20.5874548 8.12038024,19.3746616 C8.12038024,18.1618685 8.8809399,17.1788577 9.81850254,17.1788577 C10.7560652,17.1788577 11.5166248,18.1618685 11.5166248,19.3746616" id="Fill-132" fill="#14ABF4"></path>
                            <path d="M25.1020641,19.3746616 C25.1020641,20.5874548 24.3415045,21.5704655 23.4039418,21.5704655 C22.4663792,21.5704655 21.7058195,20.5874548 21.7058195,19.3746616 C21.7058195,18.1618685 22.4663792,17.1788577 23.4039418,17.1788577 C24.3415045,17.1788577 25.1020641,18.1618685 25.1020641,19.3746616" id="Fill-133" fill="#14ABF4"></path>
                            <path d="M26.375748,30.1778643 C26.375748,35.1234288 21.9949244,39.1336551 16.5908023,39.1336551 C11.1857583,39.1336551 6.8049347,35.1234288 6.8049347,30.1778643 C6.8049347,25.2322999 10.98663,24.644019 16.3907521,24.644019 C21.7948742,24.644019 26.375748,25.2322999 26.375748,30.1778643" id="Fill-134" fill="#14ABF4"></path>
                            <path d="M13.5479183,28.435809 C15.2294466,30.3055318 17.9508674,30.3055318 19.6333175,28.435809 L13.5479183,28.435809 Z" id="Fill-135" fill="#C2E9F9"></path>
                            <path d="M13.5479183,28.435809 C15.2294466,30.3055318 17.9508674,30.3055318 19.6333175,28.435809 L13.5479183,28.435809 L13.5479183,28.435809 Z" id="Stroke-136" stroke="#C2E9F9" stroke-width="2" stroke-linecap="round" stroke-linejoin="round"></path>
                        </g>
                    </g>
                </g>
            </g>
        </g>
    </g>
</svg>
