
<svg width="202px" height="170px" viewBox="0 0 252 220" version="1.1" xmlns="http://www.w3.org/2000/svg" xmlns:xlink="http://www.w3.org/1999/xlink">
    <!-- Generator: Sketch 44.1 (41455) - http://www.bohemiancoding.com/sketch -->
    <desc>Created with Sketch.</desc>
    <defs>
        <filter x="-2.2%" y="-1.3%" width="104.4%" height="104.2%" filterUnits="objectBoundingBox" id="filter-1">
            <feOffset dx="0" dy="4" in="SourceAlpha" result="shadowOffsetOuter1"></feOffset>
            <feGaussianBlur stdDeviation="3" in="shadowOffsetOuter1" result="shadowBlurOuter1"></feGaussianBlur>
            <feColorMatrix values="0 0 0 0 0   0 0 0 0 0   0 0 0 0 0  0 0 0 0.1 0" type="matrix" in="shadowBlurOuter1" result="shadowMatrixOuter1"></feColorMatrix>
            <feMerge>
                <feMergeNode in="shadowMatrixOuter1"></feMergeNode>
                <feMergeNode in="SourceGraphic"></feMergeNode>
            </feMerge>
        </filter>
    </defs>
    <g id="Page-1" stroke="none" stroke-width="1" fill="none" fill-rule="evenodd">
        <g id="messages" transform="translate(-848.000000, -709.000000)">
            <g id="trying-msg" filter="url(#filter-1)" transform="translate(735.000000, 651.500000)">
                <g id="Imported-Layers" transform="translate(119.000000, 60.000000)">
                    <path d="M166.064192,136.057725 C166.009581,145.791377 158.073772,153.638084 148.34012,153.582754 C138.605749,153.528144 130.759042,145.592335 130.814371,135.858683 C130.868982,126.124311 138.80479,118.277605 148.539162,118.332934 C158.272814,118.388263 166.119521,126.323353 166.064192,136.057725" id="Fill-1" fill="#DBB8FF"></path>
                    <path d="M148.440719,155.928144 L148.327904,155.928144 C137.420838,155.928144 128.597605,146.963353 128.658683,136.056287 C128.71976,125.187305 137.582515,116.407186 148.437844,116.407186 L148.551377,116.407186 C159.457725,116.407186 168.280958,125.372695 168.21988,136.279042 C168.158802,147.148024 159.296048,155.928144 148.440719,155.928144 L148.440719,155.928144 Z M148.438563,120.718563 C139.948024,120.718563 133.017485,127.58012 132.97006,136.08 C132.922635,144.61006 139.822275,151.616766 148.351617,151.616766 L148.44,151.616766 C156.930539,151.616766 163.860359,144.75521 163.908503,136.255329 C163.956647,127.725269 157.056287,120.718563 148.526946,120.718563 L148.438563,120.718563 L148.438563,120.718563 Z" id="Fill-2" fill="#A53EFF"></path>
                    <path d="M149.512814,118.338683 L114.017246,118.138204 C110.171497,118.115928 107.011257,120.661796 106.988982,124.507545 L106.983952,125.427305 C106.962395,129.272335 110.093892,131.854132 113.939641,131.875689 L131.956168,131.977725" id="Fill-3" fill="#DBB8FF"></path>
                    <path d="M131.943952,134.133413 L113.927425,134.031377 C108.712096,134.001916 104.800958,130.297725 104.828263,125.41509 L104.834012,124.494611 C104.861317,119.632096 108.784671,115.981796 113.968383,115.981796 L114.028743,115.981796 L149.52503,116.182275 L149.501317,120.493653 L114.00503,120.293174 C111.686228,120.273772 109.160479,121.598084 109.145389,124.51976 L109.139641,125.44024 C109.122395,128.361916 111.622275,129.707066 113.951138,129.72 L131.967665,129.822036 L131.943952,134.133413" id="Fill-4" fill="#A53EFF"></path>
                    <path d="M136.771257,132.00503 L120.455569,131.912335 C117.425389,131.89509 114.935569,133.901317 114.918323,136.931497 L114.914012,137.655808 C114.896766,140.685988 117.364311,142.72024 120.394491,142.736766 L134.590419,142.817246" id="Fill-5" fill="#DBB8FF"></path>
                    <path d="M134.578204,144.972934 L120.382275,144.893174 C116.012695,144.867305 112.736048,141.750898 112.758323,137.644311 L112.762635,136.918563 C112.773413,134.855569 113.617006,132.986587 115.137485,131.657246 C116.539401,130.430659 118.412695,129.756647 120.417485,129.756647 L120.467784,129.756647 L136.783473,129.849341 L136.759042,134.160719 L120.443353,134.068024 C118.819401,134.025629 117.08479,134.954012 117.074012,136.942994 L117.069701,137.668743 C117.058204,139.656287 118.792096,140.572455 120.406707,140.581796 L134.601916,140.661557 L134.578204,144.972934" id="Fill-6" fill="#A53EFF"></path>
                    <path d="M139.91497,142.847425 L128.25988,142.781317 C125.230419,142.764072 122.73988,144.770299 122.722635,147.800479 L122.718323,148.52479 C122.701796,151.55497 125.169341,153.589222 128.198802,153.605749 L149.969102,153.729341" id="Fill-7" fill="#DBB8FF"></path>
                    <path d="M149.957605,155.884311 L128.187305,155.762156 C123.817725,155.736287 120.540359,152.620599 120.562635,148.513293 L120.566946,147.787545 C120.578443,145.724551 121.422036,143.855569 122.941796,142.526228 C124.355928,141.288862 126.227784,140.636407 128.272096,140.625629 L139.926467,140.691737 L139.902754,145.003114 L128.248383,144.937006 L128.223234,144.937006 C126.615808,144.937006 124.88982,145.833772 124.878323,147.811976 L124.874012,148.537725 C124.863234,150.525269 126.596407,151.441437 128.211737,151.450778 L149.981317,151.572934 L149.957605,155.884311" id="Fill-8" fill="#A53EFF"></path>
                    <path d="M209.393533,204.496527 L118.427066,204.496527 C116.05006,204.496527 114.105629,202.552096 114.105629,200.17509 L114.105629,140.491257 C114.105629,138.114251 116.05006,136.169102 118.427066,136.169102 L209.393533,136.169102 C211.770539,136.169102 213.715689,138.114251 213.715689,140.491257 L213.715689,200.17509 C213.715689,202.552096 211.770539,204.496527 209.393533,204.496527" id="Fill-9" fill="#DBB8FF"></path>
                    <path d="M209.393533,206.652934 L118.427784,206.652934 C114.855808,206.652934 111.94994,203.747066 111.94994,200.17509 L111.94994,140.491257 C111.94994,136.919281 114.855808,134.013413 118.427784,134.013413 L209.393533,134.013413 C212.965509,134.013413 215.871377,136.919281 215.871377,140.491257 L215.871377,200.17509 C215.871377,203.747066 212.965509,206.652934 209.393533,206.652934 L209.393533,206.652934 Z M118.427784,138.32479 C117.232814,138.32479 116.261317,139.296287 116.261317,140.491257 L116.261317,200.17509 C116.261317,201.369341 117.232814,202.341557 118.427784,202.341557 L209.393533,202.341557 C210.587784,202.341557 211.56,201.369341 211.56,200.17509 L211.56,140.491257 C211.56,139.296287 210.587784,138.32479 209.393533,138.32479 L118.427784,138.32479 L118.427784,138.32479 Z" id="Fill-10" fill="#A53EFF"></path>
                    <polyline id="Fill-11" fill="#C48DFF" points="116.060838 202.64479 164.527904 143.98994 212.407904 202.64479"></polyline>
                    <path d="M212.409341,204.800479 C211.783473,204.800479 211.164072,204.530299 210.737246,204.007904 L164.517844,147.385868 L117.722156,204.017964 C116.96479,204.93485 115.605269,205.064192 114.687665,204.306108 C113.769341,203.547305 113.64,202.189222 114.398802,201.270898 L162.865868,142.478084 C163.276168,141.982275 163.88479,141.556886 164.527904,141.556886 L164.534371,141.556886 C165.179641,141.556886 165.789701,141.988024 166.197844,142.487425 L214.077844,201.211976 C214.830898,202.134611 214.692934,203.527186 213.771018,204.28024 C213.37006,204.606467 212.888623,204.800479 212.409341,204.800479" id="Fill-12" fill="#A53EFF"></path>
                    <path d="M213.612934,140.902994 C213.612934,168.238563 193.074251,192.251497 165.454132,192.251497 C137.834012,192.251497 114.208383,168.238563 114.208383,140.902994" id="Fill-13" fill="#C48DFF"></path>
                    <path d="M165.454132,194.407186 C151.755449,194.407186 138.084072,188.553054 127.944431,178.347305 C117.844311,168.182515 112.052695,154.534132 112.052695,140.902994 C112.052695,139.712335 113.017006,138.747305 114.208383,138.747305 C115.399042,138.747305 116.364072,139.712335 116.364072,140.902994 C116.364072,167.108982 139.302754,190.095808 165.454132,190.095808 C190.82012,190.095808 211.457246,168.028024 211.457246,140.902994 C211.457246,139.712335 212.421557,138.747305 213.612934,138.747305 C214.803593,138.747305 215.768623,139.712335 215.768623,140.902994 C215.768623,170.40503 193.197126,194.407186 165.454132,194.407186" id="Fill-14" fill="#A53EFF"></path>
                    <path d="M160.982515,151.259641 C160.91497,163.21006 151.173413,172.842395 139.222994,172.77485 C127.272575,172.707305 117.64024,162.96503 117.707784,151.015329 C117.775329,139.06491 127.517605,129.432575 139.467305,129.50012 C151.417725,129.567665 161.05006,139.309222 160.982515,151.259641" id="Fill-15" fill="#DBB8FF"></path>
                    <path d="M139.347305,174.610778 L139.210778,174.610778 C132.855808,174.610778 126.894611,172.226587 122.425868,167.706826 C117.957126,163.187066 115.516168,157.278323 115.552096,150.923353 C115.588024,144.567665 118.096527,138.567665 122.616287,134.099641 C127.102275,129.663234 133.038323,127.185629 139.341557,127.185629 L139.478802,127.185629 C152.599042,127.185629 163.212216,137.912335 163.138204,151.031856 C163.06491,164.106108 152.40503,174.610778 139.347305,174.610778 L139.347305,174.610778 Z M139.342275,131.497006 C134.180838,131.497006 129.321198,133.572216 125.647186,137.205269 C121.946587,140.864192 119.892934,145.784192 119.863473,150.988024 C119.834012,156.191856 121.833054,160.95521 125.491976,164.65509 C129.15018,168.356407 134.031377,170.299401 139.23521,170.299401 L139.348024,170.299401 C144.51018,170.299401 149.36982,168.463473 153.043114,164.830419 C156.743713,161.171497 158.797365,156.371497 158.826826,151.167665 C158.856287,145.963832 156.857246,141.02012 153.198323,137.319521 C149.54012,133.619641 144.658922,131.497006 139.45509,131.497006 L139.342275,131.497006 L139.342275,131.497006 Z" id="Fill-16" fill="#A53EFF"></path>
                    <path d="M140.662994,129.506587 L97.0864671,129.26012 C92.365509,129.233533 88.4852695,132.359281 88.4586826,137.08024 L88.4522156,138.209102 C88.4256287,142.93006 92.2699401,146.098922 96.9908982,146.125509 L119.108982,146.250539" id="Fill-17" fill="#DBB8FF"></path>
                    <path d="M119.096766,148.406228 L96.9794012,148.281198 C90.8572455,148.246707 86.2641916,143.910898 86.2965269,138.196886 L86.302994,137.068024 C86.3353293,131.376287 90.9398802,127.10515 97.0253892,127.10515 L97.0986826,127.10515 L140.67521,127.350898 L140.650778,131.662275 L97.0749701,131.416527 L97.0304192,131.416527 C93.8507784,131.416527 90.6352096,133.359521 90.6143713,137.091737 L90.6079042,138.220599 C90.5985629,139.858204 91.211497,141.275928 92.3791617,142.321437 C93.5547305,143.374132 95.1980838,143.960479 97.0031138,143.96982 L119.120479,144.09485 L119.096766,148.406228" id="Fill-18" fill="#A53EFF"></path>
                    <path d="M125.020599,146.284311 L104.990659,146.170778 C101.270659,146.14994 98.2131737,148.612455 98.1923353,152.332455 L98.1873054,153.222036 C98.1664671,156.942036 101.195928,159.439042 104.91521,159.45988 L122.343234,159.558323" id="Fill-19" fill="#DBB8FF"></path>
                    <path d="M122.331018,161.714012 L104.903713,161.615569 C102.538922,161.601916 100.34012,160.792096 98.7111377,159.334132 C96.9693413,157.77485 96.0179641,155.600479 96.0316168,153.210539 L96.0366467,152.319521 C96.0502994,149.929581 97.0253892,147.765988 98.7851497,146.226826 C100.42994,144.786826 102.654611,144.007904 105.002874,144.01509 L125.032814,144.128623 L125.009102,148.44 L104.979162,148.326467 C103.671377,148.313533 102.475689,148.725269 101.624192,149.471138 C100.795689,150.195449 100.354491,151.189222 100.348024,152.344671 L100.342994,153.235689 C100.336527,154.388982 100.765509,155.387784 101.586108,156.121437 C102.430419,156.876647 103.616766,157.296287 104.928144,157.304192 L122.354731,157.402635 L122.331018,161.714012" id="Fill-20" fill="#A53EFF"></path>
                    <path d="M128.88,159.59497 L114.571976,159.514491 C110.851976,159.493653 107.794491,161.956168 107.773653,165.676168 L107.768623,166.56503 C107.747784,170.28503 110.777246,172.782036 114.496527,172.802874 L141.223473,172.954491" id="Fill-21" fill="#DBB8FF"></path>
                    <path d="M141.211976,175.109461 L114.48503,174.958563 C109.39976,174.92982 105.585629,171.316168 105.612934,166.553533 L105.617964,165.662515 C105.645269,160.919281 109.469461,157.358802 114.523114,157.358802 L114.584192,157.358802 L128.891497,157.439281 L128.867784,161.750659 L114.560479,161.67018 L114.524551,161.67018 C113.227545,161.67018 112.04982,162.076168 111.205509,162.81485 C110.377006,163.539162 109.935808,164.532934 109.929341,165.687665 L109.924311,166.578683 C109.908503,169.355928 112.28982,170.63497 114.508743,170.647186 L141.235689,170.798084 L141.211976,175.109461" id="Fill-22" fill="#A53EFF"></path>
                    <path d="M200.474012,16.3681437 C200.430898,23.9288623 194.267066,30.0237126 186.706347,29.9813174 C179.145629,29.9382036 173.050778,23.7743713 173.093174,16.2136527 C173.136287,8.65293413 179.30012,2.55808383 186.860838,2.60047904 C194.421557,2.64359281 200.516407,8.80742515 200.474012,16.3681437" id="Fill-23" fill="#FFC7CE"></path>
                    <path d="M186.786108,32.3353293 L186.694132,32.3353293 C182.461796,32.3353293 178.491018,30.5417964 175.516168,27.5317365 C172.53988,24.5216766 170.913772,20.4840719 170.938204,16.251018 C170.961916,12.0186826 172.631856,8.16071856 175.641916,5.18443114 C178.629701,2.23041916 182.582515,0.718562874 186.781078,0.718562874 L186.873054,0.718562874 C191.105389,0.718562874 195.076168,2.27640719 198.051018,5.28646707 C201.027305,8.29580838 202.653413,12.2162874 202.628982,16.4486228 C202.605269,20.6816766 200.935329,24.7156886 197.925269,27.691976 C194.937485,30.645988 190.984671,32.3353293 186.786108,32.3353293 L186.786108,32.3353293 Z M186.781796,5.02994012 C183.725749,5.02994012 180.848623,6.0754491 178.672814,8.22538922 C176.482635,10.3918563 175.266108,13.2129341 175.249581,16.2941317 C175.231617,19.3753293 176.41509,22.3437126 178.580838,24.5346108 C180.747305,26.725509 183.638084,28.0239521 186.718563,28.0239521 L186.785389,28.0239521 C189.841437,28.0239521 192.718563,26.7427545 194.894371,24.5920958 C197.084551,22.4263473 198.301078,19.4867066 198.317605,16.4062275 L198.317605,16.3810778 C198.335569,13.2998802 197.152096,10.520479 194.986347,8.32958084 C192.81988,6.13868263 189.92982,5.02994012 186.848623,5.02994012 L186.781796,5.02994012 L186.781796,5.02994012 Z" id="Fill-24" fill="#FF6470"></path>
                    <path d="M187.617485,2.60479042 L160.046228,2.44958084 C157.059162,2.43233533 154.603832,4.40982036 154.587305,7.39688623 L154.583713,8.11113772 C154.566467,11.0982036 156.998802,13.102994 159.985868,13.1202395 L173.97988,13.1992814" id="Fill-25" fill="#FFC7CE"></path>
                    <path d="M173.97988,15.3549701 L173.968383,15.3549701 L159.974371,15.2759281 C157.971737,15.2644311 156.105629,14.5753293 154.72024,13.3358084 C153.22994,12.0021557 152.415808,10.1417964 152.427305,8.09892216 L152.431617,7.3839521 C152.442395,5.34179641 153.278802,3.49149701 154.783473,2.17437126 C156.170299,0.960718563 158.024192,0.293892216 160.008144,0.293892216 L160.057725,0.293892216 L187.628982,0.449101796 C188.819641,0.456287425 189.779641,1.42706587 189.773174,2.61772455 C189.765988,3.80335329 188.802395,4.76047904 187.617485,4.76047904 L187.605269,4.76047904 L160.034012,4.60526946 L160.008144,4.60526946 C159.068982,4.60526946 158.222515,4.89341317 157.621796,5.41868263 C157.043353,5.92598802 156.747305,6.59497006 156.742994,7.4091018 L156.738683,8.12407186 C156.733653,8.93676647 157.022515,9.61005988 157.59521,10.1231138 C158.195928,10.6598802 159.049581,10.9588024 159.998084,10.9645509 L173.992096,11.0435928 C175.182754,11.0500599 176.142754,12.0201198 176.135569,13.211497 C176.128383,14.3978443 175.165509,15.3549701 173.97988,15.3549701" id="Fill-26" fill="#FF6470"></path>
                    <path d="M177.720719,13.2201198 L165.047425,13.148982 C162.693413,13.1353293 160.759042,14.6931737 160.746108,17.0471856 L160.742515,17.6098204 C160.729581,19.9631138 162.646707,21.5432335 165,21.5568862 L176.026347,21.6186826" id="Fill-27" fill="#DBB8FF"></path>
                    <path d="M176.014132,23.7743713 L164.988503,23.7118563 C161.318802,23.6917365 158.567425,21.062515 158.586826,17.5976048 L158.590419,17.0335329 C158.610539,13.5837126 161.36982,10.9925749 165.015808,10.9925749 L165.058922,10.9925749 L177.732216,11.0644311 L177.708503,15.3758084 L165.03521,15.3039521 C163.981796,15.2752096 162.908982,15.8385629 162.901796,17.0594012 L162.898204,17.6227545 C162.895329,18.1264671 163.072096,18.5410778 163.421317,18.8543713 C163.811497,19.2035928 164.376287,19.3976048 165.012216,19.400479 L176.037844,19.462994 L176.014132,23.7743713" id="Fill-28" fill="#A53EFF"></path>
                    <path d="M180.161677,21.6423952 L171.109222,21.5913772 C168.755928,21.5777246 166.821557,23.1362874 166.807904,25.4895808 L166.80503,26.0522156 C166.791377,28.405509 168.708503,29.9856287 171.061796,29.9992814 L187.971737,30.0948503" id="Fill-29" fill="#DBB8FF"></path>
                    <path d="M187.959521,32.2505389 L171.050299,32.1542515 C169.36024,32.1449102 167.782994,31.5607186 166.608144,30.5094611 C165.33485,29.3698204 164.639281,27.782515 164.649341,26.04 L164.652934,25.4766467 C164.662275,23.7348503 165.376527,22.1554491 166.662036,21.0308982 C167.848383,19.9925749 169.418443,19.4443114 171.121437,19.4356886 L180.173892,19.4867066 L180.15018,23.7980838 L171.097006,23.7470659 C170.036407,23.7513772 168.970778,24.2809581 168.964311,25.5017964 L168.960719,26.0658683 C168.957844,26.5688623 169.133892,26.9834731 169.483114,27.2967665 C169.873293,27.645988 170.438084,27.84 171.074012,27.8428743 L187.983234,27.9391617 L187.959521,32.2505389" id="Fill-30" fill="#A53EFF"></path>
                    <path d="M234.129341,69.5281437 L163.471617,69.5281437 C161.625629,69.5281437 160.114491,68.0177246 160.114491,66.171018 L160.114491,19.8122156 C160.114491,17.965509 161.625629,16.4550898 163.471617,16.4550898 L234.129341,16.4550898 C235.976048,16.4550898 237.486467,17.965509 237.486467,19.8122156 L237.486467,66.171018 C237.486467,68.0177246 235.976048,69.5281437 234.129341,69.5281437" id="Fill-31" fill="#FFC7CE"></path>
                    <path d="M234.129341,71.6838323 L163.471617,71.6838323 C160.432096,71.6838323 157.958802,69.2112575 157.958802,66.171018 L157.958802,19.8122156 C157.958802,16.771976 160.432096,14.2994012 163.471617,14.2994012 L234.129341,14.2994012 C237.169581,14.2994012 239.642156,16.771976 239.642156,19.8122156 L239.642156,66.171018 C239.642156,69.2112575 237.169581,71.6838323 234.129341,71.6838323 L234.129341,71.6838323 Z M163.471617,18.6107784 C162.820599,18.6107784 162.27018,19.160479 162.27018,19.8122156 L162.27018,66.171018 C162.27018,66.8227545 162.820599,67.3724551 163.471617,67.3724551 L234.129341,67.3724551 C234.780359,67.3724551 235.330778,66.8227545 235.330778,66.171018 L235.330778,19.8122156 C235.330778,19.160479 234.780359,18.6107784 234.129341,18.6107784 L163.471617,18.6107784 L163.471617,18.6107784 Z" id="Fill-32" fill="#FF6470"></path>
                    <polyline id="Fill-33" fill="#FFABB9" points="161.633533 68.0895808 199.280479 22.5298204 236.471138 68.0895808"></polyline>
                    <path d="M236.472575,70.2452695 C235.847425,70.2452695 235.227305,69.9750898 234.801198,69.4526946 L199.270419,25.9264671 L163.29485,69.4627545 C162.536766,70.3803593 161.177964,70.5104192 160.259641,69.7516168 C159.342036,68.9935329 159.212695,67.634012 159.971497,66.7164072 L197.619162,21.0294611 C198.028743,20.5336527 198.638084,20.1197605 199.280479,20.1197605 L199.286946,20.1197605 C199.932216,20.1197605 200.542275,20.5394012 200.950419,21.039521 L238.141078,66.6632335 C238.894132,67.5851497 238.756886,68.9748503 237.83497,69.7279042 C237.434012,70.0548503 236.951856,70.2452695 236.472575,70.2452695" id="Fill-34" fill="#FF6470"></path>
                    <path d="M237.406707,20.131976 C237.406707,41.3647904 221.453892,60.0165269 199.99976,60.0165269 C178.545629,60.0165269 160.19497,41.3647904 160.19497,20.131976" id="Fill-35" fill="#FFABB9"></path>
                    <path d="M199.99976,62.1722156 C189.232814,62.1722156 178.488144,57.5741317 170.522874,49.5564072 C162.589222,41.5702994 158.039281,30.8457485 158.039281,20.131976 C158.039281,18.9413174 159.003593,17.9762874 160.19497,17.9762874 C161.385629,17.9762874 162.350659,18.9413174 162.350659,20.131976 C162.350659,40.2301796 179.943234,57.8608383 199.99976,57.8608383 C219.437605,57.8608383 235.251018,40.9358084 235.251018,20.131976 C235.251018,18.9413174 236.215329,17.9762874 237.406707,17.9762874 C238.597365,17.9762874 239.562395,18.9413174 239.562395,20.131976 C239.562395,43.3128144 221.814611,62.1722156 199.99976,62.1722156" id="Fill-36" fill="#FF6470"></path>
                    <path d="M196.526228,28.1762874 C196.474491,37.4586826 188.906587,44.9410778 179.62491,44.8886228 C170.342515,44.8361677 162.86012,37.268982 162.912575,27.9865868 C162.96503,18.7041916 170.532216,11.222515 179.814611,11.2749701 C189.097006,11.3267066 196.578683,18.8946108 196.526228,28.1762874" id="Fill-37" fill="#FFC7CE"></path>
                    <path d="M179.722635,46.7065868 L179.612695,46.7065868 C169.156886,46.7065868 160.698683,38.3734132 160.756886,27.9176048 C160.815808,17.4977246 169.312096,9.34131737 179.718323,9.34131737 L179.826826,9.34131737 C190.283353,9.34131737 198.740838,17.8440719 198.681916,28.2998802 C198.653892,33.3650299 196.65485,37.8912575 193.052695,41.4524551 C189.477126,44.9877844 184.746826,46.7065868 179.722635,46.7065868 L179.722635,46.7065868 Z M179.718323,13.6526946 C171.677605,13.6526946 165.113533,19.8905389 165.068263,27.9413174 C165.022994,36.0201198 171.558323,42.3952096 179.636407,42.3952096 L179.721916,42.3952096 C183.604311,42.3952096 187.258922,41.062994 190.021078,38.331018 C192.804072,35.5796407 194.348982,31.9932934 194.370539,28.08 L194.370539,28.2330539 C194.415808,20.1549701 187.881198,13.6526946 179.803114,13.6526946 L179.718323,13.6526946 L179.718323,13.6526946 Z" id="Fill-38" fill="#FF6470"></path>
                    <path d="M180.743713,11.28 L146.89509,11.0888623 C143.228263,11.068024 140.214611,13.4953293 140.193772,17.1628743 L140.188743,18.039521 C140.167904,21.7063473 143.154251,24.1681437 146.821078,24.188982 L164.001198,24.285988" id="Fill-39" fill="#FFC7CE"></path>
                    <path d="M164.001198,26.4416766 L163.994012,26.4416766 L146.809581,26.3446707 C144.470659,26.331018 142.29485,25.5298204 140.683832,24.0876647 C138.960719,22.5449102 138.019401,20.3928144 138.033054,18.0273054 L138.038084,17.1506587 C138.064671,12.4562874 141.847186,8.93317365 146.846946,8.93317365 L146.906587,8.93317365 L180.75521,9.12431138 C181.945868,9.13077844 182.905868,10.1015569 182.898683,11.2922156 C182.891497,12.4785629 181.928623,13.4356886 180.742994,13.4356886 L180.731497,13.4356886 L146.882874,13.2445509 L146.850539,13.2445509 C144.686946,13.2445509 142.364551,14.4704192 142.349461,17.1750898 L142.344431,18.0517365 C142.337964,19.1813174 142.758323,20.1578443 143.559521,20.8749701 C144.38515,21.6150898 145.548503,22.0253892 146.833293,22.0332934 L164.013413,22.1302994 C165.204072,22.1367665 166.164072,23.1075449 166.156886,24.2982036 C166.150419,25.4845509 165.186826,26.4416766 164.001198,26.4416766" id="Fill-40" fill="#FF6470"></path>
                    <path d="M168.593533,24.3118563 L153.03521,24.2241916 C150.14515,24.2076647 147.770299,26.120479 147.754491,29.0098204 L147.75018,29.7003593 C147.734371,32.5897006 150.086946,34.5298204 152.976287,34.5456287 L166.513293,34.622515" id="Fill-41" fill="#FFC7CE"></path>
                    <path d="M166.514012,36.7782036 L166.501796,36.7782036 L152.96479,36.7020359 C148.740359,36.6776048 145.572216,33.662515 145.594491,29.6888623 L145.598802,28.9968862 C145.621078,25.0397605 148.797844,22.0677844 152.997126,22.0677844 L153.046707,22.0677844 L168.60503,22.1561677 C169.795689,22.1626347 170.755689,23.1334132 170.748503,24.3240719 C170.741317,25.5104192 169.777725,26.4675449 168.592814,26.4675449 L168.58491,26.4675449 L153.022994,26.3791617 L153.000719,26.3791617 C151.515449,26.3791617 149.92024,27.2033533 149.91018,29.0220359 L149.905868,29.714012 C149.895808,31.5405988 151.496766,32.3820359 152.989222,32.3906587 L166.525509,32.4668263 C167.716168,32.4732934 168.676168,33.4440719 168.669701,34.6347305 C168.662515,35.8210778 167.698922,36.7782036 166.514012,36.7782036" id="Fill-42" fill="#FF6470"></path>
                    <path d="M171.590659,34.6512575 L160.477365,34.588024 C157.588024,34.5722156 155.212455,36.4850299 155.196647,39.3743713 L155.192335,40.0649102 C155.176527,42.9542515 157.52982,44.8943713 160.419162,44.9101796 L181.178443,45.0273054" id="Fill-43" fill="#FFC7CE"></path>
                    <path d="M181.178443,47.1837126 L181.166228,47.1837126 L160.406946,47.0658683 C156.182515,47.0421557 153.014371,44.0270659 153.037365,40.0534132 L153.040958,39.3635928 C153.063952,35.3877844 156.274491,32.4373653 160.489581,32.4323353 L171.602874,32.4955689 C172.793533,32.5020359 173.753533,33.4728144 173.746347,34.6634731 C173.739162,35.8498204 172.775569,36.8069461 171.590659,36.8069461 L171.578443,36.8069461 L160.465868,36.7437126 L160.442874,36.7437126 C158.957605,36.7437126 157.362395,37.5679042 157.352335,39.3865868 L157.348743,40.0756886 C157.337964,41.9044311 158.938922,42.7465868 160.431377,42.754491 L181.18994,42.8723353 C182.381317,42.8788024 183.341317,43.8488623 183.334132,45.0402395 C183.326946,46.2258683 182.363353,47.1837126 181.178443,47.1837126" id="Fill-44" fill="#FF6470"></path>
                    <path d="M92.4840719,53.8074251 C92.4524551,59.4502994 87.8522156,63.9988024 82.2093413,63.9664671 C76.5671856,63.9348503 72.0186826,59.3346108 72.0502994,53.6924551 C72.0819162,48.0495808 76.6821557,43.5010778 82.3250299,43.5334132 C87.9679042,43.5650299 92.5156886,48.1652695 92.4840719,53.8074251" id="Fill-45" fill="#F2F2F2"></path>
                    <path d="M82.2682635,65.3892216 L82.2014371,65.3892216 C75.7753293,65.3892216 70.5772455,60.2522156 70.6131737,53.8261078 C70.6491018,47.4222754 75.8708982,42.3952096 82.2653892,42.3952096 L82.3329341,42.3952096 C88.7583234,42.3952096 93.9571257,47.5322156 93.9211976,53.9583234 C93.8845509,60.3621557 88.6634731,65.3892216 82.2682635,65.3892216 L82.2682635,65.3892216 Z M82.2653892,45.2694611 C77.4474251,45.2694611 73.5147305,49.0182036 73.4874251,53.8426347 C73.4601198,58.6835928 77.377006,62.5149701 82.2179641,62.5149701 L82.2682635,62.5149701 C87.0862275,62.5149701 91.0196407,58.7662275 91.0469461,53.9417964 C91.0742515,49.1008383 87.1573653,45.2694611 82.3164072,45.2694611 L82.2653892,45.2694611 L82.2653892,45.2694611 Z" id="Fill-46" fill="#E6E6E6"></path>
                    <path d="M82.8891018,43.5362874 L62.3130539,43.4198802 C60.0840719,43.4076647 58.2524551,44.8828743 58.239521,47.1125749 L58.2366467,47.6457485 C58.2237126,49.8747305 60.039521,51.3707784 62.268503,51.3837126 L72.7120958,51.4426347" id="Fill-47" fill="#F2F2F2"></path>
                    <path d="M72.7120958,52.8797605 L72.7041916,52.8797605 L62.2605988,52.8208383 C60.8076647,52.8122156 59.4553293,52.3135329 58.4536527,51.4167665 C57.3786826,50.4538922 56.7908982,49.1123353 56.799521,47.6371257 L56.8023952,47.1046707 C56.8189222,44.1786826 59.1729341,41.9827545 62.2843114,41.9827545 L62.3216766,41.9827545 L82.8977246,42.0991617 C83.6917365,42.1034731 84.3305389,42.7508982 84.3269461,43.5441916 C84.3226347,44.3353293 83.679521,44.9734132 82.8891018,44.9734132 L82.8811976,44.9734132 L62.3051497,44.857006 C61.0605988,44.8282635 59.685988,45.5547305 59.6766467,47.120479 L59.6737725,47.6529341 C59.6701796,48.3032335 59.9108982,48.8637126 60.3707784,49.2747305 C60.8493413,49.7037126 61.5262275,49.9422754 62.2771257,49.9465868 L72.7207186,50.005509 C73.5147305,50.0098204 74.1535329,50.6572455 74.1499401,51.4505389 C74.1456287,52.2416766 73.502515,52.8797605 72.7120958,52.8797605" id="Fill-48" fill="#E6E6E6"></path>
                    <path d="M75.502994,51.4584431 L66.0452695,51.4045509 C64.2891018,51.3952096 62.845509,52.5578443 62.8354491,54.314012 L62.8332934,54.7343713 C62.8232335,56.4905389 64.2538922,57.6697006 66.0100599,57.6797605 L74.2390419,57.7257485" id="Fill-49" fill="#DBB8FF"></path>
                    <path d="M74.2275449,59.8814371 L65.9985629,59.8354491 C62.948982,59.8182036 60.6610778,57.6194012 60.6776048,54.7221557 L60.6797605,54.2996407 C60.6883832,52.8431138 61.2869461,51.519521 62.365509,50.5753293 C63.3520958,49.7123353 64.6821557,49.2409581 66.0582036,49.2495808 L75.5152096,49.3027545 L75.491497,53.6141317 L66.0337725,53.5609581 C65.6773653,53.565988 65.3956886,53.6529341 65.2052695,53.8189222 C65.0586826,53.9475449 64.9925749,54.1041916 64.9911377,54.3262275 L64.988982,54.7487425 C64.9846707,55.4809581 65.8498204,55.5226347 66.022994,55.5240719 L74.2512575,55.5700599 L74.2275449,59.8814371" id="Fill-50" fill="#A53EFF"></path>
                    <path d="M77.3252695,57.7437126 L70.5693413,57.7056287 C68.8131737,57.6955689 67.3695808,58.8582036 67.359521,60.6143713 L67.3573653,61.0347305 C67.3473054,62.7908982 68.7779641,63.9700599 70.5341317,63.9801198 L83.1542515,64.0512575" id="Fill-51" fill="#DBB8FF"></path>
                    <path d="M83.1420359,66.2069461 L70.5226347,66.1358084 C67.4730539,66.1185629 65.1858683,63.9197605 65.2016766,61.022515 L65.2038323,60.6035928 C65.2203593,57.7164072 67.514012,55.5499401 70.5463473,55.5499401 L70.5822754,55.5499401 L77.337485,55.588024 L77.3137725,59.8994012 L70.5585629,59.8613174 L70.548503,59.8613174 C70.2158084,59.8613174 69.9183234,59.9547305 69.7293413,60.12 C69.5827545,60.2486228 69.5166467,60.4045509 69.5152096,60.6265868 L69.5130539,61.045509 C69.5087425,61.7813174 70.3738922,61.8237126 70.5470659,61.8244311 L83.1657485,61.8955689 L83.1420359,66.2069461" id="Fill-52" fill="#A53EFF"></path>
                    <path d="M117.600719,93.48 L64.8697006,93.48 C63.4922156,93.48 62.3647904,92.3525749 62.3647904,90.9750898 L62.3647904,56.3777246 C62.3647904,54.999521 63.4922156,53.8720958 64.8697006,53.8720958 L117.600719,53.8720958 C118.978922,53.8720958 120.106347,54.999521 120.106347,56.3777246 L120.106347,90.9750898 C120.106347,92.3525749 118.978922,93.48 117.600719,93.48" id="Fill-53" fill="#F2F2F2"></path>
                    <path d="M117.600719,94.9171257 L64.8704192,94.9171257 C62.6960479,94.9171257 60.9276647,93.1487425 60.9276647,90.9750898 L60.9276647,56.3777246 C60.9276647,54.2040719 62.6960479,52.4356886 64.8704192,52.4356886 L117.600719,52.4356886 C119.77509,52.4356886 121.543473,54.2040719 121.543473,56.3777246 L121.543473,90.9750898 C121.543473,93.1487425 119.77509,94.9171257 117.600719,94.9171257 L117.600719,94.9171257 Z M64.8704192,55.3099401 C64.2811976,55.3099401 63.8019162,55.7892216 63.8019162,56.3777246 L63.8019162,90.9750898 C63.8019162,91.5635928 64.2811976,92.0428743 64.8704192,92.0428743 L117.600719,92.0428743 C118.18994,92.0428743 118.668503,91.5635928 118.668503,90.9750898 L118.668503,56.3777246 C118.668503,55.7892216 118.18994,55.3099401 117.600719,55.3099401 L64.8704192,55.3099401 L64.8704192,55.3099401 Z" id="Fill-54" fill="#E6E6E6"></path>
                    <polyline id="Fill-55" fill="#F2F2F2" points="63.4979641 92.4064671 91.5930539 58.405509 119.348263 92.4064671"></polyline>
                    <path d="M119.348982,93.8435928 C118.932216,93.8435928 118.519042,93.6632335 118.234491,93.3154491 L91.5858683,60.6704192 L64.605988,93.3219162 C64.1008383,93.9341317 63.1947305,94.0210778 62.582515,93.514491 C61.971018,93.0086228 61.8847904,92.1032335 62.3899401,91.491018 L90.4850299,57.4900599 C90.7588024,57.1580838 91.171976,56.9849102 91.5973653,56.9683832 C92.0270659,56.9698204 92.434491,57.1638323 92.7068263,57.4972455 L120.462036,91.497485 C120.963593,92.1125749 120.871617,93.0179641 120.257246,93.519521 C119.98994,93.7379641 119.668743,93.8435928 119.348982,93.8435928" id="Fill-56" fill="#E6E6E6"></path>
                    <path d="M120.046707,56.6162874 C120.046707,72.4620359 108.140838,86.3820359 92.1298204,86.3820359 C76.119521,86.3820359 62.4244311,72.4620359 62.4244311,56.6162874" id="Fill-57" fill="#F2F2F2"></path>
                    <path d="M92.1298204,87.8191617 C75.5396407,87.8191617 60.9873054,73.2380838 60.9873054,56.6162874 C60.9873054,55.8222754 61.6311377,55.1791617 62.4244311,55.1791617 C63.2184431,55.1791617 63.8615569,55.8222754 63.8615569,56.6162874 C63.8615569,71.7068263 77.0708982,84.9449102 92.1298204,84.9449102 C106.730299,84.9449102 118.608862,72.2364072 118.608862,56.6162874 C118.608862,55.8222754 119.252695,55.1791617 120.046707,55.1791617 C120.84,55.1791617 121.483832,55.8222754 121.483832,56.6162874 C121.483832,73.8215569 108.315449,87.8191617 92.1298204,87.8191617" id="Fill-58" fill="#E6E6E6"></path>
                    <path d="M89.5379641,62.6198802 C89.4991617,69.5468263 83.851976,75.1307784 76.9243114,75.091976 C69.9973653,75.0524551 64.4134132,69.4052695 64.4522156,62.4783234 C64.4917365,55.5506587 70.1389222,49.9674251 77.0658683,50.0062275 C83.9935329,50.0457485 89.577485,55.6929341 89.5379641,62.6198802" id="Fill-59" fill="#F2F2F2"></path>
                    <path d="M76.9961677,76.8862275 L76.9164072,76.8862275 C69.2083832,76.1676647 62.971976,70.3573653 63.0150898,62.6486228 C63.0366467,58.9142515 64.5104192,55.4694611 67.1662275,52.8438323 C69.8019162,50.2376048 73.2891018,48.8622754 76.9925749,48.8622754 L77.074491,48.8622754 C80.8081437,48.8622754 84.3104192,50.211018 86.9360479,52.8661078 C89.5623952,55.5211976 90.9966467,58.9667066 90.9758084,62.7010778 L89.5386826,62.6565269 L90.9758084,62.8246707 C90.931976,70.5061078 84.6682635,76.8862275 76.9961677,76.8862275 L76.9961677,76.8862275 Z M76.9932934,51.7365269 C74.0507784,51.7365269 71.2807186,52.7281437 69.1868263,54.7983234 C67.0778443,56.8843114 65.9065868,59.5932934 65.8893413,62.559521 C65.8728144,65.5257485 67.0124551,68.4632335 69.0977246,70.5729341 C71.1837126,72.6826347 73.9667066,73.2934132 76.9336527,74.011976 L76.9961677,74.011976 C83.0917365,74.011976 88.0670659,68.8929341 88.1008383,62.7901796 C88.1180838,59.8239521 86.9784431,57.085509 84.8931737,54.9765269 C82.8064671,52.8668263 80.0241916,51.7365269 77.0572455,51.7365269 L76.9932934,51.7365269 L76.9932934,51.7365269 Z" id="Fill-60" fill="#E6E6E6"></path>
                    <path d="M77.7592814,50.0105389 L52.4989222,49.8675449 C49.7626347,49.8517365 47.5128144,51.6639521 47.4977246,54.4002395 L47.4941317,55.0548503 C47.4783234,57.7911377 49.7073054,59.628503 52.4435928,59.6435928 L65.2649102,59.7161677" id="Fill-61" fill="#F2F2F2"></path>
                    <path d="M65.2649102,61.1532934 L65.2591617,61.1532934 L52.4356886,61.0807186 C50.7326946,61.0713772 49.1497006,60.4886228 47.9784431,59.4402395 C46.7295808,58.3221557 46.0469461,56.7621557 46.057006,55.0469461 L46.0605988,54.3923353 C46.0792814,50.9863473 48.8292216,48.4304192 52.4637126,48.4304192 L52.5075449,48.4304192 L77.7679042,48.5734132 C78.5611976,48.5777246 79.2007186,49.2244311 79.1964072,50.0184431 C79.1920958,50.8088623 78.5497006,51.4476647 77.7592814,51.4476647 L77.7506587,51.4476647 L52.491018,51.3046707 L52.4673054,51.3046707 C50.7161677,51.3046707 48.9456287,52.3667066 48.9348503,54.4081437 L48.9312575,55.0627545 C48.9262275,55.9566467 49.2596407,56.7298204 49.8955689,57.2989222 C50.542994,57.8788024 51.4512575,58.2014371 52.4522156,58.2064671 L65.2735329,58.2790419 C66.0668263,58.2840719 66.7063473,58.9307784 66.7020359,59.7247904 C66.6977246,60.5152096 66.0553293,61.1532934 65.2649102,61.1532934" id="Fill-62" fill="#E6E6E6"></path>
                    <path d="M68.6917365,59.7355689 L57.0811976,59.6701796 C54.9247904,59.6579641 53.1520958,61.0857485 53.1405988,63.2414371 L53.137006,63.7573653 C53.1247904,65.9137725 54.8809581,67.3609581 57.0373653,67.3731737 L67.1396407,67.4306587" id="Fill-63" fill="#F2F2F2"></path>
                    <path d="M67.1403593,68.8677844 L67.1317365,68.8677844 L57.0287425,68.8102994 C53.9748503,68.7930539 51.6840719,66.6172455 51.6998802,63.7494611 L51.7027545,63.2342515 C51.7106587,61.7935329 52.2991617,60.4893413 53.3597605,59.5616766 C54.348503,58.6958084 55.6886228,58.2057485 57.0891018,58.2330539 L68.6996407,58.2984431 C69.4936527,58.3034731 70.1331737,58.9501796 70.1288623,59.7441916 C70.1245509,60.5346108 69.4814371,61.1726946 68.6917365,61.1726946 L68.6831138,61.1726946 L57.0725749,61.1073054 C56.3554491,61.0900599 55.7116168,61.3221557 55.2531737,61.7245509 C54.8141317,62.1082635 54.5805988,62.6356886 54.577006,63.2500599 L54.5741317,63.7652695 C54.5662275,65.2469461 55.8495808,65.9295808 57.045988,65.9360479 L67.1482635,65.9935329 C67.9422754,65.9978443 68.5810778,66.6452695 68.577485,67.4385629 C68.5731737,68.2297006 67.9300599,68.8677844 67.1403593,68.8677844" id="Fill-64" fill="#E6E6E6"></path>
                    <path d="M70.9286228,67.451497 L62.6349701,67.4047904 C60.4785629,67.3925749 58.7065868,68.8203593 58.6943713,70.9767665 L58.691497,71.491976 C58.6792814,73.6483832 60.4354491,75.0962874 62.5911377,75.108503 L78.0840719,75.1954491" id="Fill-65" fill="#F2F2F2"></path>
                    <path d="M78.0840719,76.6325749 L78.0783234,76.6325749 L62.5832335,76.5449102 C61.1669461,76.5377246 59.8476647,76.0505389 58.8697006,75.1753293 C57.8198802,74.2347305 57.2464671,72.9240719 57.2543713,71.4840719 L57.2572455,70.9688623 C57.2644311,69.5281437 57.8536527,68.2239521 58.9135329,67.2962874 C59.8943713,66.4383234 61.2043114,65.9676647 62.6076647,65.9676647 L62.6435928,65.9676647 L70.9372455,66.0150898 C71.7305389,66.0194012 72.3700599,66.6661078 72.3657485,67.4601198 C72.3621557,68.2541317 71.7104192,68.919521 70.92,68.8893413 L62.6263473,68.8419162 C61.9005988,68.8526946 61.2661078,69.0567665 60.8069461,69.4591617 C60.3686228,69.8428743 60.1350898,70.3702994 60.131497,70.9846707 L60.1286228,71.4998802 C60.1250299,72.1142515 60.3528144,72.6445509 60.7868263,73.0332934 C61.2416766,73.4407186 61.885509,73.6670659 62.5990419,73.6706587 L78.0926946,73.7583234 C78.885988,73.7633533 79.525509,74.4100599 79.5211976,75.2040719 C79.5168862,75.994491 78.874491,76.6325749 78.0840719,76.6325749" id="Fill-66" fill="#E6E6E6"></path>
                    <path d="M113.532934,17.9640719 L15.0898204,17.9640719" id="Fill-67" fill="#F2F2F2"></path>
                    <path d="M113.532934,20.1197605 L15.0898204,20.1197605 C13.8991617,20.1197605 12.9341317,19.1547305 12.9341317,17.9640719 C12.9341317,16.7734132 13.8991617,15.8083832 15.0898204,15.8083832 L113.532934,15.8083832 C114.723593,15.8083832 115.688623,16.7734132 115.688623,17.9640719 C115.688623,19.1547305 114.723593,20.1197605 113.532934,20.1197605" id="Fill-68" fill="#E6E6E6"></path>
                    <path d="M38.8023952,72.5748503 L2.15568862,72.5748503" id="Fill-69" fill="#E6E6E6"></path>
                    <path d="M38.8023952,74.7305389 L2.15568862,74.7305389 C0.96502994,74.7305389 0,73.765509 0,72.5748503 C0,71.3841916 0.96502994,70.4191617 2.15568862,70.4191617 L38.8023952,70.4191617 C39.9930539,70.4191617 40.9580838,71.3841916 40.9580838,72.5748503 C40.9580838,73.765509 39.9930539,74.7305389 38.8023952,74.7305389" id="Fill-70" fill="#CCCCCC"></path>
                    <path d="M80.4790419,114.97006 L43.8323353,114.97006" id="Fill-71" fill="#F2F2F2"></path>
                    <path d="M80.4790419,117.125749 L43.8323353,117.125749 C42.6416766,117.125749 41.6766467,116.160719 41.6766467,114.97006 C41.6766467,113.779401 42.6416766,112.814371 43.8323353,112.814371 L80.4790419,112.814371 C81.6697006,112.814371 82.6347305,113.779401 82.6347305,114.97006 C82.6347305,116.160719 81.6697006,117.125749 80.4790419,117.125749" id="Fill-72" fill="#E6E6E6"></path>
                    <path d="M64.6706587,131.497006 L15.0898204,131.497006" id="Fill-73" fill="#E6E6E6"></path>
                    <path d="M64.6706587,133.652695 L15.0898204,133.652695 C13.8991617,133.652695 12.9341317,132.687665 12.9341317,131.497006 C12.9341317,130.306347 13.8991617,129.341317 15.0898204,129.341317 L64.6706587,129.341317 C65.8613174,129.341317 66.8263473,130.306347 66.8263473,131.497006 C66.8263473,132.687665 65.8613174,133.652695 64.6706587,133.652695" id="Fill-74" fill="#CCCCCC"></path>
                </g>
            </g>
        </g>
    </g>
</svg>
