
<svg width="162px" height="171px" viewBox="0 0 162 171" version="1.1" xmlns="http://www.w3.org/2000/svg" xmlns:xlink="http://www.w3.org/1999/xlink">
    <!-- Generator: Sketch 44.1 (41455) - http://www.bohemiancoding.com/sketch -->
    <desc>Created with Sketch.</desc>
    <defs>
        <filter x="-1.7%" y="-2.0%" width="103.4%" height="106.3%" filterUnits="objectBoundingBox" id="filter-1">
            <feOffset dx="0" dy="4" in="SourceAlpha" result="shadowOffsetOuter1"></feOffset>
            <feGaussianBlur stdDeviation="3" in="shadowOffsetOuter1" result="shadowBlurOuter1"></feGaussianBlur>
            <feColorMatrix values="0 0 0 0 0   0 0 0 0 0   0 0 0 0 0  0 0 0 0.1 0" type="matrix" in="shadowBlurOuter1" result="shadowMatrixOuter1"></feColorMatrix>
            <feMerge>
                <feMergeNode in="shadowMatrixOuter1"></feMergeNode>
                <feMergeNode in="SourceGraphic"></feMergeNode>
            </feMerge>
        </filter>
    </defs>
    <g id="Page-1" stroke="none" stroke-width="1" fill="none" fill-rule="evenodd">
        <g id="messages" transform="translate(-1522.000000, -751.000000)">
            <g id="completed-tasks" filter="url(#filter-1)" transform="translate(1282.000000, 702.500000)">
                <g id="Imported-Layers" transform="translate(246.000000, 51.000000)">
                    <path d="M86.2153226,89.4846774 C86.2153226,89.4846774 95.7201613,69.2677419 109.679032,67.5653226 C112.169355,67.2620968 119.396774,69.5919355 116.654032,75.3540323 C112.116935,84.8870968 95.5572581,87.6741935 89.7830645,106.716935" id="Fill-1" fill="#FFD9B6"></path>
                    <path d="M89.7830645,109.137097 C89.5508065,109.137097 89.3145161,109.103226 89.0798387,109.032258 C87.8016129,108.644355 87.0798387,107.293548 87.4669355,106.014516 C91.2072581,93.683871 99.2370968,87.7112903 105.689516,82.9120968 C109.583871,80.0153226 112.947581,77.5137097 114.469355,74.3145161 C115.175,72.8314516 114.708065,72.1822581 114.508871,71.9048387 C113.500806,70.5048387 110.835484,69.8645161 109.970968,69.9669355 C97.4846774,71.4903226 88.4935484,90.3241935 88.4040323,90.5137097 C87.8354839,91.7233871 86.3927419,92.2435484 85.1854839,91.6741935 C83.9766129,91.1056452 83.4564516,89.6645161 84.025,88.4556452 C84.4362903,87.5806452 94.2733871,67.0064516 109.38629,65.1645161 C111.787097,64.8717742 116.270161,66.0685484 118.435484,69.0782258 C119.944355,71.1733871 120.087097,73.7717742 118.83871,76.3943548 C116.799194,80.6790323 112.805645,83.6491935 108.577419,86.7943548 C102.38871,91.3967742 95.375,96.6145161 92.0975806,107.419355 C91.7814516,108.46371 90.8209677,109.137097 89.7830645,109.137097" id="Fill-2" fill="#FFC988"></path>
                    <path d="M71.9266129,58.8491935 C56.5870968,52.5887097 41.2991935,70.8919355 45.8048387,76.3701613 C50.3209677,81.8620968 55.0153226,74.9443548 58.6540323,73.4854839 C64.2516129,71.241129 72.1104839,70.3 75.2016129,78.3080645 C82.7185484,97.7814516 64.541129,99.4693548 64.541129,99.4693548 C55.4959677,100.115323 52.9887097,93.7774194 50.9733871,86.0612903 C50.3580645,83.7056452 42.8967742,77.3395161 41.2822581,87.0306452 C38.0741935,106.279032 52.5443548,107.641935 58.2830645,111.566935 C67.491129,117.865323 55.6991935,150.471774 55.6991935,150.471774 C55.6991935,150.471774 56.1419355,155.640323 75.4685484,155.640323 C95.5540323,155.640323 98.341129,150.471774 98.341129,150.471774 C98.341129,150.471774 93.8185484,125.934677 93.1725806,114.797581 C93.1725806,114.797581 90.5403226,98.4983871 102.328226,88.5741935" id="Fill-3" fill="#FFD9B6"></path>
                    <path d="M75.4685484,158.059677 C56.0209677,158.059677 53.4790323,152.898387 53.2879032,150.679032 C53.2580645,150.329839 53.3048387,149.979032 53.4233871,149.649194 C58.0524194,136.839516 62.1967742,117.174194 56.9177419,113.56371 C55.9354839,112.891935 54.4951613,112.237097 52.9709677,111.544355 C46.2233871,108.475 36.0282258,103.83871 38.8959677,86.6330645 C39.9104839,80.5427419 43.1548387,79.4935484 44.9983871,79.4104839 C45.1443548,79.4040323 45.2919355,79.4024194 45.4387097,79.4080645 C44.933871,79.0056452 44.4322581,78.5104839 43.9354839,77.9064516 C41.5879032,75.0524194 42.2975806,70.4830645 45.833871,65.683871 C48.608871,61.916129 52.675,58.716129 56.9887097,56.9032258 C62.3298387,54.6580645 67.8129032,54.5572581 72.841129,56.608871 C74.0782258,57.1137097 74.6717742,58.5258065 74.1669355,59.7629032 C73.6620968,61.0016129 72.2491935,61.5943548 71.0129032,61.0887097 C62.1137097,57.4564516 53.4072581,63.5620968 49.7290323,68.5540323 C47.3758065,71.7483871 47.1104839,74.1483871 47.6733871,74.833871 C49.1862903,76.6741935 50.1879032,76.4822581 53.9790323,73.6266129 C55.2516129,72.6669355 56.4532258,71.7612903 57.7532258,71.2403226 C61.3395161,69.8024194 66.5798387,68.5072581 71.1693548,70.5048387 C74.0508065,71.758871 76.1669355,74.091129 77.458871,77.4379032 C80.1379032,84.3774194 80.108871,90.1346774 77.3741935,94.5475806 C73.3685484,101.009677 65.1145161,101.845968 64.7653226,101.878226 C52.8145161,102.726613 50.2016129,92.6782258 48.6330645,86.6725806 C48.3274194,85.9104839 46.3080645,84.1201613 45.1685484,84.2475806 C44.6766129,84.2991935 44.0225806,85.3032258 43.6685484,87.4282258 C41.4120968,100.970968 48.616129,104.248387 54.9733871,107.139516 C56.6951613,107.921774 58.3217742,108.66129 59.6491935,109.569355 C69.35,116.204839 61.0233871,142.583871 58.358871,150.209677 C59.3741935,151.089516 63.1104839,153.220968 75.4685484,153.220968 C89.2274194,153.220968 94.2120968,150.739516 95.7330645,149.654839 C94.7975806,144.470161 91.3540323,124.927419 90.7637097,115.05 C90.5064516,113.289516 88.5193548,97.0387097 100.770161,86.7225806 C101.792742,85.8629032 103.318548,85.9943548 104.179839,87.0145161 C105.040323,88.0370968 104.908871,89.5637097 103.887097,90.4241935 C93.325,99.3177419 95.5379032,114.266129 95.5612903,114.416129 C95.5733871,114.495161 95.5822581,114.578226 95.5870968,114.657258 C96.2177419,125.519355 100.675,149.789516 100.720161,150.033065 C100.820161,150.575 100.731452,151.134677 100.470161,151.620161 C99.8903226,152.695968 95.9596774,158.059677 75.4685484,158.059677 L75.4685484,158.059677 Z M49.5887097,80.8806452 C51.483871,82.1524194 52.9379032,84.0064516 53.3137097,85.45 C55.4669355,93.6935484 57.6516129,97.525 64.3685484,97.0564516 C64.3709677,97.0548387 70.5612903,96.3879032 73.2758065,91.9733871 C75.1540323,88.9201613 75.0427419,84.6153226 72.9443548,79.1798387 C72.125,77.0564516 70.9129032,75.6701613 69.2387097,74.941129 C66.0217742,73.5403226 61.7895161,74.8346774 59.5540323,75.7306452 C58.8516129,76.0129032 57.8548387,76.7645161 56.891129,77.4903226 C55.1435484,78.8080645 52.4774194,80.8169355 49.5887097,80.8806452 L49.5887097,80.8806452 Z" id="Fill-4" fill="#FFC988"></path>
                    <path d="M86.9274194,72.8153226 C86.9274194,72.8153226 94.0274194,52.1959677 107.516935,48.2233871 C109.923387,47.5153226 118.081452,49.9185484 116.322581,56.0524194 C113.976613,64.2354839 100.852419,70.6193548 94.5104839,83.1298387" id="Fill-5" fill="#FFD9B6"></path>
                    <path d="M94.508871,85.5491935 C94.1403226,85.5491935 93.7677419,85.4653226 93.4169355,85.2870968 C92.2258065,84.6830645 91.7491935,83.2266129 92.3532258,82.0354839 C95.775,75.2862903 100.945161,70.3354839 105.506452,65.9685484 C109.541935,62.1040323 113.027419,58.766129 113.996774,55.3854839 C114.331452,54.2209677 114.125806,53.3322581 113.330645,52.5032258 C111.835484,50.9427419 108.959677,50.3620968 108.191129,50.5475806 C96.0491935,54.1225806 89.2822581,73.4080645 89.2153226,73.6032258 C88.7798387,74.866129 87.4008065,75.5379032 86.1403226,75.1032258 C84.8766129,74.6677419 84.2048387,73.291129 84.6395161,72.0282258 C84.9467742,71.1379032 92.3137097,50.1782258 106.833871,45.9032258 C109.28629,45.1822581 113.926613,46.2741935 116.666935,48.9943548 C118.773387,51.0854839 119.476613,53.8290323 118.648387,56.7193548 C117.319355,61.3564516 113.395161,65.1129032 108.853226,69.4629032 C104.570161,73.5629032 99.7169355,78.2104839 96.6685484,84.2233871 C96.2427419,85.0645161 95.391129,85.5491935 94.508871,85.5491935" id="Fill-6" fill="#FFC988"></path>
                    <path d="M72.566129,58.6040323 C72.8483871,50.0846774 73.9258065,36.0274194 79.391129,30.2016129 C81.4830645,27.9717742 90.0645161,24.5032258 92.0016129,32.0362903 C94.4677419,41.6266129 84.8709677,58.925 87,77.4556452" id="Fill-7" fill="#FFD9B6"></path>
                    <path d="M86.9967742,79.875 C85.783871,79.875 84.7379032,78.9653226 84.5959677,77.7322581 C83.3991935,67.3145161 85.6862903,57.583871 87.7032258,49 C89.2822581,42.2806452 90.6459677,36.4774194 89.658871,32.6387097 C89.141129,30.6290323 88.1395161,30.1548387 87.4306452,29.9733871 C85.1669355,29.3887097 81.9620968,30.9959677 81.1564516,31.8564516 C78.6572581,34.5209677 75.5580645,41.3370968 74.9846774,58.6846774 C74.9395161,60.0201613 73.8266129,61.0637097 72.4862903,61.0217742 C71.1516129,60.9774194 70.1048387,59.8596774 70.1491935,58.5233871 C70.6564516,43.175 73.1032258,33.3693548 77.6274194,28.5467742 C79.5548387,26.4919355 84.45,24.2169355 88.6314516,25.2854839 C91.4846774,26.0169355 93.5129032,28.2 94.3443548,31.4330645 C95.6282258,36.4258065 94.1395161,42.7653226 92.4137097,50.1064516 C90.4870968,58.3064516 88.3032258,67.6 89.4032258,77.1790323 C89.5564516,78.5072581 88.6032258,79.7064516 87.2766129,79.858871 C87.1822581,79.8701613 87.0887097,79.875 86.9967742,79.875" id="Fill-8" fill="#FFC988"></path>
                    <path d="M72.1104839,58.6024194 C72.1104839,58.6024194 76.1491935,60.5403226 77.7637097,62.4790323" id="Fill-9" fill="#FFD9B6"></path>
                    <path d="M77.766129,64.8983871 C77.0717742,64.8983871 76.3846774,64.6016129 75.9056452,64.0282258 C74.9806452,62.9177419 72.4435484,61.4475806 71.0620968,60.7830645 C69.858871,60.2032258 69.3516129,58.7580645 69.9306452,57.5548387 C70.508871,56.3516129 71.9532258,55.8427419 73.1572581,56.4209677 C73.6193548,56.6427419 77.725,58.6532258 79.6233871,60.9298387 C80.4782258,61.9564516 80.3395161,63.4822581 79.3137097,64.3370968 C78.8604839,64.7137097 78.3112903,64.8983871 77.766129,64.8983871" id="Fill-10" fill="#FFC988"></path>
                    <path d="M16.1895161,106.496774 L24.1733871,114.479839" id="Fill-11" fill="#E6E6E6"></path>
                    <path d="M24.1733871,116.899194 C23.5540323,116.899194 22.9354839,116.662903 22.4629032,116.190323 L14.4790323,108.207258 C13.533871,107.262903 13.533871,105.730645 14.4790323,104.78629 C15.4241935,103.841129 16.9548387,103.841129 17.9,104.78629 L25.883871,112.769355 C26.8290323,113.71371 26.8290323,115.245968 25.883871,116.190323 C25.4112903,116.662903 24.7919355,116.899194 24.1733871,116.899194" id="Fill-12" fill="#CCCCCC"></path>
                    <path d="M24.1733871,106.496774 L16.1895161,114.479839" id="Fill-13" fill="#E6E6E6"></path>
                    <path d="M16.1895161,116.899194 C15.5709677,116.899194 14.9516129,116.662903 14.4790323,116.190323 C13.533871,115.245968 13.533871,113.71371 14.4790323,112.769355 L22.4629032,104.78629 C23.4072581,103.841129 24.9387097,103.841129 25.883871,104.78629 C26.8290323,105.730645 26.8290323,107.262903 25.883871,108.207258 L17.9,116.190323 C17.4274194,116.662903 16.808871,116.899194 16.1895161,116.899194" id="Fill-14" fill="#CCCCCC"></path>
                    <path d="M116.129032,29.8387097 C114.792742,29.8387097 113.709677,28.7556452 113.709677,27.4193548 L113.709677,16.1290323 C113.709677,14.7927419 114.792742,13.7096774 116.129032,13.7096774 C117.465323,13.7096774 118.548387,14.7927419 118.548387,16.1290323 L118.548387,27.4193548 C118.548387,28.7556452 117.465323,29.8387097 116.129032,29.8387097" id="Fill-15" fill="#FFDC0D"></path>
                    <path d="M121.774194,24.1935484 L110.483871,24.1935484 C109.147581,24.1935484 108.064516,23.1104839 108.064516,21.7741935 C108.064516,20.4379032 109.147581,19.3548387 110.483871,19.3548387 L121.774194,19.3548387 C123.110484,19.3548387 124.193548,20.4379032 124.193548,21.7741935 C124.193548,23.1104839 123.110484,24.1935484 121.774194,24.1935484" id="Fill-16" fill="#FFDC0D"></path>
                    <path d="M121.774194,134.677419 C120.437903,134.677419 119.354839,133.594355 119.354839,132.258065 L119.354839,120.967742 C119.354839,119.631452 120.437903,118.548387 121.774194,118.548387 C123.110484,118.548387 124.193548,119.631452 124.193548,120.967742 L124.193548,132.258065 C124.193548,133.594355 123.110484,134.677419 121.774194,134.677419" id="Fill-17" fill="#FFDC0D"></path>
                    <path d="M127.419355,129.032258 L116.129032,129.032258 C114.792742,129.032258 113.709677,127.949194 113.709677,126.612903 C113.709677,125.276613 114.792742,124.193548 116.129032,124.193548 L127.419355,124.193548 C128.755645,124.193548 129.83871,125.276613 129.83871,126.612903 C129.83871,127.949194 128.755645,129.032258 127.419355,129.032258" id="Fill-18" fill="#FFDC0D"></path>
                    <path d="M47.5806452,2.41935484 L47.5806452,13.7096774" id="Fill-19" fill="#E6E6E6"></path>
                    <path d="M47.5806452,16.1290323 C46.2443548,16.1290323 45.1612903,15.0459677 45.1612903,13.7096774 L45.1612903,2.41935484 C45.1612903,1.08306452 46.2443548,0 47.5806452,0 C48.9169355,0 50,1.08306452 50,2.41935484 L50,13.7096774 C50,15.0459677 48.9169355,16.1290323 47.5806452,16.1290323" id="Fill-20" fill="#CCCCCC"></path>
                    <path d="M53.2258065,8.06451613 L41.9354839,8.06451613" id="Fill-21" fill="#E6E6E6"></path>
                    <path d="M53.2258065,10.483871 L41.9354839,10.483871 C40.5991935,10.483871 39.516129,9.40080645 39.516129,8.06451613 C39.516129,6.72822581 40.5991935,5.64516129 41.9354839,5.64516129 L53.2258065,5.64516129 C54.5620968,5.64516129 55.6451613,6.72822581 55.6451613,8.06451613 C55.6451613,9.40080645 54.5620968,10.483871 53.2258065,10.483871" id="Fill-22" fill="#CCCCCC"></path>
                    <path d="M8.06451613,63.7096774 C6.72822581,63.7096774 5.64516129,62.6266129 5.64516129,61.2903226 L5.64516129,50 C5.64516129,48.6637097 6.72822581,47.5806452 8.06451613,47.5806452 C9.40080645,47.5806452 10.483871,48.6637097 10.483871,50 L10.483871,61.2903226 C10.483871,62.6266129 9.40080645,63.7096774 8.06451613,63.7096774" id="Fill-23" fill="#FFDC0D"></path>
                    <path d="M13.7096774,58.0645161 L2.41935484,58.0645161 C1.08306452,58.0645161 0,56.9814516 0,55.6451613 C0,54.308871 1.08306452,53.2258065 2.41935484,53.2258065 L13.7096774,53.2258065 C15.0459677,53.2258065 16.1290323,54.308871 16.1290323,55.6451613 C16.1290323,56.9814516 15.0459677,58.0645161 13.7096774,58.0645161" id="Fill-24" fill="#FFDC0D"></path>
                    <path d="M139.576613,63.7548387 L147.560484,71.7379032" id="Fill-25" fill="#F2F2F2"></path>
                    <path d="M147.560484,74.1572581 C146.941129,74.1572581 146.322581,73.9209677 145.85,73.4483871 L137.866129,65.4653226 C136.920968,64.5209677 136.920968,62.9887097 137.866129,62.0443548 C138.81129,61.0991935 140.341935,61.0991935 141.287097,62.0443548 L149.270968,70.0274194 C150.216129,70.9717742 150.216129,72.5040323 149.270968,73.4483871 C148.798387,73.9209677 148.179032,74.1572581 147.560484,74.1572581" id="Fill-26" fill="#E6E6E6"></path>
                    <path d="M147.560484,63.7548387 L139.576613,71.7379032" id="Fill-27" fill="#F2F2F2"></path>
                    <path d="M139.576613,74.1572581 C138.958065,74.1572581 138.33871,73.9209677 137.866129,73.4483871 C136.920968,72.5040323 136.920968,70.9717742 137.866129,70.0274194 L145.85,62.0443548 C146.794355,61.0991935 148.325806,61.0991935 149.270968,62.0443548 C150.216129,62.9887097 150.216129,64.5209677 149.270968,65.4653226 L141.287097,73.4483871 C140.814516,73.9209677 140.195968,74.1572581 139.576613,74.1572581" id="Fill-28" fill="#E6E6E6"></path>
                </g>
            </g>
        </g>
    </g>
</svg>
