<?xml version="1.0" encoding="UTF-8"?>
<svg width="157px" height="145px" viewBox="0 0 157 145" version="1.1" xmlns="http://www.w3.org/2000/svg" xmlns:xlink="http://www.w3.org/1999/xlink">
    <!-- Generator: Sketch 42 (36781) - http://www.bohemiancoding.com/sketch -->
    <title>Illos / Crowd</title>
    <desc>Created with Sketch.</desc>
    <defs></defs>
    <g id="Homepage" stroke="none" stroke-width="1" fill="none" fill-rule="evenodd">
        <g id="Homepage---Desktop-Colour" transform="translate(-307.000000, -1176.000000)">
            <g id="Group-7" transform="translate(0.000000, 1024.000000)">
                <g id="Illo-/-Crowd-Colour" transform="translate(311.000000, 150.000000)">
                    <g id="Group-21" transform="translate(-3.500000, 2.674157)">
                        <path d="M36.6345277,37.2351299 L129.165741,37.2351299 L129.165741,25.580967 C129.165741,22.1895906 126.416477,19.4412086 123.025101,19.4412086 L33.3013648,19.4412086 C29.2608199,19.4412086 25.9858704,22.716158 25.9858704,26.7558209 C25.9858704,26.7558209 33.9884603,30.4382647 36.6345277,37.2351299" id="Fill-229" fill="#7FC5B8"></path>
                        <path d="M54.9170895,28.3390513 C54.9170895,29.6365063 53.8648367,30.6887591 52.5673817,30.6887591 C51.2690446,30.6887591 50.2167918,29.6365063 50.2167918,28.3390513 C50.2167918,27.0407142 51.2690446,25.9893434 52.5673817,25.9893434 C53.8648367,25.9893434 54.9170895,27.0407142 54.9170895,28.3390513" id="Fill-230" fill="#FFFFFF"></path>
                        <path d="M47.0106401,28.3390513 C47.0106401,29.6365063 45.9583873,30.6887591 44.6609322,30.6887591 C43.3634772,30.6887591 42.3112244,29.6365063 42.3112244,28.3390513 C42.3112244,27.0407142 43.3634772,25.9893434 44.6609322,25.9893434 C45.9583873,25.9893434 47.0106401,27.0407142 47.0106401,28.3390513" id="Fill-231" fill="#FFFFFF"></path>
                        <path d="M39.354685,28.3390513 C39.354685,29.6365063 38.3024322,30.6887591 37.0049772,30.6887591 C35.7066401,30.6887591 34.6543873,29.6365063 34.6543873,28.3390513 C34.6543873,27.0407142 35.7066401,25.9893434 37.0049772,25.9893434 C38.3024322,25.9893434 39.354685,27.0407142 39.354685,28.3390513" id="Fill-232" fill="#FFFFFF"></path>
                        <path d="M70.243994,50.0244558 L44.8329266,50.0244558 C43.4393311,50.0244558 42.3112244,48.895467 42.3112244,47.5106917 C42.3112244,46.1170962 43.4393311,44.9881074 44.8329266,44.9881074 L70.243994,44.9881074 C71.6358255,44.9881074 72.7648143,46.1170962 72.7648143,47.5106917 C72.7648143,48.895467 71.6358255,50.0244558 70.243994,50.0244558" id="Fill-233" fill="#E8E8E9"></path>
                        <path d="M11.014421,60.5734445 L11.014421,56.1456917 L17.1091963,53.1997367 C17.1091963,53.1997367 18.7259435,57.0012535 21.1074041,53.33204 L26.8387862,56.4808603 L27.4023985,60.2823771 C27.4023985,60.2823771 19.4403817,64.754231 11.014421,60.5734445" id="Fill-234" fill="#E8E8E9"></path>
                        <path d="M44.3725109,140.502321 L44.3725109,136.074568 L50.4681682,133.128613 C50.4681682,133.128613 52.0849154,136.93013 54.465494,133.260916 L60.1977581,136.400916 L60.7613704,140.211254 C60.7613704,140.211254 52.7993536,144.683107 44.3725109,140.502321" id="Fill-235" fill="#E8E8E9"></path>
                        <path d="M127.339073,94.0461973 L127.339073,89.6272647 L133.43473,86.6724895 C133.43473,86.6724895 135.051477,90.4828265 137.432938,86.8047928 L143.16432,89.9536131 L143.728814,93.7551299 C143.728814,93.7551299 135.766797,98.2358041 127.339073,94.0461973" id="Fill-236" fill="#E8E8E9"></path>
                        <path d="M12.7652356,43.5945119 C12.8666682,44.7235007 10.8274322,42.3155794 10.5707637,41.2130513 C10.3140952,40.1105232 10.6721963,38.8933322 11.4827749,38.1083322 C11.7032805,37.8878265 11.9599491,37.7026018 12.1072468,37.4291749 C12.310994,37.0587254 12.272185,36.608894 12.3030558,36.1855232 C12.3806738,35.1006355 13.1039322,33.9742928 14.1835277,33.8111187 C14.545157,33.7555513 14.9191345,33.8102367 15.2763536,33.7343827 C16.0542974,33.5712086 16.5711626,32.8594164 17.2071008,32.3840063 C18.471921,31.4367142 20.3912019,31.4984558 21.5933985,32.5224838 C21.9029884,32.7870906 22.1799435,33.1125569 22.5627412,33.2510344 C22.9032019,33.3753996 23.2789435,33.3312985 23.6414547,33.351585 C25.4275502,33.4512535 26.8511345,35.4269838 26.3783704,37.1557479 C26.3104547,37.4027142 26.2116682,37.6849614 26.3404435,37.905467 C26.4321738,38.0730513 26.6138704,38.1524333 26.7761626,38.2406355 C27.8434098,38.8227704 28.442303,40.1546243 28.1697581,41.3365344 C27.8980952,42.5184445 26.7796907,43.4533883 25.5660277,43.5151299 L24.3550109,38.6022647 C24.3550109,38.6022647 17.8245165,41.124849 14.2814322,38.2935569 C14.2814322,38.2935569 12.5138592,40.8161412 12.7652356,43.5945119" id="Fill-237" fill="#AB918A"></path>
                        <path d="M143.533887,89.4332198 C144.452955,88.066085 145.267943,86.6195681 145.968269,85.1201299 C146.253163,84.5027142 146.524825,83.8500176 146.486017,83.1708603 C146.419865,81.9977704 145.467281,81.1069277 145.03509,80.02204 C144.34623,78.2844558 145.050966,76.3351861 145.592528,74.5446805 C146.13409,72.7541749 146.427803,70.5579389 145.170921,69.2084445 C144.080741,68.0353546 141.7425,67.4443996 140.437988,66.5359164 C138.579567,65.2481636 131.614236,61.534849 124.987601,72.1808603 C124.081764,73.6450176 123.424657,75.3737816 123.852438,77.0672647 C124.123219,78.1345119 124.710646,79.0959164 124.932033,80.1719838 C125.327179,82.1036131 124.498078,84.0617029 124.272281,86.0197928 C124.086174,87.633894 125.26632,89.6096243 126.749,90.3417029 L133.044876,86.8047928 L133.415325,84.8555232 C130.846876,84.0793434 128.976988,81.6978827 128.976988,78.8754108 L128.976988,75.4531636 C128.976988,75.4531636 134.685438,76.3351861 140.155741,71.6163659 C140.983078,72.6747928 141.480539,74.0066468 141.480539,75.4531636 L141.480539,78.8754108 C141.480539,81.2833322 140.115168,83.3825456 138.115623,84.4233322 L136.55709,85.1289501 L137.043084,86.6724895 L143.533887,89.4332198" id="Fill-238" fill="#FCE4A3"></path>
                        <path d="M57.2535671,126.107714 C57.2535671,126.769231 56.4015334,127.016197 56.0487244,126.460523 C54.9885334,125.340355 53.5111457,124.705298 51.9658423,124.705298 C50.421421,124.705298 48.9440334,125.340355 47.8838423,126.460523 C47.5310334,127.016197 46.6781176,126.769231 46.6781176,126.107714 L46.6781176,120.44513 L48.8082019,120.886141 L51.0732356,119.060355 L52.973112,120.956703 L55.3113536,118.345916 L57.2535671,120.44513 L57.2535671,126.107714 Z M56.5100221,116.837658 L56.3812468,116.837658 C56.3812468,115.311759 55.1411232,114.068107 53.6099322,114.068107 L50.6242862,114.068107 C47.4807581,114.068107 44.9334772,116.617152 44.9334772,119.757152 L44.9334772,126.222377 C44.9334772,130.226759 48.2181289,133.463782 52.2410334,133.39322 C56.19073,133.322658 59.2813367,129.926871 59.2813367,125.984231 L59.2813367,119.607209 C59.2813367,118.08131 58.0403311,116.837658 56.5100221,116.837658 L56.5100221,116.837658 Z" id="Fill-239" fill="#F4B88C"></path>
                        <path d="M43.7692075,140.290636 C43.434921,140.290636 43.1641401,140.017209 43.1641401,139.68204 L43.1641401,138.51777 C43.1641401,136.462658 44.4651232,134.619231 46.4011626,133.922433 L50.2300221,132.555298 C50.5457862,132.440636 50.891539,132.60822 51.0035558,132.925748 C51.1164547,133.234456 50.9523985,133.587265 50.6375165,133.693107 L46.808657,135.069063 C45.3524379,135.589456 44.3742749,136.974231 44.3742749,138.51777 L44.3742749,139.68204 C44.3742749,140.017209 44.103494,140.290636 43.7692075,140.290636" id="Fill-240" fill="#525656"></path>
                        <path d="M60.7278536,140.290636 C60.3935671,140.290636 60.1219041,140.017209 60.1219041,139.68204 L60.1219041,138.51777 C60.1219041,136.974231 59.1437412,135.589456 57.6875221,135.069063 L53.8586626,133.693107 C53.5446626,133.587265 53.3797244,133.234456 53.4926232,132.925748 C53.6046401,132.60822 53.9512749,132.440636 54.266157,132.555298 L58.0950165,133.922433 C60.0310558,134.619231 61.332921,136.462658 61.332921,138.51777 L61.332921,139.68204 C61.332921,140.017209 61.0621401,140.290636 60.7278536,140.290636" id="Fill-241" fill="#525656"></path>
                        <path d="M52.2480895,135.545355 C50.9144716,135.545355 49.8287019,134.460467 49.8287019,133.128613 C49.8287019,132.793445 50.0994828,132.520018 50.4337693,132.520018 C50.7689379,132.520018 51.0388367,132.793445 51.0388367,133.128613 C51.0388367,133.79013 51.5812805,134.336984 52.2480895,134.336984 C52.9148985,134.336984 53.4573423,133.79013 53.4573423,133.128613 C53.4573423,132.793445 53.7281232,132.520018 54.0624098,132.520018 C54.3966963,132.520018 54.6674772,132.793445 54.6674772,133.128613 C54.6674772,134.460467 53.5817075,135.545355 52.2480895,135.545355" id="Fill-242" fill="#525656"></path>
                        <path d="M50.7662918,114.676703 C47.9614603,114.676703 45.6796682,116.952321 45.6796682,119.757152 L45.6796682,126.222377 C45.6796682,127.995242 46.377348,129.662265 47.6465783,130.905916 C48.8840558,132.123107 50.5140334,132.784624 52.2472075,132.784624 L52.3715727,132.784624 C55.9252412,132.722883 58.8173929,129.671085 58.8173929,125.984231 L58.8173929,119.607209 C58.8173929,118.416478 57.8454041,117.446254 56.6511457,117.446254 L56.5223704,117.446254 C56.1880839,117.446254 55.917303,117.172827 55.917303,116.837658 C55.917303,115.646928 54.9453143,114.676703 53.7510558,114.676703 L50.7662918,114.676703 Z M52.2463255,133.992995 C50.1947412,133.992995 48.2648761,133.207995 46.7989547,131.770298 C45.2959884,130.297321 44.4686513,128.321591 44.4686513,126.222377 L44.4686513,119.757152 C44.4686513,116.290804 47.2937693,113.459512 50.7662918,113.459512 L53.7510558,113.459512 C55.4154322,113.459512 56.8028536,114.676703 57.0780446,116.264343 C58.7388929,116.467209 60.0275277,117.896085 60.0275277,119.607209 L60.0275277,125.984231 C60.0275277,130.323782 56.6026345,133.922433 52.3936232,133.992995 L52.2463255,133.992995 L52.2463255,133.992995 Z" id="Fill-243" fill="#525656"></path>
                        <path d="M52.2480895,127.316085 C51.678303,127.316085 51.1085165,127.157321 50.6004716,126.848613 C50.3164603,126.672209 50.2291401,126.292939 50.4055446,126.010692 C50.5819491,125.728445 50.9541626,125.640242 51.2390558,125.816647 C51.8617637,126.204737 52.6361794,126.204737 53.2571232,125.816647 C53.5393704,125.640242 53.913348,125.728445 54.0906345,126.010692 C54.267039,126.292939 54.1797187,126.672209 53.8957075,126.848613 C53.3876626,127.157321 52.8187581,127.316085 52.2480895,127.316085" id="Fill-244" fill="#525656"></path>
                        <path d="M55.132303,123.876197 L54.9020952,123.832096 L54.7089322,123.699793 C54.5933873,123.58513 54.5272356,123.435186 54.5272356,123.276422 L54.5757468,123.038276 L54.7089322,122.844231 C54.9267918,122.614905 55.3386963,122.614905 55.56273,122.844231 L55.6950334,123.038276 L55.7373704,123.276422 C55.7373704,123.435186 55.6765109,123.58513 55.56273,123.699793 L55.367803,123.832096 C55.2954772,123.867377 55.2169772,123.876197 55.132303,123.876197" id="Fill-245" fill="#525656"></path>
                        <path d="M49.3594659,123.876197 C49.1954098,123.876197 49.0445839,123.814456 48.9360952,123.699793 C48.8205502,123.58513 48.7543985,123.435186 48.7543985,123.276422 L48.8029098,123.038276 L48.9360952,122.844231 C49.1601289,122.614905 49.5649772,122.614905 49.7890109,122.844231 L49.9221963,123.038276 L49.9645334,123.276422 C49.9645334,123.435186 49.9036738,123.58513 49.7890109,123.699793 L49.5949659,123.832096 C49.5226401,123.867377 49.4441401,123.876197 49.3594659,123.876197" id="Fill-246" fill="#525656"></path>
                        <path d="M126.749882,93.8345119 C126.415595,93.8345119 126.144814,93.5699052 126.144814,93.2347367 L126.144814,92.070467 C126.144814,90.0153546 127.445797,88.1719277 129.382719,87.4751299 L133.211578,86.1079951 C133.527342,85.9933322 133.873095,86.1609164 133.985112,86.4696243 C134.098011,86.7871524 133.933955,87.1311412 133.619073,87.2458041 L129.790213,88.6129389 C128.333112,89.1333322 127.354949,90.5269277 127.354949,92.070467 L127.354949,93.2347367 C127.354949,93.5699052 127.084168,93.8345119 126.749882,93.8345119" id="Fill-247" fill="#525656"></path>
                        <path d="M143.708528,93.8345119 C143.374241,93.8345119 143.10346,93.5699052 143.10346,93.2347367 L143.10346,92.070467 C143.10346,90.5269277 142.124415,89.1333322 140.668196,88.6129389 L136.839337,87.2458041 C136.525337,87.1311412 136.360399,86.7871524 136.473297,86.4696243 C136.585314,86.1609164 136.931949,85.9933322 137.246831,86.1079951 L141.075691,87.4751299 C143.012612,88.1719277 144.313595,90.0153546 144.313595,92.070467 L144.313595,93.2347367 C144.313595,93.5699052 144.042814,93.8345119 143.708528,93.8345119" id="Fill-248" fill="#525656"></path>
                        <path d="M135.228764,89.0980513 C133.895146,89.0980513 132.810258,88.0131636 132.810258,86.6724895 L132.810258,85.1289501 C132.810258,84.7937816 133.081039,84.5203546 133.415325,84.5203546 C133.749612,84.5203546 134.020393,84.7937816 134.020393,85.1289501 L134.020393,86.6724895 C134.020393,87.3428265 134.561955,87.8896805 135.228764,87.8896805 C135.895573,87.8896805 136.438017,87.3428265 136.438017,86.6724895 L136.438017,85.1289501 C136.438017,84.7937816 136.708797,84.5203546 137.043084,84.5203546 C137.37737,84.5203546 137.648151,84.7937816 137.648151,85.1289501 L137.648151,86.6724895 C137.648151,88.0131636 136.562382,89.0980513 135.228764,89.0980513" id="Fill-249" fill="#525656"></path>
                        <path d="M129.582938,76.1146805 L129.582938,78.8754108 C129.582938,81.9889501 132.116106,84.5203546 135.228764,84.5203546 C138.342303,84.5203546 140.875472,81.9889501 140.875472,78.8754108 L140.875472,75.4531636 C140.875472,74.4035569 140.58705,73.389231 140.036668,72.4983883 C135.65037,76.017658 131.257017,76.1940625 129.582938,76.1146805 Z M135.228764,85.7287254 C131.448415,85.7287254 128.372803,82.6592872 128.372803,78.8754108 L128.372803,75.4531636 C128.372803,75.2767591 128.450421,75.1091749 128.583606,74.9945119 C128.717674,74.879849 128.895842,74.8269277 129.069601,74.8622086 C129.122522,74.8622086 134.584005,75.6295681 139.760595,71.1577142 C139.885842,71.0518715 140.049899,70.9989501 140.214837,71.0165906 C140.379775,71.034231 140.530601,71.1136131 140.632033,71.2459164 C141.582854,72.4631074 142.085606,73.9184445 142.085606,75.4531636 L142.085606,78.8754108 C142.085606,82.6592872 139.009112,85.7287254 135.228764,85.7287254 L135.228764,85.7287254 Z" id="Fill-250" fill="#525656"></path>
                        <path d="M135.229646,81.4773771 C134.658977,81.4773771 134.089191,81.3186131 133.582028,81.001085 C133.297134,80.8246805 133.210696,80.454231 133.386219,80.1719838 C133.562623,79.8809164 133.935719,79.8015344 134.21973,79.9691187 C134.84332,80.3572086 135.615972,80.3572086 136.237797,79.9691187 C136.522691,79.8015344 136.894904,79.8809164 137.071309,80.1719838 C137.247713,80.454231 137.160393,80.8246805 136.876382,81.001085 C136.368337,81.3186131 135.799432,81.4773771 135.229646,81.4773771" id="Fill-251" fill="#525656"></path>
                        <path d="M138.114741,77.428894 C137.950685,77.428894 137.798977,77.3671524 137.690488,77.2524895 C137.574943,77.1378265 137.509674,76.9878827 137.509674,76.8202985 L137.557303,76.5909726 L137.690488,76.3881074 L137.884533,76.2646243 C138.102393,76.1764221 138.374056,76.2205232 138.544286,76.3881074 L138.67659,76.5909726 L138.719809,76.8202985 C138.719809,76.9878827 138.658067,77.1378265 138.544286,77.2524895 C138.428741,77.3671524 138.277033,77.428894 138.114741,77.428894" id="Fill-252" fill="#525656"></path>
                        <path d="M132.341022,77.428894 C132.177848,77.428894 132.02614,77.3671524 131.917651,77.2524895 C131.802988,77.1378265 131.735955,76.9878827 131.735955,76.8202985 L131.785348,76.5909726 L131.917651,76.3881074 L132.0085,76.3175456 L132.111696,76.2646243 L132.226359,76.2293434 C132.425696,76.1852423 132.631208,76.2558041 132.771449,76.3881074 C132.886112,76.5115906 132.94609,76.6615344 132.94609,76.8202985 L132.903752,77.0496243 L132.771449,77.2524895 C132.655904,77.3671524 132.504196,77.428894 132.341022,77.428894" id="Fill-253" fill="#525656"></path>
                        <path d="M129.165741,38.1436131 L36.6345277,38.1436131 C36.133539,38.1436131 35.7269266,37.7378827 35.7269266,37.2351299 C35.7269266,36.7323771 36.133539,36.3266468 36.6345277,36.3266468 L129.165741,36.3266468 C129.66673,36.3266468 130.073342,36.7323771 130.073342,37.2351299 C130.073342,37.7378827 129.66673,38.1436131 129.165741,38.1436131" id="Fill-254" fill="#525656"></path>
                        <path d="M36.760657,26.5935288 C35.7983704,26.5935288 35.0160165,27.3767647 35.0160165,28.3390513 C35.0160165,29.3013378 35.7983704,30.0828097 36.760657,30.0828097 C37.7229435,30.0828097 38.5052974,29.3013378 38.5052974,28.3390513 C38.5052974,27.3767647 37.7229435,26.5935288 36.760657,26.5935288 Z M36.760657,31.2929445 C35.1315614,31.2929445 33.8058817,29.9681468 33.8058817,28.3390513 C33.8058817,26.7090737 35.1315614,25.383394 36.760657,25.383394 C38.3906345,25.383394 39.7154322,26.7090737 39.7154322,28.3390513 C39.7154322,29.9681468 38.3906345,31.2929445 36.760657,31.2929445 L36.760657,31.2929445 Z" id="Fill-255" fill="#525656"></path>
                        <path d="M44.6609322,26.5935288 C43.6986457,26.5935288 42.9162918,27.3767647 42.9162918,28.3390513 C42.9162918,29.3013378 43.6986457,30.0828097 44.6609322,30.0828097 C45.6232187,30.0828097 46.4055727,29.3013378 46.4055727,28.3390513 C46.4055727,27.3767647 45.6232187,26.5935288 44.6609322,26.5935288 Z M44.6609322,31.2929445 C43.0309547,31.2929445 41.706157,29.9681468 41.706157,28.3390513 C41.706157,26.7090737 43.0309547,25.383394 44.6609322,25.383394 C46.2909098,25.383394 47.6165895,26.7090737 47.6165895,28.3390513 C47.6165895,29.9681468 46.2909098,31.2929445 44.6609322,31.2929445 L44.6609322,31.2929445 Z" id="Fill-256" fill="#525656"></path>
                        <path d="M52.5612075,26.5935288 C51.598921,26.5935288 50.8165671,27.3767647 50.8165671,28.3390513 C50.8165671,29.3013378 51.598921,30.0828097 52.5612075,30.0828097 C53.523494,30.0828097 54.30673,29.3013378 54.30673,28.3390513 C54.30673,27.3767647 53.523494,26.5935288 52.5612075,26.5935288 Z M52.5612075,31.2929445 C50.932112,31.2929445 49.6064322,29.9681468 49.6064322,28.3390513 C49.6064322,26.7090737 50.932112,25.383394 52.5612075,25.383394 C54.191185,25.383394 55.5168648,26.7090737 55.5168648,28.3390513 C55.5168648,29.9681468 54.191185,31.2929445 52.5612075,31.2929445 L52.5612075,31.2929445 Z" id="Fill-257" fill="#525656"></path>
                        <path d="M129.275112,60.158894 C128.774123,60.158894 128.368393,59.7531636 128.368393,59.2504108 L128.368393,25.4918827 C128.368393,22.6561805 126.06014,20.3488097 123.224438,20.3488097 L32.0374266,20.3488097 C29.2017244,20.3488097 26.8943536,22.6561805 26.8943536,25.4918827 L26.8943536,26.7558209 C26.8943536,27.2568097 26.4877412,27.6634221 25.9858704,27.6634221 C25.4857637,27.6634221 25.0791513,27.2568097 25.0791513,26.7558209 L25.0791513,25.4918827 C25.0791513,21.655967 28.2006289,18.5336074 32.0374266,18.5336074 L123.224438,18.5336074 C127.061236,18.5336074 130.183595,21.655967 130.183595,25.4918827 L130.183595,59.2504108 C130.183595,59.7531636 129.776983,60.158894 129.275112,60.158894" id="Fill-258" fill="#525656"></path>
                        <path d="M70.3445446,119.2544 C69.8435558,119.2544 69.4360614,118.848669 69.4360614,118.345916 C69.4360614,117.851984 69.8435558,117.446254 70.3445446,117.446254 L123.224438,117.437433 C126.061022,117.437433 128.368393,115.135355 128.368393,112.295242 L128.368393,94.9546805 C128.368393,94.4519277 128.774123,94.0461973 129.275112,94.0461973 C129.776983,94.0461973 130.183595,94.4519277 130.183595,94.9546805 L130.183595,112.295242 C130.183595,116.13204 127.062118,119.2544 123.224438,119.2544 L70.3445446,119.2544" id="Fill-259" fill="#525656"></path>
                        <path d="M34.641157,119.2544 L32.0374266,119.2544 C28.2006289,119.2544 25.0791513,116.13204 25.0791513,112.304062 L25.0791513,61.7465344 C25.0791513,61.2437816 25.4857637,60.8380513 25.9858704,60.8380513 C26.4877412,60.8380513 26.8943536,61.2437816 26.8943536,61.7465344 L26.8943536,112.304062 C26.8943536,115.135355 29.2017244,117.446254 32.0374266,117.446254 L34.641157,117.446254 C35.1421457,117.446254 35.5487581,117.851984 35.5487581,118.354737 C35.5487581,118.848669 35.1421457,119.2544 34.641157,119.2544" id="Fill-260" fill="#525656"></path>
                        <path d="M44.6600502,45.8965906 C43.7700895,45.8965906 43.0468311,46.619849 43.0468311,47.5106917 C43.0468311,48.3927142 43.7700895,49.1159726 44.6600502,49.1159726 L70.243994,49.1159726 C71.1330727,49.1159726 71.8572131,48.3927142 71.8572131,47.5106917 C71.8572131,46.619849 71.1330727,45.8965906 70.243994,45.8965906 L44.6600502,45.8965906 Z M70.243994,50.9329389 L44.6600502,50.9329389 C42.768994,50.9329389 41.2307468,49.3982198 41.2307468,47.5106917 C41.2307468,45.6143434 42.768994,44.0796243 44.6600502,44.0796243 L70.243994,44.0796243 C72.1341682,44.0796243 73.6724154,45.6143434 73.6724154,47.5106917 C73.6724154,49.3982198 72.1341682,50.9329389 70.243994,50.9329389 L70.243994,50.9329389 Z" id="Fill-261" fill="#B5B6BD"></path>
                        <path d="M83.1929659,56.9130513 L52.5664996,56.9130513 C52.2322131,56.9130513 51.9614322,56.6396243 51.9614322,56.3044558 C51.9614322,55.9692872 52.2322131,55.7046805 52.5664996,55.7046805 L83.1929659,55.7046805 C83.5281345,55.7046805 83.7980334,55.9692872 83.7980334,56.3044558 C83.7980334,56.6396243 83.5281345,56.9130513 83.1929659,56.9130513" id="Fill-262" fill="#B5B6BD"></path>
                        <path d="M113.123517,48.110467 L106.198758,48.110467 C105.86359,48.110467 105.593691,47.83704 105.593691,47.5106917 C105.593691,47.1755232 105.86359,46.9020962 106.198758,46.9020962 L113.123517,46.9020962 C113.457803,46.9020962 113.728584,47.1755232 113.728584,47.5106917 C113.728584,47.83704 113.457803,48.110467 113.123517,48.110467" id="Fill-263" fill="#B5B6BD"></path>
                        <path d="M70.1593199,59.8590063 L52.5664996,59.8590063 C52.2322131,59.8590063 51.9614322,59.5855794 51.9614322,59.2504108 C51.9614322,58.9152423 52.2322131,58.6506355 52.5664996,58.6506355 L70.1593199,58.6506355 C70.4936064,58.6506355 70.7643873,58.9152423 70.7643873,59.2504108 C70.7643873,59.5855794 70.4936064,59.8590063 70.1593199,59.8590063" id="Fill-264" fill="#B5B6BD"></path>
                        <path d="M113.123517,69.0937816 L42.138348,69.0937816 C41.6373592,69.0937816 41.2316289,68.6880513 41.2316289,68.1852985 C41.2316289,67.6825456 41.6373592,67.2768153 42.138348,67.2768153 L113.123517,67.2768153 C113.624505,67.2768153 114.031118,67.6825456 114.031118,68.1852985 C114.031118,68.6880513 113.624505,69.0937816 113.123517,69.0937816" id="Fill-265" fill="#E7E6E6"></path>
                        <path d="M113.123517,75.1444558 L42.138348,75.1444558 C41.6373592,75.1444558 41.2316289,74.7387254 41.2316289,74.2359726 C41.2316289,73.7332198 41.6373592,73.3274895 42.138348,73.3274895 L113.123517,73.3274895 C113.624505,73.3274895 114.031118,73.7332198 114.031118,74.2359726 C114.031118,74.7387254 113.624505,75.1444558 113.123517,75.1444558" id="Fill-266" fill="#E7E6E6"></path>
                        <path d="M113.123517,81.1951299 L42.138348,81.1951299 C41.6373592,81.1951299 41.2316289,80.7893996 41.2316289,80.2866468 C41.2316289,79.783894 41.6373592,79.3781636 42.138348,79.3781636 L113.123517,79.3781636 C113.624505,79.3781636 114.031118,79.783894 114.031118,80.2866468 C114.031118,80.7893996 113.624505,81.1951299 113.123517,81.1951299" id="Fill-267" fill="#E7E6E6"></path>
                        <path d="M85.7755277,87.2458041 L42.138348,87.2458041 C41.6373592,87.2458041 41.2316289,86.8400737 41.2316289,86.3373209 C41.2316289,85.8345681 41.6373592,85.4288378 42.138348,85.4288378 L85.7755277,85.4288378 C86.2765165,85.4288378 86.6831289,85.8345681 86.6831289,86.3373209 C86.6831289,86.8400737 86.2765165,87.2458041 85.7755277,87.2458041" id="Fill-268" fill="#E7E6E6"></path>
                        <path d="M113.123517,99.3471524 L42.138348,99.3471524 C41.6373592,99.3471524 41.2316289,98.9414221 41.2316289,98.4386692 C41.2316289,97.9447367 41.6373592,97.5390063 42.138348,97.5390063 L113.123517,97.5390063 C113.624505,97.5390063 114.031118,97.9447367 114.031118,98.4386692 C114.031118,98.9414221 113.624505,99.3471524 113.123517,99.3471524" id="Fill-269" fill="#E7E6E6"></path>
                        <path d="M98.1802918,105.406647 L42.138348,105.406647 C41.6373592,105.406647 41.2316289,104.992096 41.2316289,104.498164 C41.2316289,103.995411 41.6373592,103.58968 42.138348,103.58968 L98.1802918,103.58968 C98.6812805,103.58968 99.0878929,103.995411 99.0878929,104.498164 C99.0878929,104.992096 98.6812805,105.406647 98.1802918,105.406647" id="Fill-270" fill="#E7E6E6"></path>
                        <path d="M45.0869491,55.4400737 C43.7947862,55.4400737 42.7434154,56.4896805 42.7434154,57.7774333 C42.7434154,59.0740063 43.7947862,60.1236131 45.0869491,60.1236131 C46.37823,60.1236131 47.4296008,59.0740063 47.4296008,57.7774333 C47.4296008,56.4896805 46.37823,55.4400737 45.0869491,55.4400737 Z M45.0869491,61.3319838 C43.1270952,61.3319838 41.5332805,59.7355232 41.5332805,57.7774333 C41.5332805,55.8193434 43.1270952,54.2228827 45.0869491,54.2228827 C47.046803,54.2228827 48.6406176,55.8193434 48.6406176,57.7774333 C48.6406176,59.7355232 47.046803,61.3319838 45.0869491,61.3319838 L45.0869491,61.3319838 Z" id="Fill-271" fill="#B5B6BD"></path>
                        <path d="M49.5676232,69.0937816 C49.3682862,69.0937816 49.167185,69.0232198 48.9996008,68.8909164 L33.5130502,56.4455794 C33.1214322,56.1280513 33.0588086,55.5547367 33.3736907,55.1666468 C33.6876907,54.7785569 34.2610053,54.7168153 34.6499772,55.0255232 L50.1365277,67.4796805 C50.5281457,67.7883883 50.5898873,68.3617029 50.2750053,68.7497928 C50.0968367,68.9791187 49.833112,69.0937816 49.5676232,69.0937816" id="Fill-272" fill="#525656"></path>
                        <path d="M49.5685053,67.9030513 C49.4123873,67.9030513 49.2853761,68.0265344 49.2853761,68.1852985 C49.2853761,68.3352423 49.4123873,68.4675456 49.5685053,68.4675456 C49.7237412,68.4675456 49.8516345,68.3352423 49.8516345,68.1852985 C49.8516345,68.0265344 49.7237412,67.9030513 49.5685053,67.9030513 Z M49.5685053,70.2845119 C48.4112918,70.2845119 47.4692918,69.3407479 47.4692918,68.1852985 C47.4692918,67.029849 48.4112918,66.086085 49.5685053,66.086085 C50.7257188,66.086085 51.6668367,67.029849 51.6668367,68.1852985 C51.6668367,69.3407479 50.7257188,70.2845119 49.5685053,70.2845119 L49.5685053,70.2845119 Z" id="Fill-273" fill="#525656"></path>
                        <path d="M103.848168,98.1564221 C103.69205,98.1564221 103.565039,98.2887254 103.565039,98.4386692 C103.565039,98.5974333 103.69205,98.7297367 103.848168,98.7297367 C104.004286,98.7297367 104.131297,98.5974333 104.131297,98.4386692 C104.131297,98.2887254 104.004286,98.1564221 103.848168,98.1564221 Z M103.848168,100.537883 C102.690955,100.537883 101.749837,99.6029389 101.749837,98.4386692 C101.749837,97.2832198 102.690955,96.348276 103.848168,96.348276 C105.005382,96.348276 105.9465,97.2832198 105.9465,98.4386692 C105.9465,99.6029389 105.005382,100.537883 103.848168,100.537883 L103.848168,100.537883 Z" id="Fill-274" fill="#525656"></path>
                        <path d="M66.6894435,86.0550737 C66.5333255,86.0550737 66.4063143,86.1785569 66.4063143,86.3373209 C66.4063143,86.496085 66.5333255,86.6195681 66.6894435,86.6195681 C66.8455614,86.6195681 66.9725727,86.496085 66.9725727,86.3373209 C66.9725727,86.1785569 66.8455614,86.0550737 66.6894435,86.0550737 Z M66.6894435,88.4365344 C65.53223,88.4365344 64.591112,87.4927704 64.591112,86.3373209 C64.591112,85.1818715 65.53223,84.2381074 66.6894435,84.2381074 C67.8457749,84.2381074 68.7877749,85.1818715 68.7877749,86.3373209 C68.7877749,87.4927704 67.8457749,88.4365344 66.6894435,88.4365344 L66.6894435,88.4365344 Z" id="Fill-275" fill="#525656"></path>
                        <path d="M103.84905,99.3471524 C103.556219,99.3471524 103.267797,99.2060288 103.093157,98.9502423 C102.81532,98.5268715 102.926455,97.9623771 103.343651,97.6889501 L118.992494,87.2281636 C119.407927,86.9547367 119.972421,87.0605794 120.25114,87.4839501 C120.529859,87.8985007 120.417842,88.4629951 120.000646,88.7452423 L104.351803,99.1972086 C104.197449,99.3030513 104.021927,99.3471524 103.84905,99.3471524" id="Fill-276" fill="#525656"></path>
                        <path d="M59.0220221,108.255579 C58.9188255,108.255579 58.8138648,108.237939 58.7106682,108.193838 C58.2396682,108.026254 57.997112,107.50586 58.1691064,107.029568 L65.8365277,86.0286131 C66.0085221,85.5523209 66.5297974,85.3141749 67.0007974,85.4817591 C67.4709154,85.6581636 67.7134716,86.1785569 67.5423592,86.654849 L59.8749379,107.655804 C59.7399884,108.026254 59.3924716,108.255579 59.0220221,108.255579" id="Fill-277" fill="#525656"></path>
                        <path d="M52.2480895,107.153051 C42.6843199,107.153051 34.9031176,114.897209 34.9031176,124.405411 C34.9031176,133.913613 42.6843199,141.64895 52.2480895,141.64895 C61.8118592,141.64895 69.5930614,133.913613 69.5930614,124.405411 C69.5930614,114.897209 61.8118592,107.153051 52.2480895,107.153051 Z M52.2480895,143.465916 C41.6832244,143.465916 33.0879154,134.910298 33.0879154,124.405411 C33.0879154,113.891703 41.6832244,105.344905 52.2480895,105.344905 C62.8129547,105.344905 71.4082637,113.891703 71.4082637,124.405411 C71.4082637,134.910298 62.8129547,143.465916 52.2480895,143.465916 L52.2480895,143.465916 Z" id="Fill-278" fill="#B5B6BD"></path>
                        <path d="M135.228764,60.158894 C125.664994,60.158894 117.883792,67.894231 117.883792,77.4112535 C117.883792,86.9194558 125.664994,94.6547928 135.228764,94.6547928 C144.792533,94.6547928 152.573736,86.9194558 152.573736,77.4112535 C152.573736,67.894231 144.792533,60.158894 135.228764,60.158894 Z M135.228764,96.4717591 C124.663899,96.4717591 116.06859,87.9161412 116.06859,77.4112535 C116.06859,66.8975456 124.663899,58.3507479 135.228764,58.3507479 C145.793629,58.3507479 154.388938,66.8975456 154.388938,77.4112535 C154.388938,87.9161412 145.793629,96.4717591 135.228764,96.4717591 L135.228764,96.4717591 Z" id="Fill-279" fill="#B5B6BD"></path>
                        <path d="M10.7295277,60.5205232 C10.3943592,60.5205232 10.1235783,60.2470962 10.1235783,59.9119277 L10.1235783,58.747658 C10.1235783,56.6925456 11.4254435,54.8491187 13.3614828,54.1523209 L17.1903423,52.7851861 C17.5061064,52.6705232 17.8527412,52.8381074 17.9638761,53.1556355 C18.0767749,53.4643434 17.9127187,53.8171524 17.5987187,53.9229951 L13.7698592,55.2989501 C12.3127581,55.8193434 11.3345952,57.2041187 11.3345952,58.747658 L11.3345952,59.9119277 C11.3345952,60.2470962 11.0638143,60.5205232 10.7295277,60.5205232" id="Fill-280" fill="#525656"></path>
                        <path d="M27.6881738,60.5205232 C27.3530053,60.5205232 27.0831064,60.2470962 27.0831064,59.9119277 L27.0831064,58.747658 C27.0831064,57.2041187 26.1040614,55.8193434 24.6469603,55.2989501 L20.8181008,53.9229951 C20.5041008,53.8171524 20.3391626,53.4643434 20.4520614,53.1556355 C20.5640783,52.8381074 20.9107131,52.6705232 21.2264772,52.7851861 L25.0553367,54.1523209 C26.9913761,54.8491187 28.2932412,56.6925456 28.2932412,58.747658 L28.2932412,59.9119277 C28.2932412,60.2470962 28.0215783,60.5205232 27.6881738,60.5205232" id="Fill-281" fill="#525656"></path>
                        <path d="M19.2084098,55.7752423 C17.8747918,55.7752423 16.7890221,54.6903546 16.7890221,53.3585007 L16.7890221,51.8061412 C16.7890221,51.4709726 17.059803,51.1975456 17.3949716,51.1975456 C17.7292581,51.1975456 18.000039,51.4709726 18.000039,51.8061412 L18.000039,53.3585007 C18.000039,54.0200176 18.5416008,54.5668715 19.2084098,54.5668715 C19.8752187,54.5668715 20.4167805,54.0200176 20.4167805,53.3585007 L20.4167805,51.8061412 C20.4167805,51.4709726 20.6884435,51.1975456 21.021848,51.1975456 C21.3570165,51.1975456 21.6269154,51.4709726 21.6269154,51.8061412 L21.6269154,53.3585007 C21.6269154,54.6903546 20.5429098,55.7752423 19.2084098,55.7752423" id="Fill-282" fill="#525656"></path>
                        <path d="M12.9566345,44.9528265 C12.8119828,44.9528265 12.6664491,44.8999052 12.5509041,44.7940625 L11.2402188,43.6033322 C10.269994,42.9329951 9.69226931,41.830467 9.69226931,40.6485569 C9.69226931,39.3872647 10.3731907,38.2229951 11.4369098,37.5791187 C11.3054884,37.2086692 11.2402188,36.8205794 11.2402188,36.4324895 C11.2402188,34.4488209 12.8516738,32.8364838 14.8335783,32.8364838 C15.0152749,32.8364838 15.2013817,32.8541243 15.3963086,32.8885232 C16.2809772,31.6457535 17.7160277,30.8889782 19.2410446,30.8889782 C20.7598873,30.8889782 22.1940558,31.6422254 23.0796064,32.8779389 C23.2533648,32.8505962 23.418303,32.8364838 23.5832412,32.8364838 C25.5651457,32.8364838 27.1774828,34.4488209 27.1774828,36.4324895 C27.1774828,36.8205794 27.1113311,37.2086692 26.9799098,37.5791187 C28.0436289,38.2229951 28.7236682,39.3872647 28.7236682,40.6485569 C28.7236682,41.8922086 28.1027244,43.0211973 27.0592918,43.6827142 L25.8712075,44.7852423 C25.6251232,45.0145681 25.2432075,44.9969277 25.0156457,44.7587816 C24.7889659,44.5118153 24.8030783,44.1325456 25.0473985,43.9032198 L26.2778199,42.7565906 L26.3739603,42.6860288 C27.0875165,42.2450176 27.5135334,41.4864782 27.5135334,40.6485569 C27.5135334,39.6606917 26.909348,38.7874895 25.9744041,38.4346805 C25.810348,38.3729389 25.6824547,38.2406355 25.6215952,38.0730513 C25.5607356,37.9142872 25.574848,37.7290625 25.6604041,37.5702985 C25.8641513,37.2086692 25.967348,36.8205794 25.967348,36.4324895 C25.967348,35.118276 24.8974547,34.0466187 23.5832412,34.0466187 C23.3962525,34.0466187 23.1977974,34.0774895 22.9596513,34.1427591 C22.6923985,34.2142029 22.4154435,34.1004221 22.2769659,33.863158 C21.6330895,32.7597479 20.4979266,32.0991131 19.2410446,32.0991131 C17.9771064,32.0991131 16.8392974,32.764158 16.197185,33.8781524 C16.0578255,34.1207086 15.7702862,34.2353715 15.5021513,34.1559895 C15.2472468,34.0818996 15.0355614,34.0466187 14.8335783,34.0466187 C13.5193648,34.0466187 12.4503536,35.118276 12.4503536,36.4324895 C12.4503536,36.8205794 12.5535502,37.2086692 12.7564154,37.5702985 C12.8419716,37.7290625 12.8560839,37.9142872 12.7952244,38.0730513 C12.7343648,38.2406355 12.6064716,38.3729389 12.4424154,38.4346805 C11.5074716,38.7874895 10.9024041,39.6606917 10.9024041,40.6485569 C10.9024041,41.4423771 11.2957862,42.183276 11.9537749,42.6242872 L12.0216907,42.6860288 L13.3632468,43.8943996 C13.6110952,44.1237254 13.6296176,44.5029951 13.4055839,44.7499614 C13.2856289,44.8822647 13.1215727,44.9528265 12.9566345,44.9528265" id="Fill-283" fill="#525656"></path>
                        <path d="M14.4340221,39.1314782 C13.8615895,40.0311412 13.5617019,41.0542872 13.5617019,42.1391749 L13.5617019,45.5526018 C13.5617019,48.6661412 16.0948704,51.1975456 19.2084098,51.1975456 C22.3219491,51.1975456 24.8551176,48.6661412 24.8551176,45.5526018 L24.8551176,42.1391749 C24.8551176,41.0542872 24.55523,40.0311412 23.9827974,39.1314782 C22.5477468,40.0311412 20.9089491,40.5074333 19.2084098,40.5074333 C17.5078704,40.5074333 15.8699547,40.0311412 14.4340221,39.1314782 Z M19.2084098,52.4147367 C15.4280614,52.4147367 12.3515671,49.3364782 12.3515671,45.5526018 L12.3515671,42.1391749 C12.3515671,40.5956355 12.8543199,39.1402985 13.8051401,37.9231074 C14.0053592,37.6673209 14.3740446,37.6143996 14.6368873,37.8084445 C15.9802075,38.7786692 17.5607918,39.2990625 19.2084098,39.2990625 C20.8560277,39.2990625 22.436612,38.7786692 23.7799322,37.8084445 C24.043657,37.6143996 24.4123423,37.6673209 24.6116794,37.9231074 C25.5624996,39.1402985 26.0652525,40.5956355 26.0652525,42.1391749 L26.0652525,45.5526018 C26.0652525,49.3364782 22.9887581,52.4147367 19.2084098,52.4147367 L19.2084098,52.4147367 Z" id="Fill-284" fill="#525656"></path>
                        <path d="M19.2084098,48.1545681 C18.6386232,48.1545681 18.0688367,47.9958041 17.5607918,47.678276 C17.2767805,47.5018715 17.1903423,47.1314221 17.3667468,46.8491749 C17.5431513,46.5581074 17.9162468,46.4787254 18.2002581,46.6551299 C18.8212019,47.0432198 19.5947356,47.0432198 20.2165614,46.6551299 C20.4996907,46.4787254 20.8736682,46.5581074 21.0500727,46.8491749 C21.2264772,47.1314221 21.140039,47.5018715 20.8560277,47.678276 C20.3479828,47.9958041 19.7781963,48.1545681 19.2084098,48.1545681" id="Fill-285" fill="#525656"></path>
                        <path d="M22.0917412,44.106085 L21.8624154,44.0619838 L21.6683704,43.9296805 C21.5537075,43.8150176 21.4866738,43.6650737 21.4866738,43.5063097 L21.535185,43.2769838 L21.6683704,43.0741187 C21.8924041,42.8536131 22.2972525,42.8536131 22.5212862,43.0741187 L22.6544716,43.2769838 L22.6968086,43.5063097 C22.6968086,43.6650737 22.6368311,43.8150176 22.5212862,43.9296805 C22.4066232,44.0443434 22.2557974,44.106085 22.0917412,44.106085" id="Fill-286" fill="#525656"></path>
                        <path d="M16.3189041,44.106085 C16.1619041,44.106085 16.0101963,44.0443434 15.8955334,43.9296805 C15.7808704,43.8150176 15.7138367,43.6650737 15.7138367,43.5063097 L15.762348,43.2769838 L15.8955334,43.0741187 C16.118685,42.8536131 16.5252974,42.8536131 16.7484491,43.0741187 L16.8825165,43.2769838 L16.9239716,43.5063097 C16.9239716,43.6650737 16.863994,43.8150176 16.7484491,43.9296805 C16.6337862,44.0443434 16.4820783,44.106085 16.3189041,44.106085" id="Fill-287" fill="#525656"></path>
                        <path d="M19.2084098,27.1165681 C9.6446401,27.1165681 1.86343785,34.8536692 1.86343785,44.3618715 C1.86343785,53.8700737 9.6446401,61.6054108 19.2084098,61.6054108 C28.7721794,61.6054108 36.5533817,53.8700737 36.5533817,44.3618715 C36.5533817,34.8536692 28.7721794,27.1165681 19.2084098,27.1165681 Z M19.2084098,63.4223771 C8.64354459,63.4223771 0.0482356039,54.8755794 0.0482356039,44.3618715 C0.0482356039,33.8516917 8.64354459,25.3004838 19.2084098,25.3004838 C29.7732749,25.3004838 38.3685839,33.8516917 38.3685839,44.3618715 C38.3685839,54.8755794 29.7732749,63.4223771 19.2084098,63.4223771 L19.2084098,63.4223771 Z" id="Fill-288" fill="#B5B6BD"></path>
                        <path d="M126.748118,90.9502985 C126.658151,90.9502985 126.566421,90.9238378 126.479983,90.8885569 C124.718584,90.0153546 123.459056,87.8014782 123.671623,85.949231 C123.749241,85.2700737 123.896539,84.5997367 124.037663,83.94704 C124.3155,82.6681074 124.57746,81.4597367 124.338432,80.295467 C124.231708,79.7750737 124.025314,79.2723209 123.806573,78.7342872 C123.607236,78.2491749 123.402606,77.7464221 123.265893,77.2172086 C122.858399,75.6119277 123.265011,73.8126018 124.474264,71.8633322 C127.121213,67.6119838 130.128028,65.10704 133.411797,64.4278827 C136.931067,63.7046243 139.739427,65.3099052 140.782859,66.0419838 C141.266208,66.3771524 141.929488,66.67704 142.631578,66.9945681 C143.738517,67.4885007 144.883382,68.008894 145.614578,68.793894 C146.791196,70.0551861 146.979067,72.0485569 146.172017,74.721085 L146.040595,75.153276 C145.549309,76.7497367 145.041264,78.3991187 145.598702,79.8015344 C145.74159,80.1543434 145.955921,80.5071524 146.185247,80.8776018 C146.60509,81.5567591 147.039927,82.2535569 147.090202,83.1443996 C147.137831,83.9646805 146.818539,84.7232198 146.516887,85.3759164 C145.805095,86.9018153 144.96982,88.3747928 144.035758,89.7683883 C143.848769,90.0418153 143.47391,90.1211973 143.196073,89.9359726 C142.918236,89.7419277 142.845028,89.3714782 143.031134,89.089231 C143.931679,87.7573771 144.73432,86.3285007 145.419651,84.8643434 C145.671028,84.3263097 145.913584,83.7529951 145.882713,83.2061412 C145.849196,82.6328265 145.512264,82.0859726 145.155927,81.512658 C144.909842,81.1157479 144.65582,80.7011973 144.473241,80.2425456 C143.758803,78.45204 144.356814,76.5027704 144.884264,74.7916468 L145.013039,74.368276 C145.686022,72.1455794 145.590764,70.5491187 144.728146,69.6229951 C144.163651,69.0143996 143.130803,68.5469277 142.132354,68.0970962 C141.378224,67.7531074 140.666432,67.4355794 140.093118,67.029849 C139.175814,66.3947928 136.716736,64.9835569 133.656118,65.6186131 C130.710163,66.2272086 127.966191,68.5381074 125.50182,72.5072086 C124.4725,74.1565906 124.115281,75.6383883 124.438983,76.9173209 C124.553646,77.3671524 124.73446,77.8081636 124.925859,78.2756355 C125.156949,78.8401299 125.395095,79.4134445 125.52387,80.0485007 C125.814056,81.4685569 125.512404,82.8621524 125.220455,84.2028265 C125.079331,84.8555232 124.945264,85.4729389 124.87382,86.0903546 C124.720348,87.4222086 125.722325,89.1597928 127.017134,89.8036692 C127.317022,89.9447928 127.439623,90.3152423 127.290561,90.6151299 C127.185601,90.8268153 126.971269,90.9502985 126.748118,90.9502985" id="Fill-289" fill="#525656"></path>
                        <path d="M52.107848,124.096703 C53.8119154,124.096703 55.4595334,124.811141 56.6299772,126.045973 L56.699657,126.134175 L56.7896232,126.107714 L56.7896232,120.683276 L55.4595334,119.245579 L53.5640671,121.362433 C53.4529322,121.485916 53.2968143,121.556478 53.130112,121.565298 C52.9492974,121.565298 52.8037637,121.503557 52.6855727,121.388894 L51.1711401,119.871815 L49.3285952,121.353613 C49.1874716,121.468276 49.0048929,121.512377 48.8267244,121.477096 L47.4251907,121.186029 L47.4251907,126.107714 L47.5848367,126.045973 C48.7543985,124.811141 50.4028985,124.096703 52.107848,124.096703 Z M56.7349379,127.369006 C56.3362637,127.369006 55.9578761,127.183782 55.7170839,126.848613 C54.77773,125.869568 53.4652805,125.305074 52.107848,125.305074 C50.7504154,125.305074 49.4362019,125.869568 48.496848,126.848613 C48.18373,127.280804 47.6386401,127.474849 47.1200109,127.316085 C46.5784491,127.157321 46.2141738,126.672209 46.2141738,126.107714 L46.2141738,120.44513 C46.2141738,120.259905 46.2962019,120.092321 46.4373255,119.977658 C46.5784491,119.862995 46.7627918,119.818894 46.9418423,119.854175 L48.7905614,120.233445 L50.8342075,118.584062 C51.0749996,118.390018 51.4225165,118.407658 51.6421401,118.628164 L53.090421,120.07468 L55.0017637,117.949006 C55.1155446,117.816703 55.2769547,117.746141 55.447185,117.746141 L55.4524772,117.746141 C55.6209435,117.746141 55.7814716,117.816703 55.8961345,117.940186 L57.838348,120.030579 C57.9415446,120.145242 57.9997581,120.295186 57.9997581,120.44513 L57.9997581,126.107714 C57.9997581,126.672209 57.6354828,127.157321 57.093921,127.316085 C56.974848,127.351366 56.8540109,127.369006 56.7349379,127.369006 L56.7349379,127.369006 Z" id="Fill-290" fill="#525656"></path>
                        <polygon id="Fill-291" fill="#B2DACE" points="9.3897356 111.307377 11.2049379 111.307377 11.2049379 94.6547928 9.3897356 94.6547928"></polygon>
                        <path d="M17.7160277,103.889568 L2.87952774,103.889568 C2.37853897,103.889568 1.97192662,103.483838 1.97192662,102.981085 C1.97192662,102.478332 2.37853897,102.072602 2.87952774,102.072602 L17.7160277,102.072602 C18.2170165,102.072602 18.6236289,102.478332 18.6236289,102.981085 C18.6236289,103.483838 18.2170165,103.889568 17.7160277,103.889568" id="Fill-293" fill="#B2DACE"></path>
                        <path d="M147.794056,41.9539501 C147.293067,41.9539501 146.886455,41.5482198 146.886455,41.045467 L146.886455,34.5343771 L148.701657,34.5343771 L148.701657,41.045467 C148.701657,41.5482198 148.295045,41.9539501 147.794056,41.9539501 M148.701657,32.7182928 L146.886455,32.7182928 L146.886455,26.208967 C146.886455,25.7070962 147.293067,25.3013659 147.794056,25.3013659 C148.295045,25.3013659 148.701657,25.7070962 148.701657,26.208967 L148.701657,32.7182928" id="Fill-294" fill="#B2DACE"></path>
                        <path d="M155.211865,34.5343771 L140.376247,34.5343771 C139.874376,34.5343771 139.467764,34.1277647 139.467764,33.626776 C139.467764,33.1257872 139.874376,32.7182928 140.376247,32.7182928 L155.211865,32.7182928 C155.713736,32.7182928 156.120348,33.1257872 156.120348,33.626776 C156.120348,34.1277647 155.713736,34.5343771 155.211865,34.5343771" id="Fill-295" fill="#B2DACE"></path>
                        <path d="M50.9197637,9.49816924 C50.4187749,9.49816924 50.0112805,9.0924389 50.0112805,8.59056812 L50.0112805,5.78838272 L51.8273648,5.78838272 L51.8273648,8.59056812 C51.8273648,9.0924389 51.4207525,9.49816924 50.9197637,9.49816924 M51.8273648,3.9740625 L50.0112805,3.9740625 L50.0112805,1.17275913 C50.0112805,0.670888343 50.4187749,0.265158006 50.9197637,0.265158006 C51.4207525,0.265158006 51.8273648,0.670888343 51.8273648,1.17275913 L51.8273648,3.9740625" id="Fill-296" fill="#B2DACE"></path>
                        <path d="M54.6286682,5.78838272 L47.2108592,5.78838272 C46.7098704,5.78838272 46.3032581,5.38265239 46.3032581,4.8807816 C46.3032581,4.38067486 46.7098704,3.9740625 47.2108592,3.9740625 L54.6286682,3.9740625 C55.130539,3.9740625 55.5371513,4.38067486 55.5371513,4.8807816 C55.5371513,5.38265239 55.130539,5.78838272 54.6286682,5.78838272" id="Fill-297" fill="#B2DACE"></path>
                        <path d="M101.329112,144.303838 C100.828123,144.303838 100.421511,143.889287 100.421511,143.395355 L100.421511,140.590523 L102.237595,140.590523 L102.237595,143.395355 C102.237595,143.889287 101.830983,144.303838 101.329112,144.303838 M102.237595,138.773557 L100.421511,138.773557 L100.421511,135.977546 C100.421511,135.474793 100.828123,135.069062 101.329112,135.069062 C101.830983,135.069062 102.237595,135.474793 102.237595,135.977546 L102.237595,138.773557" id="Fill-298" fill="#B2DACE"></path>
                        <path d="M105.038899,140.590523 L97.6202075,140.590523 C97.1192188,140.590523 96.7126064,140.184793 96.7126064,139.68204 C96.7126064,139.179287 97.1192188,138.773557 97.6202075,138.773557 L105.038899,138.773557 C105.539887,138.773557 105.9465,139.179287 105.9465,139.68204 C105.9465,140.184793 105.539887,140.590523 105.038899,140.590523" id="Fill-299" fill="#B2DACE"></path>
                        <path d="M144.36387,120.533332 C144.029584,120.533332 143.758803,120.268725 143.758803,119.933557 L143.758803,118.954512 L144.968938,118.954512 L144.968938,119.933557 C144.968938,120.268725 144.698157,120.533332 144.36387,120.533332 M144.968938,117.746141 L143.758803,117.746141 L143.758803,116.767096 C143.758803,116.431928 144.029584,116.158501 144.36387,116.158501 C144.698157,116.158501 144.968938,116.431928 144.968938,116.767096 L144.968938,117.746141" id="Fill-300" fill="#B2DACE"></path>
                        <path d="M145.947101,118.954512 L142.781522,118.954512 C142.446354,118.954512 142.175573,118.681085 142.175573,118.345916 C142.175573,118.019568 142.446354,117.746141 142.781522,117.746141 L145.947101,117.746141 C146.281387,117.746141 146.552168,118.019568 146.552168,118.345916 C146.552168,118.681085 146.281387,118.954512 145.947101,118.954512" id="Fill-301" fill="#B2DACE"></path>
                        <path d="M8.71498841,17.9841074 C8.3807019,17.9841074 8.109921,17.7133265 8.109921,17.37904 L8.109921,16.4008771 L9.32005583,16.4008771 L9.32005583,17.37904 C9.32005583,17.7133265 9.04927493,17.9841074 8.71498841,17.9841074 M9.32005583,15.1907423 L8.109921,15.1907423 L8.109921,14.2134614 C8.109921,13.8782928 8.3807019,13.6075119 8.71498841,13.6075119 C9.04927493,13.6075119 9.32005583,13.8782928 9.32005583,14.2134614 L9.32005583,15.1907423" id="Fill-302" fill="#B2DACE"></path>
                        <path d="M10.2973367,16.4008771 L7.13175808,16.4008771 C6.79747156,16.4008771 6.52669066,16.1300962 6.52669066,15.7958097 C6.52669066,15.4615232 6.79747156,15.1907423 7.13175808,15.1907423 L10.2973367,15.1907423 C10.6325053,15.1907423 10.9024041,15.4615232 10.9024041,15.7958097 C10.9024041,16.1300962 10.6325053,16.4008771 10.2973367,16.4008771" id="Fill-303" fill="#B2DACE"></path>
                    </g>
                </g>
            </g>
        </g>
    </g>
</svg>