
<svg width="162px" height="149px" viewBox="0 0 162 149" version="1.1" xmlns="http://www.w3.org/2000/svg" xmlns:xlink="http://www.w3.org/1999/xlink">
    <!-- Generator: Sketch 44.1 (41455) - http://www.bohemiancoding.com/sketch -->
    <desc>Created with Sketch.</desc>
    <defs>
        <filter x="-1.7%" y="-2.3%" width="103.4%" height="107.3%" filterUnits="objectBoundingBox" id="filter-1">
            <feOffset dx="0" dy="4" in="SourceAlpha" result="shadowOffsetOuter1"></feOffset>
            <feGaussianBlur stdDeviation="3" in="shadowOffsetOuter1" result="shadowBlurOuter1"></feGaussianBlur>
            <feColorMatrix values="0 0 0 0 0   0 0 0 0 0   0 0 0 0 0  0 0 0 0.1 0" type="matrix" in="shadowBlurOuter1" result="shadowMatrixOuter1"></feColorMatrix>
            <feMerge>
                <feMergeNode in="shadowMatrixOuter1"></feMergeNode>
                <feMergeNode in="SourceGraphic"></feMergeNode>
            </feMerge>
        </filter>
    </defs>
    <g id="Page-1" stroke="none" stroke-width="1" fill="none" fill-rule="evenodd">
        <g id="messages" transform="translate(-1522.000000, -1152.000000)">
            <g id="fav" filter="url(#filter-1)" transform="translate(1282.000000, 1103.500000)">
                <g id="Imported-Layers" transform="translate(246.000000, 50.000000)">
                    <path d="M33.7424157,29.6233146 L40.0963483,42.4398876 C40.5505618,43.3567416 41.4269663,43.9912921 42.4398876,44.136236 L56.5997191,46.1679775 C59.1488764,46.5337079 60.1727528,49.6651685 58.3314607,51.4660112 L48.1053371,61.4696629 C47.3738764,62.1851124 47.0418539,63.2140449 47.2162921,64.2219101 L49.6601124,78.3168539 C50.1,80.8550562 47.438764,82.7957865 45.1558989,81.6008427 L32.4825843,74.9671348 C31.5766854,74.4926966 30.4946629,74.494382 29.5904494,74.972191 L16.9398876,81.6514045 C14.6620787,82.8539326 11.9941011,80.9224719 12.4247191,78.383427 L14.8179775,64.2792135 C14.9890449,63.2713483 14.6536517,62.2432584 13.9196629,61.5303371 L3.65814607,51.563764 C1.81011236,49.7688202 2.82219101,46.6339888 5.37134831,46.2589888 L19.5235955,44.1766854 C20.5356742,44.0283708 21.4095506,43.3904494 21.8603933,42.4727528 L28.1688202,29.633427 C29.3047753,27.3219101 32.5988764,27.3160112 33.7424157,29.6233146" id="Fill-1" fill="#FFF3B6"></path>
                    <path d="M15.4837079,84.5452247 C14.3241573,84.5452247 13.1713483,84.1820225 12.1853933,83.4691011 C10.4342697,82.2025281 9.57050562,80.091573 9.93202247,77.961236 L12.3252809,63.8561798 C12.3573034,63.6682584 12.2949438,63.4761236 12.158427,63.3438202 L1.89691011,53.3772472 C0.346348315,51.8705056 -0.203932584,49.6575843 0.460955056,47.6005618 C1.125,45.5452247 2.86601124,44.072191 5.00308989,43.7587079 L19.1553371,41.6764045 C19.3441011,41.6485955 19.5075843,41.5289326 19.5918539,41.3578652 L25.8994382,28.5185393 C26.8525281,26.5794944 28.7865169,25.3719101 30.9480337,25.3676966 L30.9581461,25.3676966 C33.1154494,25.3676966 35.0494382,26.5676966 36.0067416,28.5008427 L42.3615169,41.3174157 C42.4466292,41.4884831 42.608427,41.6064607 42.797191,41.633427 L56.9587079,43.6651685 C59.0983146,43.9735955 60.844382,45.4398876 61.5151685,47.4935393 C62.1867978,49.5480337 61.6432584,51.7626404 60.0985955,53.2735955 L49.8733146,63.2764045 C49.7367978,63.4095506 49.6744382,63.6025281 49.7073034,63.7904494 L52.1511236,77.8845506 C52.5202247,80.0140449 51.6648876,82.1283708 49.9179775,83.4016854 C48.1727528,84.675 45.8991573,84.8452247 43.9837079,83.8398876 L31.3095506,77.2070225 C31.1410112,77.1185393 30.9396067,77.1202247 30.769382,77.2078652 L18.1205056,83.8870787 C17.2870787,84.3269663 16.3828652,84.5452247 15.4837079,84.5452247 L15.4837079,84.5452247 Z M30.9581461,30.4238764 L30.9564607,30.4238764 C30.7179775,30.4247191 30.5426966,30.533427 30.4373596,30.7483146 L24.1297753,43.5884831 C23.3115169,45.252809 21.7264045,46.4081461 19.8910112,46.6786517 L5.73876404,48.7601124 C5.50196629,48.7955056 5.34522472,48.9286517 5.27191011,49.1553371 C5.19859551,49.3837079 5.24831461,49.583427 5.42022472,49.7502809 L15.6800562,59.7160112 C17.0115169,61.0095506 17.6207865,62.8727528 17.3106742,64.7022472 L14.9174157,78.8064607 C14.8769663,79.041573 14.9553371,79.2320225 15.15,79.3727528 C15.3421348,79.5109551 15.5469101,79.5269663 15.7592697,79.4157303 L28.4098315,72.7356742 C30.0505618,71.869382 32.0115169,71.8668539 33.655618,72.7280899 L46.3297753,79.3609551 C46.538764,79.472191 46.7460674,79.4570225 46.9390449,79.3162921 C47.1328652,79.1755618 47.2095506,78.9851124 47.1691011,78.7483146 L44.7252809,64.6542135 C44.4092697,62.8264045 45.0117978,60.9615169 46.3356742,59.663764 L56.5634831,49.6592697 C56.7345506,49.4924157 56.783427,49.2918539 56.7092697,49.0651685 C56.6351124,48.8367978 56.4775281,48.7044944 56.2398876,48.6707865 L42.0800562,46.6390449 C40.2446629,46.3761236 38.6553371,45.2258427 37.8311798,43.5623596 L31.4780899,30.7457865 C31.3710674,30.5325843 31.1966292,30.4238764 30.9581461,30.4238764 L30.9581461,30.4238764 Z" id="Fill-2" fill="#FFDC0D"></path>
                    <path d="M83.2061798,45.7811798 L86.1067416,64.1351124 C86.3148876,65.447191 87.1550562,66.5738764 88.3533708,67.1469101 L105.117978,75.1617978 C108.136517,76.6053371 108.189607,80.8837079 105.208146,82.4014045 L88.6491573,90.8325843 C87.4651685,91.4359551 86.6536517,92.5828652 86.4792135,93.9 L84.036236,112.320506 C83.5963483,115.63736 79.5446629,117.010112 77.1792135,114.64382 L64.0432584,101.500281 C63.1044944,100.560674 61.7629213,100.142697 60.4558989,100.383708 L42.1820225,103.753652 C38.8912921,104.360393 36.3337079,100.930618 37.8539326,97.9491573 L46.294382,81.3952247 C46.8977528,80.2120787 46.8800562,78.8073034 46.2480337,77.6384831 L37.3963483,61.3002809 C35.8019663,58.358427 38.2735955,54.8654494 41.5786517,55.3904494 L59.9308989,58.302809 C61.2429775,58.5109551 62.5735955,58.0601124 63.4896067,57.0969101 L76.2926966,43.6297753 C78.5983146,41.2044944 82.6837079,42.4761236 83.2061798,45.7811798" id="Fill-3" fill="#FFE876"></path>
                    <path d="M80.016573,118.360112 C78.3092697,118.360112 76.6483146,117.689326 75.3910112,116.430337 L62.2550562,103.28764 C61.9036517,102.935393 61.4022472,102.782865 60.9143258,102.869663 L42.6412921,106.239607 C40.163764,106.699719 37.6929775,105.726404 36.1870787,103.707303 C34.6820225,101.689888 34.4587079,99.0429775 35.6014045,96.8005618 L44.0426966,80.2474719 C44.2676966,79.8042135 44.2609551,79.2792135 44.025,78.8426966 L35.1733146,62.5044944 C33.9741573,60.291573 34.1325843,57.6396067 35.586236,55.5851124 C37.0407303,53.5297753 39.4912921,52.4974719 41.9747191,52.8935393 L60.3261236,55.8058989 C60.8148876,55.8817416 61.3154494,55.7140449 61.6575843,55.3542135 L74.4598315,41.8879213 C76.1957865,40.0643258 78.7668539,39.3969101 81.1685393,40.1435393 C83.5719101,40.8901685 85.3095506,42.9 85.7022472,45.3859551 L88.6036517,63.7398876 C88.6820225,64.2311798 88.9955056,64.6516854 89.4438202,64.8657303 L106.207584,72.880618 C108.479494,73.9668539 109.909551,76.2058989 109.941573,78.722191 C109.972753,81.2393258 108.598315,83.5129213 106.355056,84.6547753 L89.7969101,93.0859551 C89.3536517,93.3109551 89.0502809,93.7398876 88.9845506,94.2328652 L86.5424157,112.653371 C86.2120787,115.149438 84.525,117.200562 82.1401685,118.007865 C81.441573,118.244663 80.7252809,118.360112 80.016573,118.360112 L80.016573,118.360112 Z M61.1882022,97.7882022 C62.9140449,97.7882022 64.5893258,98.4699438 65.8314607,99.713764 L78.9674157,112.856461 C79.566573,113.456461 80.2525281,113.308989 80.5179775,113.21882 C80.7851124,113.128652 81.4188202,112.827809 81.5308989,111.988483 L83.972191,93.5671348 C84.2570225,91.4241573 85.5766854,89.5601124 87.5022472,88.5800562 L104.060393,80.1480337 C104.815449,79.763764 104.888764,79.0668539 104.885393,78.7853933 C104.882022,78.5030899 104.791854,77.8087079 104.026685,77.4429775 L87.2629213,69.4272472 C85.3129213,68.4952247 83.9477528,66.6640449 83.6106742,64.5286517 L80.708427,46.1764045 C80.5761236,45.3404494 79.9356742,45.0547753 79.6660112,44.9705056 C79.397191,44.888764 78.7070225,44.7581461 78.1238764,45.3724719 L65.3216292,58.838764 C63.8325843,60.4053371 61.6727528,61.1384831 59.5339888,60.7988764 L41.1825843,57.8865169 C40.3457865,57.7550562 39.8755618,58.275 39.713764,58.5058989 C39.5511236,58.7359551 39.2157303,59.3519663 39.619382,60.0960674 L48.4702247,76.4342697 C49.5,78.3345506 49.5286517,80.6182584 48.5469101,82.5429775 L40.1064607,99.0977528 C39.7213483,99.8519663 40.0719101,100.459551 40.2404494,100.686236 C40.4089888,100.911236 40.8926966,101.42191 41.7244382,101.267697 L59.9974719,97.8977528 C60.394382,97.8244382 60.7929775,97.7882022 61.1882022,97.7882022 L61.1882022,97.7882022 Z" id="Fill-4" fill="#FFDC0D"></path>
                    <path d="M121.400562,30.1634831 L122.942697,39.9185393 C123.05309,40.6162921 123.499719,41.2146067 124.136798,41.5196629 L133.046629,45.7794944 C134.651124,46.5463483 134.679775,48.8207865 133.094663,49.6272472 L124.293539,54.1087079 C123.664045,54.4289326 123.232584,55.0382022 123.139888,55.7384831 L121.842135,65.5297753 C121.607865,67.2926966 119.453933,68.0224719 118.197472,66.7643258 L111.21573,59.7783708 C110.716011,59.2786517 110.00309,59.0570225 109.308708,59.1851124 L99.5957865,60.9758427 C97.847191,61.2985955 96.4870787,59.4758427 97.2952247,57.8907303 L101.781742,49.0921348 C102.102809,48.4634831 102.093539,47.7168539 101.756461,47.0957865 L97.0516854,38.4117978 C96.2047753,36.8477528 97.5185393,34.9921348 99.2747191,35.2702247 L109.029775,36.8182584 C109.726685,36.9286517 110.434551,36.6893258 110.920787,36.177809 L117.725562,29.0199438 C118.950843,27.730618 121.122472,28.4064607 121.400562,30.1634831" id="Fill-5" fill="#FFF3B6"></path>
                    <path d="M119.702528,69.9244382 C118.485674,69.9244382 117.303371,69.4466292 116.408427,68.5508427 L109.569101,61.7081461 L100.054213,63.4626404 C98.2929775,63.788764 96.5308989,63.0969101 95.4598315,61.6601124 C94.388764,60.2241573 94.2286517,58.3390449 95.0426966,56.7429775 L99.4382022,48.1238764 L94.8294944,39.6160112 C93.9758427,38.0410112 94.0879213,36.1525281 95.1235955,34.6904494 C96.1575843,33.2275281 97.9019663,32.494382 99.6716292,32.7741573 L109.226966,34.2901685 L115.893539,27.2772472 C117.12809,25.9786517 118.958427,25.5042135 120.669944,26.0359551 C122.381461,26.5676966 123.617697,27.9994382 123.896629,29.7691011 L125.407584,39.3252809 L134.137079,43.4991573 C135.754213,44.2710674 136.772191,45.8646067 136.794944,47.6570225 C136.816854,49.4485955 135.839326,51.0674157 134.242416,51.8797753 L125.619101,56.2702247 L124.347472,65.8617978 C124.11236,67.6390449 122.91236,69.0994382 121.213483,69.6741573 C120.716292,69.8426966 120.206461,69.9244382 119.702528,69.9244382 L119.702528,69.9244382 Z M109.698876,56.6207865 C110.925843,56.6207865 112.118258,57.1061798 113.00309,57.9910112 L119.437079,64.4292135 L120.633708,55.4064607 C120.836798,53.8794944 121.776404,52.5522472 123.148315,51.8553371 L131.257584,47.7269663 L123.046348,43.8 C121.657584,43.1359551 120.685955,41.8339888 120.445787,40.313764 L119.024157,31.3230337 L112.752809,37.9196629 C111.693539,39.0345506 110.148876,39.5561798 108.634551,39.3151685 L99.6446629,37.8893258 L103.979494,45.891573 C104.71264,47.2441011 104.732865,48.8705056 104.03427,50.2407303 L99.8991573,58.3491573 L108.850281,56.6991573 C109.132584,56.6469101 109.416573,56.6207865 109.698876,56.6207865 L109.698876,56.6207865 Z" id="Fill-6" fill="#FFDC0D"></path>
                    <path d="M147.28736,16.686236 L138.005899,26.4657303" id="Fill-7" fill="#E6E6E6"></path>
                    <path d="M138.005056,28.9938202 C137.379775,28.9938202 136.754494,28.763764 136.264888,28.2994382 C135.252809,27.3379213 135.210674,25.7384831 136.172191,24.7255618 L145.453652,14.9452247 C146.413483,13.9331461 148.013764,13.8893258 149.028371,14.8525281 C150.040449,15.8140449 150.082584,17.4134831 149.121067,18.4264045 L139.838764,28.2067416 C139.342416,28.7300562 138.675,28.9938202 138.005056,28.9938202" id="Fill-8" fill="#CCCCCC"></path>
                    <path d="M13.5337079,23.5424157 L6.91853933,10.6213483" id="Fill-9" fill="#F2F2F2"></path>
                    <path d="M13.5353933,26.0705056 C12.6176966,26.0705056 11.7311798,25.5682584 11.2845506,24.694382 L4.66853933,11.7733146 C4.03146067,10.5303371 4.52359551,9.00674157 5.76657303,8.37134831 C7.00617978,7.73511236 8.53314607,8.2255618 9.16853933,9.46853933 L15.7845506,22.3896067 C16.4207865,23.6325843 15.9286517,25.1561798 14.6865169,25.791573 C14.3174157,25.9811798 13.9238764,26.0705056 13.5353933,26.0705056" id="Fill-10" fill="#E6E6E6"></path>
                    <path d="M45.0893258,23.1505618 L49.5202247,9.32696629" id="Fill-11" fill="#E6E6E6"></path>
                    <path d="M45.0901685,25.6803371 C44.8339888,25.6803371 44.5735955,25.6407303 44.3174157,25.5581461 C42.9884831,25.1325843 42.2561798,23.7092697 42.6817416,22.3794944 L47.1126404,8.55505618 C47.5373596,7.2261236 48.9632022,6.49382022 50.2921348,6.92022472 C51.6210674,7.34578652 52.3533708,8.76910112 51.9269663,10.0988764 L47.4960674,23.9233146 C47.1530899,24.9952247 46.1587079,25.6803371 45.0901685,25.6803371" id="Fill-12" fill="#CCCCCC"></path>
                    <path d="M64.9382022,122.248315 L58.3230337,135.169382" id="Fill-13" fill="#F2F2F2"></path>
                    <path d="M58.3205056,137.698315 C57.9328652,137.698315 57.5393258,137.608989 57.1710674,137.419382 C55.9280899,136.783146 55.4359551,135.260393 56.0730337,134.017416 L62.6890449,121.096348 C63.3252809,119.853371 64.8505618,119.362079 66.0910112,119.998315 C67.3331461,120.634551 67.8252809,122.158146 67.1882022,123.400281 L60.5730337,136.322191 C60.1264045,137.196067 59.2398876,137.698315 58.3205056,137.698315" id="Fill-14" fill="#E6E6E6"></path>
                    <path d="M95.3561798,116.887921 L103.747753,128.732865" id="Fill-15" fill="#E6E6E6"></path>
                    <path d="M103.750281,131.260955 C102.958146,131.260955 102.177809,130.889326 101.684831,130.194101 L93.2932584,118.349157 C92.4867978,117.209831 92.755618,115.632303 93.8949438,114.825 C95.0342697,114.016854 96.6117978,114.28736 97.4199438,115.426685 L105.810674,127.270787 C106.617978,128.410112 106.348315,129.988483 105.209831,130.795787 C104.76573,131.110112 104.255899,131.260955 103.750281,131.260955" id="Fill-16" fill="#CCCCCC"></path>
                    <path d="M110.327528,16.5244382 L108.283989,3.03202247" id="Fill-17" fill="#F2F2F2"></path>
                    <path d="M110.324157,19.0516854 C109.095506,19.0516854 108.017697,18.1550562 107.82809,16.902809 L105.784551,3.41123596 C105.575562,2.03089888 106.524438,0.74241573 107.905618,0.533426966 C109.286798,0.319382022 110.574438,1.27331461 110.783427,2.65365169 L112.826966,16.1452247 C113.035955,17.5255618 112.087079,18.8140449 110.705899,19.0230337 C110.577809,19.0432584 110.449719,19.0516854 110.324157,19.0516854" id="Fill-18" fill="#E6E6E6"></path>
                </g>
            </g>
        </g>
    </g>
</svg>
