<?xml version="1.0" encoding="UTF-8"?>
<svg width="146px" height="129px" viewBox="0 0 146 129" version="1.1" xmlns="http://www.w3.org/2000/svg" xmlns:xlink="http://www.w3.org/1999/xlink">
    <!-- Generator: Sketch 42 (36781) - http://www.bohemiancoding.com/sketch -->
    <title>Illo / Personalised</title>
    <desc>Created with Sketch.</desc>
    <defs></defs>
    <g id="Homepage" stroke="none" stroke-width="1" fill="none" fill-rule="evenodd">
        <g id="Homepage---Desktop-Colour" transform="translate(-647.000000, -1185.000000)">
            <g id="Group-7" transform="translate(0.000000, 1024.000000)">
                <g id="Illo-/-DIscover-Colour" transform="translate(645.000000, 150.000000)">
                    <g id="Group-22" transform="translate(2.000000, 10.355422)">
                        <path d="M127.008291,92.1256702 L25.5761107,92.1256702 L25.5761107,29.7652003 C33.3589661,26.4300678 41.9298697,24.5786822 50.9343758,24.5786822 C59.9380023,24.5786822 68.5089059,26.4300678 76.2917613,29.7652003 C84.0746167,26.4300678 92.6455203,24.5786822 101.650026,24.5786822 C110.654532,24.5786822 119.225436,26.4300678 127.008291,29.7652003 L127.008291,92.1256702 M129.927412,17.9559111 L22.4599782,17.9559111 C19.1266047,17.9559111 16.4256047,20.6569111 16.4256047,23.9894051 L16.4256047,96.400128 C16.4256047,99.7335015 19.1266047,102.442417 22.4599782,102.442417 L129.927412,102.442417 C133.260785,102.442417 135.961785,99.7335015 135.961785,96.400128 L135.961785,23.9894051 C135.961785,20.6569111 133.260785,17.9559111 129.927412,17.9559111" id="Fill-304" fill="#93A09F"></path>
                        <path d="M61.1016047,64.9309714 L49.680183,75.520369 C47.9141107,77.1562726 47.8965203,79.9443449 49.6414842,81.606634 C51.3970023,83.2777184 54.1991468,83.1106099 55.7418215,81.2460316 L65.5475685,69.3725377 L61.1016047,64.9309714 M78.5785083,67.393622 C70.2802553,67.393622 63.5537011,60.6653087 63.5537011,52.3714533 C63.5537011,44.0688027 70.2802553,37.3404895 78.5785083,37.3404895 C86.8758818,37.3404895 93.602436,44.0688027 93.602436,52.3714533 C93.602436,60.6653087 86.8758818,67.393622 78.5785083,67.393622 M78.5785083,33.2331401 C68.0084601,33.2331401 59.4419541,41.7996461 59.4419541,52.3714533 C59.4419541,62.9344654 68.0084601,71.5097666 78.5785083,71.5097666 C89.1467974,71.5097666 97.714183,62.9344654 97.714183,52.3714533 C97.714183,41.7996461 89.1467974,33.2331401 78.5785083,33.2331401" id="Fill-305" fill="#E8E8E9"></path>
                        <path d="M126.909785,91.8354292 C119.12693,88.4932605 110.556026,86.6462726 101.55152,86.6462726 C92.5478938,86.6462726 83.9761107,88.4932605 76.1932553,91.8354292 C68.4112794,88.4932605 59.8394962,86.6462726 50.8358697,86.6462726 C41.8313637,86.6462726 33.2604601,88.4932605 25.4776047,91.8354292 L126.909785,91.8354292" id="Fill-306" fill="#E1E5E8"></path>
                        <path d="M93.5751709,114.562176 L58.6143276,114.562176 C55.9370745,114.562176 53.7664239,116.734586 53.7664239,119.408321 L53.7664239,121.202538 L98.4239541,121.202538 L98.4239541,119.408321 C98.4239541,116.734586 96.2533035,114.562176 93.5751709,114.562176" id="Fill-307" fill="#93A09F"></path>
                        <path d="M22.3605926,18.8626943 C19.532942,18.8626943 17.2321227,21.1635136 17.2321227,23.9911642 L17.2321227,96.4089232 C17.2321227,99.2321762 19.532942,101.536514 22.3605926,101.536514 L129.829785,101.536514 C132.657436,101.536514 134.958255,99.2321762 134.958255,96.4089232 L134.958255,23.9911642 C134.958255,21.1635136 132.657436,18.8626943 129.829785,18.8626943 L22.3605926,18.8626943 M129.829785,103.348321 L22.3605926,103.348321 C18.534689,103.348321 15.421195,100.234827 15.421195,96.4089232 L15.421195,23.9911642 C15.421195,20.1652605 18.534689,17.0526461 22.3605926,17.0526461 L129.829785,17.0526461 C133.655689,17.0526461 136.769183,20.1652605 136.769183,23.9911642 L136.769183,96.4089232 C136.769183,100.234827 133.655689,103.348321 129.829785,103.348321" id="Fill-308" fill="#525656"></path>
                        <path d="M88.7677252,115.46808 C88.2681589,115.46808 87.8627011,115.063502 87.8627011,114.562176 L87.8627011,102.442417 C87.8627011,101.941092 88.2681589,101.536514 88.7677252,101.536514 C89.2672914,101.536514 89.6727492,101.941092 89.6727492,102.442417 L89.6727492,114.562176 C89.6727492,115.063502 89.2672914,115.46808 88.7677252,115.46808" id="Fill-309" fill="#525656"></path>
                        <path d="M63.4217733,115.46808 C62.9222071,115.46808 62.5167492,115.063502 62.5167492,114.562176 L62.5167492,102.442417 C62.5167492,101.941092 62.9222071,101.536514 63.4217733,101.536514 C63.9222191,101.536514 64.327677,101.941092 64.327677,102.442417 L64.327677,114.562176 C64.327677,115.063502 63.9222191,115.46808 63.4217733,115.46808" id="Fill-310" fill="#525656"></path>
                        <path d="M54.6723276,120.296634 L97.51893,120.296634 L97.51893,117.578923 C97.51893,116.409164 96.5708095,115.46808 95.4063276,115.46808 L56.7840505,115.46808 C55.6195685,115.46808 54.6723276,116.409164 54.6723276,117.578923 L54.6723276,120.296634 Z M98.4239541,122.099646 L53.7664239,122.099646 C53.2668577,122.099646 52.8613998,121.695068 52.8613998,121.202538 L52.8613998,117.578923 C52.8613998,115.415309 54.6213155,113.656273 56.7840505,113.656273 L95.4063276,113.656273 C97.5690625,113.656273 99.3289782,115.415309 99.3289782,117.578923 L99.3289782,121.202538 C99.3289782,121.695068 98.9235203,122.099646 98.4239541,122.099646 L98.4239541,122.099646 Z" id="Fill-311" fill="#525656"></path>
                        <path d="M50.8349902,86.0394051 C59.6266529,86.0394051 68.1562191,87.7544654 76.1932553,91.1406099 C84.2311709,87.7544654 92.7607372,86.0394051 101.55152,86.0394051 C110.013364,86.0394051 118.23334,87.6313328 126.004761,90.7712123 L126.004761,30.3667907 C118.25005,27.1266461 110.026556,25.4845858 101.55152,25.4845858 C92.8768336,25.4845858 84.4651227,27.2058027 76.5494601,30.5989834 C76.3225444,30.6966099 76.0639661,30.6966099 75.8370505,30.5989834 C67.9222673,27.2058027 59.5105565,25.4845858 50.8349902,25.4845858 C42.3599541,25.4845858 34.1373396,27.1266461 26.3826288,30.3667907 L26.3826288,90.7712123 C34.1540505,87.6313328 42.3731468,86.0394051 50.8349902,86.0394051 M126.909785,93.0315738 C126.789291,93.0315738 126.667038,93.0051883 126.552701,92.9612123 C118.638797,89.5662726 110.227087,87.8424172 101.55152,87.8424172 C92.8768336,87.8424172 84.4651227,89.5662726 76.5494601,92.9612123 C76.3225444,93.0579593 76.0639661,93.0579593 75.8370505,92.9612123 C67.9222673,89.5662726 59.5105565,87.8424172 50.8349902,87.8424172 C42.161183,87.8424172 33.7485926,89.5662726 25.8338095,92.9612123 C25.5550023,93.0755497 25.2330986,93.0491642 24.9797974,92.8820557 C24.7247372,92.7149473 24.5725806,92.4335015 24.5725806,92.1256702 L24.5725806,29.7669593 C24.5725806,29.4045979 24.7880625,29.0774172 25.1213998,28.9349352 C33.2622191,25.4450075 41.9140384,23.6754172 50.8349902,23.6754172 C59.6266529,23.6754172 68.1562191,25.393116 76.1932553,28.7827786 C84.2311709,25.393116 92.7607372,23.6754172 101.55152,23.6754172 C110.473352,23.6754172 119.125171,25.4450075 127.26599,28.9349352 C127.599328,29.0774172 127.814809,29.4045979 127.814809,29.7669593 L127.814809,92.1256702 C127.814809,92.4335015 127.661773,92.7149473 127.407593,92.8820557 C127.258075,92.9788027 127.08393,93.0315738 126.909785,93.0315738" id="Fill-312" fill="#525656"></path>
                        <path d="M33.0229902,41.5006099 C32.7617733,41.5006099 32.5216649,41.3335015 32.4442673,41.0696461 C32.3501589,40.7530196 32.5322191,40.4188027 32.8506047,40.3220557 C38.3704601,38.6861521 44.0811709,37.8594051 49.8270625,37.8594051 C54.3126047,37.8594051 58.7981468,38.3607304 63.1579179,39.363381 C63.4824601,39.4337425 63.6865083,39.7591642 63.6117492,40.0845858 C63.5466649,40.3660316 63.2986408,40.5507304 63.0251107,40.5507304 C62.9793758,40.5507304 62.9336408,40.5507304 62.8879059,40.5419352 C58.6169661,39.556875 54.2220143,39.0643449 49.8270625,39.0643449 C44.1972673,39.0643449 38.6017733,39.8735015 33.1936167,41.4742244 L33.0229902,41.5006099" id="Fill-313" fill="#E7E6E6"></path>
                        <path d="M33.0229902,48.3432605 C32.7617733,48.3432605 32.5216649,48.1761521 32.4442673,47.9122967 C32.3501589,47.586875 32.5322191,47.2526581 32.8506047,47.1647063 C38.3713396,45.5200075 44.08293,44.6932605 49.8270625,44.6932605 C50.1603998,44.6932605 50.4304119,44.9659111 50.4304119,45.300128 C50.4304119,45.6343449 50.1603998,45.8982003 49.8270625,45.8982003 C44.1990264,45.8982003 38.6035324,46.7161521 33.1936167,48.316875 L33.0229902,48.3432605" id="Fill-314" fill="#E7E6E6"></path>
                        <path d="M33.0229902,55.177116 C32.7617733,55.177116 32.5216649,55.0100075 32.4442673,54.7461521 C32.3501589,54.4295256 32.5322191,54.0953087 32.8506047,53.9985617 C38.3704601,52.3626581 44.0811709,51.5359111 49.8270625,51.5359111 C52.8235806,51.5359111 55.8368095,51.7645858 58.7840745,52.2131401 C59.1130143,52.257116 59.33993,52.5649473 59.2897974,52.8991642 C59.2440625,53.1982003 58.9872432,53.4092846 58.6943637,53.4092846 C58.6644601,53.4092846 58.633677,53.4092846 58.6020143,53.4004895 C55.715436,52.9607304 52.7628938,52.7408509 49.8270625,52.7408509 C44.1972673,52.7408509 38.6017733,53.5500075 33.1936167,55.1595256 L33.0229902,55.177116" id="Fill-315" fill="#E7E6E6"></path>
                        <path d="M33.0229902,62.0197666 C32.7617733,62.0197666 32.5216649,61.8526581 32.4442673,61.5888027 C32.3501589,61.2721762 32.5322191,60.9291642 32.8506047,60.8412123 C38.3704601,59.2053087 44.0811709,58.3697666 49.8270625,58.3697666 C53.4682673,58.3697666 57.1226649,58.7039834 60.6882312,59.3724172 C60.7163758,59.3724172 60.7436408,59.3812123 60.7709059,59.3900075 C60.8817252,59.6714533 60.9987011,59.9528991 61.1227131,60.2255497 C61.0242071,60.4278389 60.8148818,60.5685617 60.58093,60.5685617 C60.5439902,60.5685617 60.5061709,60.5597666 60.4683517,60.5597666 C56.9749059,59.9089232 53.3952673,59.5835015 49.8270625,59.5835015 C44.1972673,59.5835015 38.6017733,60.3926581 33.1936167,61.993381 L33.0229902,62.0197666" id="Fill-316" fill="#E7E6E6"></path>
                        <path d="M61.1227131,60.2255497 C60.9987011,59.9528991 60.8817252,59.6714533 60.7709059,59.3900075 C61.0514721,59.4867545 61.2273758,59.7682003 61.1719661,60.0760316 C61.1614119,60.1288027 61.1447011,60.1727786 61.1227131,60.2255497" id="Fill-317" fill="#D7D7D9"></path>
                        <path d="M33.0229902,68.8624172 C32.7617733,68.8624172 32.5216649,68.6865136 32.4442673,68.4314533 C32.3501589,68.1060316 32.5322191,67.7718148 32.8506047,67.6750678 C38.3704601,66.0391642 44.0811709,65.2124172 49.8270625,65.2124172 C53.0962312,65.2124172 56.3847492,65.4850678 59.6029059,66.0215738 C59.6873396,66.030369 59.7638577,66.0655497 59.8315806,66.1095256 L58.7550505,67.103381 C55.8113035,66.6460316 52.8103878,66.4173569 49.8270625,66.4173569 C44.1972673,66.4173569 38.6017733,67.2353087 33.1936167,68.8360316 L33.0229902,68.8624172" id="Fill-318" fill="#E7E6E6"></path>
                        <path d="M59.509677,67.2177184 C59.4753758,67.2177184 59.440195,67.2177184 59.4050143,67.2089232 C59.1886529,67.1737425 58.9722914,67.1385617 58.7550505,67.103381 L59.8315806,66.1095256 C60.0277131,66.2326581 60.1402914,66.470128 60.0989541,66.7075979 C60.0505806,67.006634 59.7999179,67.2177184 59.509677,67.2177184" id="Fill-319" fill="#D7D7D9"></path>
                        <path d="M33.0229902,75.6962726 C32.7617733,75.6962726 32.5216649,75.5291642 32.4442673,75.2653087 C32.3501589,74.9486822 32.5322191,74.6144654 32.8506047,74.5177184 C38.3704601,72.8818148 44.0811709,72.0550678 49.8270625,72.0550678 C50.9880264,72.0550678 52.1595444,72.0902485 53.3108336,72.1518148 L52.0715926,73.3039834 C51.3248818,73.2775979 50.5728938,73.2600075 49.8270625,73.2600075 C44.1972673,73.2600075 38.6017733,74.0691642 33.1936167,75.669887 L33.0229902,75.6962726" id="Fill-320" fill="#E7E6E6"></path>
                        <path d="M53.2721348,73.3567545 L53.2431107,73.3567545 C52.8543637,73.3391642 52.4638577,73.3215738 52.0715926,73.3039834 L53.3108336,72.1518148 L53.3134721,72.1518148 C53.64593,72.1694051 53.9001107,72.4596461 53.8807613,72.793863 C53.8622914,73.1104895 53.596677,73.3567545 53.2721348,73.3567545" id="Fill-321" fill="#D7D7D9"></path>
                        <path d="M69.9724239,76.7956702 L69.7666167,76.7604895 C67.1693998,75.8194051 64.4930264,75.0630196 61.8122553,74.500128 C61.67593,74.4737425 61.5607131,74.3945858 61.4771589,74.2978389 L62.2546529,73.3567545 C64.9248697,73.9284413 67.58893,74.693622 70.1773517,75.6259111 C70.4904601,75.7402485 70.6522914,76.0832605 70.5397131,76.399887 C70.4500023,76.6461521 70.218689,76.7956702 69.9724239,76.7956702" id="Fill-322" fill="#E7E6E6"></path>
                        <path d="M61.4771589,74.2978389 C61.360183,74.1659111 61.3056529,73.9724172 61.3452312,73.7877184 C61.4050384,73.4974774 61.6565806,73.3039834 61.9353878,73.3039834 C61.9767252,73.3039834 62.0180625,73.3127786 62.0593998,73.3215738 C62.1244842,73.330369 62.1895685,73.3479593 62.2546529,73.3567545 L61.4771589,74.2978389" id="Fill-323" fill="#D7D7D9"></path>
                        <path d="M76.1932553,62.6090437 C75.8599179,62.6090437 75.5899059,62.3451883 75.5899059,62.0109714 L75.5899059,42.3537425 C75.5899059,42.0195256 75.8599179,41.746875 76.1932553,41.746875 C76.5265926,41.746875 76.7966047,42.0195256 76.7966047,42.3537425 L76.7966047,62.0109714 C76.7966047,62.3451883 76.5265926,62.6090437 76.1932553,62.6090437" id="Fill-324" fill="#E7E6E6"></path>
                        <path d="M119.3644,41.5006099 L119.192894,41.4742244 C113.785617,39.8735015 108.190123,39.0643449 102.560328,39.0643449 C99.6288938,39.0643449 96.6772312,39.2842244 93.7871348,39.7239834 C93.7563517,39.7239834 93.7255685,39.7327786 93.6947854,39.7327786 C93.4001468,39.7327786 93.1459661,39.5128991 93.1002312,39.213863 C93.0500986,38.8884413 93.2761348,38.5806099 93.6059541,38.5278389 C96.5558577,38.0792846 99.5682071,37.8594051 102.560328,37.8594051 C108.306219,37.8594051 114.01693,38.6861521 119.535906,40.3220557 C119.855171,40.4188027 120.038111,40.7530196 119.944002,41.0696461 C119.865725,41.3335015 119.625617,41.5006099 119.3644,41.5006099" id="Fill-325" fill="#E7E6E6"></path>
                        <path d="M119.3644,48.3432605 L119.192894,48.316875 C113.784737,46.7161521 108.157581,45.9069955 102.53746,45.9069955 C100.943773,45.9069955 99.3518456,45.9685617 97.7643155,46.1004895 L97.7203396,46.1004895 C97.4072312,46.1004895 97.1389782,45.8630196 97.1125926,45.5463931 C97.0862071,45.2121762 97.3342312,44.9219352 97.66493,44.8955497 C99.2850023,44.763622 100.93234,44.6932605 102.560328,44.6932605 C108.30446,44.6932605 114.01605,45.5200075 119.535906,47.1647063 C119.855171,47.2526581 120.038111,47.586875 119.944002,47.9122967 C119.865725,48.1761521 119.625617,48.3432605 119.3644,48.3432605" id="Fill-326" fill="#E7E6E6"></path>
                        <path d="M113.541111,52.9695256 L113.429412,52.9519352 C109.857689,52.2747063 106.195376,51.9404895 102.543617,51.9404895 C100.946412,51.9404895 99.3509661,52.0020557 97.7643155,52.1339834 L97.7150625,52.1339834 L97.7133035,52.1339834 C97.7080264,51.7294051 97.690436,51.3248268 97.6614119,50.9290437 L97.66493,50.9290437 C99.2806047,50.797116 100.905954,50.7355497 102.533062,50.7355497 C106.263099,50.7355497 110.003689,51.0785617 113.652809,51.773381 C113.98087,51.8349473 114.195472,52.1515738 114.133906,52.4769955 C114.079376,52.7672364 113.826075,52.9695256 113.541111,52.9695256" id="Fill-327" fill="#E7E6E6"></path>
                        <path d="M97.7133035,52.1339834 C97.4028336,52.1339834 97.1389782,51.8965136 97.1125926,51.579887 C97.0862071,51.2456702 97.3315926,50.9554292 97.6614119,50.9290437 C97.690436,51.3248268 97.7080264,51.7294051 97.7133035,52.1339834" id="Fill-328" fill="#D7D7D9"></path>
                        <path d="M119.3644,62.0197666 L119.192894,61.993381 C113.784737,60.3926581 108.166376,59.5835015 102.53746,59.5835015 C100.945532,59.5835015 99.3527252,59.6450678 97.763436,59.7769955 L97.7185806,59.7769955 C97.4063517,59.7769955 97.1389782,59.5395256 97.1125926,59.2228991 C97.0862071,58.8886822 97.3342312,58.5984413 97.6658095,58.5720557 C99.2867613,58.440128 100.911231,58.3785617 102.534822,58.3785617 C108.280713,58.3785617 114.015171,59.2053087 119.535906,60.8412123 C119.855171,60.9291642 120.038111,61.2721762 119.944002,61.5888027 C119.865725,61.8526581 119.625617,62.0197666 119.3644,62.0197666" id="Fill-329" fill="#E7E6E6"></path>
                        <path d="M119.3644,68.8624172 L119.192894,68.8360316 C113.785617,67.2353087 108.190123,66.4173569 102.560328,66.4173569 C99.2067252,66.4173569 95.8364119,66.7075979 92.5426167,67.2792846 C92.5083155,67.2880798 92.4740143,67.2880798 92.4397131,67.2880798 C92.1512312,67.2880798 91.8961709,67.0857907 91.8451589,66.7955497 C91.7879902,66.4613328 92.0078697,66.1535015 92.3368095,66.0919352 C95.697448,65.5114533 99.1381227,65.2124172 102.560328,65.2124172 C108.306219,65.2124172 114.01693,66.0391642 119.535906,67.6750678 C119.855171,67.7718148 120.038111,68.1060316 119.944002,68.4314533 C119.865725,68.6865136 119.625617,68.8624172 119.3644,68.8624172" id="Fill-330" fill="#E7E6E6"></path>
                        <path d="M82.4158456,76.7956702 C82.1687011,76.7956702 81.9365083,76.6461521 81.8485565,76.399887 C81.7350986,76.0832605 81.89693,75.7402485 82.2109179,75.6259111 C88.7694842,73.2600075 95.6156529,72.0550678 102.560328,72.0550678 C104.76352,72.0550678 106.985183,72.1782003 109.165508,72.4156702 C109.496207,72.4508509 109.734556,72.749887 109.698496,73.0841039 C109.663316,73.3919352 109.398581,73.6206099 109.099544,73.6206099 L109.031822,73.6206099 C106.896352,73.3831401 104.719544,73.2600075 102.560328,73.2600075 C95.7563758,73.2600075 89.0474119,74.4385617 82.6207733,76.7604895 L82.4158456,76.7956702" id="Fill-331" fill="#E7E6E6"></path>
                        <path d="M82.4158456,49.4426581 C82.1687011,49.4426581 81.9365083,49.2843449 81.8485565,49.0380798 C81.7350986,48.7302485 81.89693,48.3784413 82.2109179,48.2728991 C84.5170143,47.4373569 86.8925926,46.7337425 89.2725685,46.1884413 C89.3183035,46.1796461 89.3640384,46.1796461 89.4088938,46.1796461 C89.6824239,46.1796461 89.9313276,46.3643449 89.9955324,46.6457907 C90.0694119,46.9712123 89.8662432,47.296634 89.5417011,47.3669955 C87.2092191,47.9035015 84.8811348,48.5895256 82.6207733,49.4074774 L82.4158456,49.4426581" id="Fill-332" fill="#E7E6E6"></path>
                        <path d="M82.4158456,56.1357907 C82.1687011,56.1357907 81.9365083,55.9862726 81.8485565,55.7400075 C81.7350986,55.423381 81.89693,55.080369 82.2109179,54.9660316 C84.5170143,54.1304895 86.8925926,53.4356702 89.2725685,52.890369 C89.3183035,52.8815738 89.3640384,52.8727786 89.4088938,52.8727786 C89.6824239,52.8727786 89.9313276,53.0662726 89.9955324,53.3477184 C90.0694119,53.6643449 89.8662432,53.9897666 89.5417011,54.0689232 C87.2092191,54.596634 84.8811348,55.2826581 82.6207733,56.1006099 L82.4158456,56.1357907" id="Fill-333" fill="#E7E6E6"></path>
                        <path d="M82.4158456,62.8377184 C82.1687011,62.8377184 81.9365083,62.6794051 81.8485565,62.4331401 C81.7350986,62.1253087 81.89693,61.7735015 82.2109179,61.6679593 C83.3525324,61.2457907 84.5275685,60.8675979 85.7008456,60.5157907 C85.7588938,60.4982003 85.8178215,60.4982003 85.8749902,60.4982003 C86.1370866,60.4982003 86.373677,60.6653087 86.4510745,60.9291642 C86.545183,61.2457907 86.3622432,61.5800075 86.0429782,61.6767545 C84.8925685,62.0197666 83.7403998,62.3891642 82.6207733,62.8025377 L82.4158456,62.8377184" id="Fill-334" fill="#E7E6E6"></path>
                        <path d="M126.909785,93.0315738 L25.4776047,93.0315738 C24.9780384,93.0315738 24.5725806,92.6269955 24.5725806,92.1256702 C24.5725806,91.6243449 24.9780384,91.2197666 25.4776047,91.2197666 L126.909785,91.2197666 C127.409352,91.2197666 127.814809,91.6243449 127.814809,92.1256702 C127.814809,92.6269955 127.409352,93.0315738 126.909785,93.0315738" id="Fill-335" fill="#525656"></path>
                        <path d="M76.1932553,33.426634 C75.693689,33.426634 75.2882312,33.0220557 75.2882312,32.5216099 L75.2882312,29.7669593 C75.2882312,29.2673931 75.693689,28.8619352 76.1932553,28.8619352 C76.6928215,28.8619352 77.0982794,29.2673931 77.0982794,29.7669593 L77.0982794,32.5216099 C77.0982794,33.0220557 76.6928215,33.426634 76.1932553,33.426634" id="Fill-336" fill="#525656"></path>
                        <path d="M76.1932553,93.0315738 C75.693689,93.0315738 75.2882312,92.6269955 75.2882312,92.1256702 L75.2882312,72.0902485 C75.2882312,71.5889232 75.693689,71.1843449 76.1932553,71.1843449 C76.6928215,71.1843449 77.0982794,71.5889232 77.0982794,72.0902485 L77.0982794,92.1256702 C77.0982794,92.6269955 76.6928215,93.0315738 76.1932553,93.0315738" id="Fill-337" fill="#525656"></path>
                        <path d="M78.8203758,33.6641039 C74.062183,33.6641039 69.3057492,35.4759111 65.6830143,39.0995256 C58.440183,46.3379593 58.440183,58.1235015 65.6830143,65.3707304 C72.9284842,72.6179593 84.7149059,72.6179593 91.9577372,65.3707304 C99.2005685,58.1235015 99.2005685,46.3379593 91.9577372,39.0995256 C88.3358818,35.4759111 83.577689,33.6641039 78.8203758,33.6641039 Z M78.8203758,72.6179593 C73.5995565,72.6179593 68.3787372,70.6302485 64.4033155,66.6548268 C56.4533517,58.7039834 56.4533517,45.7662726 64.4033155,37.8154292 C72.3541589,29.8689834 85.2892312,29.869863 93.237436,37.8154292 C101.1874,45.7662726 101.1874,58.7039834 93.237436,66.6548268 C89.2628938,70.6302485 84.0420745,72.6179593 78.8203758,72.6179593 L78.8203758,72.6179593 Z" id="Fill-338" fill="#B5B6BD"></path>
                        <path d="M78.8203758,37.9649473 C75.0085444,37.9649473 71.4236288,39.4425377 68.7279059,42.1426581 C66.0330625,44.8427786 64.548436,48.4224172 64.548436,52.2395256 C64.548436,56.0478389 66.0330625,59.6274774 68.7279059,62.3275979 C71.4236288,65.0189232 75.0085444,66.5053087 78.8203758,66.5053087 C82.6330866,66.5053087 86.2171227,65.0189232 88.9128456,62.3275979 C94.4775565,56.7602485 94.4775565,47.7100075 88.9128456,42.1426581 C86.2171227,39.4425377 82.6330866,37.9649473 78.8203758,37.9649473 Z M78.8203758,67.7190437 C74.6857613,67.7190437 70.7982914,66.1007304 67.8756529,63.1807304 C64.9512553,60.2607304 63.3408577,56.3732605 63.3408577,52.2395256 C63.3408577,48.0969955 64.9512553,44.2095256 67.8756529,41.2895256 C70.7982914,38.3695256 74.6857613,36.7512123 78.8203758,36.7512123 C82.9549902,36.7512123 86.8424601,38.3695256 89.7659782,41.2895256 C95.8012312,47.3230196 95.8012312,57.1472364 89.7659782,63.1807304 C86.8424601,66.1007304 82.9549902,67.7190437 78.8203758,67.7190437 L78.8203758,67.7190437 Z" id="Fill-339" fill="#B5B6BD"></path>
                        <path d="M69.7736529,74.3594051 C69.5423396,74.3594051 69.3110264,74.2714533 69.1333637,74.0867545 L56.9793035,61.9318148 C56.6257372,61.5800075 56.6257372,61.0083208 56.9793035,60.6565136 C57.3328697,60.3047063 57.905436,60.3047063 58.2598818,60.6565136 L70.413942,72.8114533 C70.7675083,73.1632605 70.7675083,73.7349473 70.413942,74.0867545 C70.2371589,74.2714533 70.0058456,74.3594051 69.7736529,74.3594051" id="Fill-340" fill="#B5B6BD"></path>
                        <path d="M52.5650023,83.990128 C51.1199541,83.990128 49.7795685,83.4448268 48.7707613,82.433381 C47.7206167,81.3867545 47.1691589,79.9795256 47.2157733,78.4667545 C47.2632673,76.8924172 47.9809541,75.3796461 49.1823758,74.3154292 L60.0268336,64.9925377 C60.4067854,64.667116 60.9775926,64.7110919 61.3030143,65.0892846 C61.6293155,65.4674774 61.5862191,66.0391642 61.2062673,66.3645858 L50.3714842,75.6786822 C49.5526529,76.4086822 49.0583637,77.4465136 49.024942,78.5195256 C48.9932794,79.5309714 49.3582794,80.4632605 50.0504601,81.1580798 C50.7452794,81.8528991 51.6828456,82.2222967 52.698689,82.1783208 C53.7813758,82.1431401 54.8218456,81.6418148 55.5527252,80.8062726 L64.7507252,69.9178389 C65.0726288,69.5396461 65.6443155,69.4956702 66.0251468,69.8122967 C66.4068577,70.1377184 66.4552312,70.7094051 66.132448,71.0875979 L56.9265324,81.9848268 C55.8579179,83.2073569 54.3433878,83.9373569 52.7602553,83.990128 L52.5650023,83.990128" id="Fill-341" fill="#B5B6BD"></path>
                        <path d="M137.106918,122.073261 C136.607352,122.073261 136.201894,121.659887 136.201894,121.167357 L136.201894,114.667718 L138.011942,114.667718 L138.011942,121.167357 C138.011942,121.659887 137.606484,122.073261 137.106918,122.073261 M138.011942,112.864706 L136.201894,112.864706 L136.201894,106.373863 C136.201894,105.872538 136.607352,105.467959 137.106918,105.467959 C137.606484,105.467959 138.011942,105.872538 138.011942,106.373863 L138.011942,112.864706" id="Fill-342" fill="#B2DACE"></path>
                        <path d="M144.504544,114.667718 L129.710171,114.667718 C129.209725,114.667718 128.805147,114.26314 128.805147,113.77061 C128.805147,113.269285 129.209725,112.864706 129.710171,112.864706 L144.504544,112.864706 C145.00499,112.864706 145.409569,113.269285 145.409569,113.77061 C145.409569,114.26314 145.00499,114.667718 144.504544,114.667718" id="Fill-343" fill="#B2DACE"></path>
                        <path d="M8.92947214,18.8626943 C8.42990587,18.8626943 8.02444804,18.4572364 8.02444804,17.9576702 L8.02444804,11.4650678 L9.83449623,11.4650678 L9.83449623,17.9576702 C9.83449623,18.4572364 9.42991792,18.8626943 8.92947214,18.8626943 M9.83449623,9.65501958 L8.02444804,9.65501958 L8.02444804,3.16241717 C8.02444804,2.6628509 8.42990587,2.25739307 8.92947214,2.25739307 C9.42991792,2.25739307 9.83449623,2.6628509 9.83449623,3.16241717 L9.83449623,9.65501958" id="Fill-344" fill="#B2DACE"></path>
                        <path d="M16.3270986,11.4650678 L1.53272515,11.4650678 C1.03315889,11.4650678 0.627701054,11.0596099 0.627701054,10.5600437 C0.627701054,10.0595979 1.03315889,9.65501958 1.53272515,9.65501958 L16.3270986,9.65501958 C16.8266649,9.65501958 17.2321227,10.0595979 17.2321227,10.5600437 C17.2321227,11.0596099 16.8266649,11.4650678 16.3270986,11.4650678" id="Fill-345" fill="#B2DACE"></path>
                        <path d="M100.84087,10.0499232 C100.341303,10.0499232 99.9358456,9.64446536 99.9358456,9.14401958 L99.9358456,6.3515497 L101.745894,6.3515497 L101.745894,9.14401958 C101.745894,9.64446536 101.340436,10.0499232 100.84087,10.0499232 M101.745894,4.54150151 L99.9358456,4.54150151 L99.9358456,1.74727259 C99.9358456,1.24770633 100.341303,0.842248494 100.84087,0.842248494 C101.340436,0.842248494 101.745894,1.24770633 101.745894,1.74727259 L101.745894,4.54150151" id="Fill-346" fill="#B2DACE"></path>
                        <path d="M104.540123,6.3515497 L97.1424962,6.3515497 C96.64293,6.3515497 96.2374721,5.94521235 96.2374721,5.4465256 C96.2374721,4.94695934 96.64293,4.54150151 97.1424962,4.54150151 L104.540123,4.54150151 C105.039689,4.54150151 105.444267,4.94695934 105.444267,5.4465256 C105.444267,5.94521235 105.039689,6.3515497 104.540123,6.3515497" id="Fill-347" fill="#B2DACE"></path>
                        <path d="M41.4241468,129.250128 C40.9245806,129.250128 40.5191227,128.84555 40.5191227,128.344224 L40.5191227,125.556152 L42.3291709,125.556152 L42.3291709,128.344224 C42.3291709,128.84555 41.9245926,129.250128 41.4241468,129.250128 M42.3291709,123.744345 L40.5191227,123.744345 L40.5191227,120.947477 C40.5191227,120.446152 40.9245806,120.041574 41.4241468,120.041574 C41.9245926,120.041574 42.3291709,120.446152 42.3291709,120.947477 L42.3291709,123.744345" id="Fill-348" fill="#B2DACE"></path>
                        <path d="M45.1233998,125.556152 L37.7266529,125.556152 C37.2262071,125.556152 36.8216288,125.151574 36.8216288,124.650248 C36.8216288,124.148923 37.2262071,123.744345 37.7266529,123.744345 L45.1233998,123.744345 C45.6229661,123.744345 46.0284239,124.148923 46.0284239,124.650248 C46.0284239,125.151574 45.6229661,125.556152 45.1233998,125.556152" id="Fill-349" fill="#B2DACE"></path>
                        <path d="M21.5716649,114.166393 C21.237448,114.166393 20.9683155,113.893742 20.9683155,113.559526 L20.9683155,112.592056 L22.1750143,112.592056 L22.1750143,113.559526 C22.1750143,113.893742 21.9050023,114.166393 21.5716649,114.166393 M22.1750143,111.378321 L20.9683155,111.378321 L20.9683155,110.410851 C20.9683155,110.076634 21.237448,109.803983 21.5716649,109.803983 C21.9050023,109.803983 22.1750143,110.076634 22.1750143,110.410851 L22.1750143,111.378321" id="Fill-350" fill="#B2DACE"></path>
                        <path d="M23.1495203,112.592056 L19.99293,112.592056 C19.6587131,112.592056 19.3895806,112.319405 19.3895806,111.985188 C19.3895806,111.650971 19.6587131,111.378321 19.99293,111.378321 L23.1495203,111.378321 C23.4828577,111.378321 23.7528697,111.650971 23.7528697,111.985188 C23.7528697,112.319405 23.4828577,112.592056 23.1495203,112.592056" id="Fill-351" fill="#B2DACE"></path>
                        <path d="M142.925809,18.5117666 C142.592472,18.5117666 142.32246,18.2417545 142.32246,17.9084172 L142.32246,16.9339111 L143.529159,16.9339111 L143.529159,17.9084172 C143.529159,18.2417545 143.260026,18.5117666 142.925809,18.5117666 M143.529159,15.7272123 L142.32246,15.7272123 L142.32246,14.7509473 C142.32246,14.4184895 142.592472,14.1484774 142.925809,14.1484774 C143.260026,14.1484774 143.529159,14.4184895 143.529159,14.7509473 L143.529159,15.7272123" id="Fill-352" fill="#B2DACE"></path>
                        <path d="M144.504544,16.9339111 L141.347954,16.9339111 C141.014617,16.9339111 140.744605,16.6638991 140.744605,16.3296822 C140.744605,15.9972244 141.014617,15.7272123 141.347954,15.7272123 L144.504544,15.7272123 C144.838761,15.7272123 145.107894,15.9972244 145.107894,16.3296822 C145.107894,16.6638991 144.838761,16.9339111 144.504544,16.9339111" id="Fill-353" fill="#B2DACE"></path>
                    </g>
                </g>
            </g>
        </g>
    </g>
</svg>