<?xml version="1.0" encoding="UTF-8"?>
<svg width="130px" height="141px" viewBox="0 0 130 141" version="1.1" xmlns="http://www.w3.org/2000/svg" xmlns:xlink="http://www.w3.org/1999/xlink">
    <!-- Generator: Sketch 42 (36781) - http://www.bohemiancoding.com/sketch -->
    <title>Illo / Writing</title>
    <desc>Created with Sketch.</desc>
    <defs></defs>
    <g id="Homepage" stroke="none" stroke-width="1" fill="none" fill-rule="evenodd">
        <g id="Homepage---Desktop-Colour" transform="translate(-988.000000, -1178.000000)">
            <g id="Group-7" transform="translate(0.000000, 1024.000000)">
                <g id="Illo-/-Published-Colour" transform="translate(978.000000, 150.000000)">
                    <g id="Group-23" transform="translate(10.000000, 4.251701)">
                        <path d="M109.043193,108.099532 C106.579384,110.01858 104.988431,113.007696 104.988431,116.377083 C104.988431,119.737628 106.579384,122.726743 109.043193,124.645791 L109.043193,108.099532" id="Fill-354" fill="#E8E8E9"></path>
                        <path d="M46.5795196,123.947151 L35.0165944,123.947151 C31.0440774,123.947151 27.8250298,120.728104 27.8250298,116.757355 C27.8250298,112.786607 31.0440774,109.56756 35.0165944,109.56756 L108.080132,109.56756 C103.634486,113.334906 103.634486,120.188648 108.080132,123.947151 L60.3851658,123.947151 L60.3851658,112.76892 L46.5034651,112.76892 L46.5795196,123.947151" id="Fill-355" fill="#FCE4A3"></path>
                        <polyline id="Fill-356" fill="#EEA099" points="60.2339413 131.579124 53.6357781 126.113818 47.0376148 131.579124 47.0376148 113.379124 60.2339413 113.379124 60.2339413 131.579124"></polyline>
                        <path d="M94.628227,53.198852 L94.628227,59.2566752 C94.628227,59.8580357 94.7104719,60.4593963 94.87054,61.0342262 L99.6389753,78.0845663 C100.072309,79.6410289 101.702173,80.5253827 103.241832,80.0478316 L109.043193,78.2525935 L109.043193,74.6621173 L103.264826,76.5192602 L94.628227,53.198852" id="Fill-357" fill="#E8E8E9"></path>
                        <path d="M107.913873,124.477764 L60.3851658,124.477764 C59.8837372,124.477764 59.4760502,124.070961 59.4760502,123.566879 C59.4760502,123.062798 59.8837372,122.655995 60.3851658,122.655995 L105.797615,122.655995 C104.426866,120.8696 103.66986,118.66756 103.66986,116.36824 C103.66986,113.326063 105.002581,110.451913 107.325778,108.488648 C107.709588,108.161437 108.284418,108.214498 108.608091,108.59477 C108.933533,108.975043 108.885778,109.549872 108.501969,109.877083 C106.587343,111.495451 105.48986,113.865519 105.48986,116.36824 C105.48986,118.879804 106.587343,121.249872 108.501969,122.86824 C108.792921,123.115859 108.900812,123.522662 108.768159,123.876403 C108.637275,124.238988 108.295914,124.477764 107.913873,124.477764" id="Fill-358" fill="#525656"></path>
                        <path d="M47.0376148,124.477764 L35.0165944,124.477764 C30.5488393,124.477764 26.9150298,120.84307 26.9150298,116.36824 C26.9150298,111.902253 30.5488393,108.26756 35.0165944,108.26756 L108.217207,108.26756 L108.217207,74.1403486 C108.217207,73.636267 108.624894,73.2294643 109.127207,73.2294643 C109.630404,73.2294643 110.038091,73.636267 110.038091,74.1403486 L110.038091,109.178444 C110.038091,109.682526 109.630404,110.089328 109.127207,110.089328 L35.0165944,110.089328 C31.5534651,110.089328 28.7350298,112.910417 28.7350298,116.36824 C28.7350298,119.834906 31.5534651,122.655995 35.0165944,122.655995 L47.0376148,122.655995 C47.5408121,122.655995 47.9484991,123.062798 47.9484991,123.566879 C47.9484991,124.070961 47.5408121,124.477764 47.0376148,124.477764" id="Fill-359" fill="#525656"></path>
                        <path d="M27.8250298,117.279124 C27.3227168,117.279124 26.9141454,116.872321 26.9141454,116.36824 L26.9141454,25.6653827 C26.9141454,21.1993963 30.5479549,17.5655867 35.0148257,17.5655867 L109.127207,17.5655867 C109.630404,17.5655867 110.038091,17.9732738 110.038091,18.4755867 L110.038091,46.4158588 C110.038091,46.9199405 109.630404,47.3267432 109.127207,47.3267432 C108.624894,47.3267432 108.217207,46.9199405 108.217207,46.4158588 L108.217207,19.3864711 L35.0148257,19.3864711 C31.5516964,19.3864711 28.7350298,22.2022534 28.7350298,25.6653827 L28.7350298,116.36824 C28.7350298,116.872321 28.3273427,117.279124 27.8250298,117.279124" id="Fill-360" fill="#525656"></path>
                        <path d="M35.2898597,21.2064711 C34.9546896,21.2064711 34.6840774,20.9349745 34.6840774,20.5998044 L34.6840774,18.4755867 C34.6840774,18.141301 34.9546896,17.8698044 35.2898597,17.8698044 C35.6259141,17.8698044 35.8974107,18.141301 35.8974107,18.4755867 L35.8974107,20.5998044 C35.8974107,20.9349745 35.6259141,21.2064711 35.2898597,21.2064711" id="Fill-361" fill="#525656"></path>
                        <path d="M35.2898597,30.2755187 C34.9546896,30.2755187 34.6840774,30.0040221 34.6840774,29.668852 L34.6840774,25.436335 C34.6840774,25.101165 34.9546896,24.8296684 35.2898597,24.8296684 C35.6259141,24.8296684 35.8974107,25.101165 35.8974107,25.436335 L35.8974107,29.668852 C35.8974107,30.0040221 35.6259141,30.2755187 35.2898597,30.2755187 Z M35.2898597,39.3410289 C34.9546896,39.3410289 34.6840774,39.0757228 34.6840774,38.7396684 L34.6840774,34.5036139 C34.6840774,34.1675595 34.9546896,33.9022534 35.2898597,33.9022534 C35.6259141,33.9022534 35.8974107,34.1675595 35.8974107,34.5036139 L35.8974107,38.7396684 C35.8974107,39.0757228 35.6259141,39.3410289 35.2898597,39.3410289 Z M35.2898597,48.4144983 C34.9546896,48.4144983 34.6840774,48.1403486 34.6840774,47.8042942 L34.6840774,43.5770833 C34.6840774,43.2410289 34.9546896,42.9668793 35.2898597,42.9668793 C35.6259141,42.9668793 35.8974107,43.2410289 35.8974107,43.5770833 L35.8974107,47.8042942 C35.8974107,48.1403486 35.6259141,48.4144983 35.2898597,48.4144983 Z M35.2898597,57.4791241 C34.9546896,57.4791241 34.6840774,57.213818 34.6840774,56.8777636 L34.6840774,52.6417092 C34.6840774,52.3056548 34.9546896,52.0403486 35.2898597,52.0403486 C35.6259141,52.0403486 35.8974107,52.3056548 35.8974107,52.6417092 L35.8974107,56.8777636 C35.8974107,57.213818 35.6259141,57.4791241 35.2898597,57.4791241 Z M35.2898597,66.5525935 C34.9546896,66.5525935 34.6840774,66.2784439 34.6840774,65.9423895 L34.6840774,61.7151786 C34.6840774,61.3791241 34.9546896,61.1049745 35.2898597,61.1049745 C35.6259141,61.1049745 35.8974107,61.3791241 35.8974107,61.7151786 L35.8974107,65.9423895 C35.8974107,66.2784439 35.6259141,66.5525935 35.2898597,66.5525935 Z M35.2898597,75.6172194 C34.9546896,75.6172194 34.6840774,75.3519133 34.6840774,75.0158588 L34.6840774,70.7798044 C34.6840774,70.44375 34.9546896,70.1784439 35.2898597,70.1784439 C35.6259141,70.1784439 35.8974107,70.44375 35.8974107,70.7798044 L35.8974107,75.0158588 C35.8974107,75.3519133 35.6259141,75.6172194 35.2898597,75.6172194 Z M35.2898597,84.6906888 C34.9546896,84.6906888 34.6840774,84.4165391 34.6840774,84.0804847 L34.6840774,79.8532738 C34.6840774,79.5172194 34.9546896,79.2430697 35.2898597,79.2430697 C35.6259141,79.2430697 35.8974107,79.5172194 35.8974107,79.8532738 L35.8974107,84.0804847 C35.8974107,84.4165391 35.6259141,84.6906888 35.2898597,84.6906888 Z M35.2898597,93.7553146 C34.9546896,93.7553146 34.6840774,93.4900085 34.6840774,93.1539541 L34.6840774,88.9178997 C34.6840774,88.5818452 34.9546896,88.3165391 35.2898597,88.3165391 C35.6259141,88.3165391 35.8974107,88.5818452 35.8974107,88.9178997 L35.8974107,93.1539541 C35.8974107,93.4900085 35.6259141,93.7553146 35.2898597,93.7553146 Z M35.2898597,102.828784 C34.9546896,102.828784 34.6840774,102.554634 34.6840774,102.21858 L34.6840774,97.991369 C34.6840774,97.6553146 34.9546896,97.381165 35.2898597,97.381165 C35.6259141,97.381165 35.8974107,97.6553146 35.8974107,97.991369 L35.8974107,102.21858 C35.8974107,102.554634 35.6259141,102.828784 35.2898597,102.828784 L35.2898597,102.828784 Z" id="Fill-362" fill="#525656"></path>
                        <path d="M35.2898597,109.788648 C34.9546896,109.788648 34.6840774,109.514498 34.6840774,109.178444 L34.6840774,107.055995 C34.6840774,106.71994 34.9546896,106.454634 35.2898597,106.454634 C35.6259141,106.454634 35.8974107,106.71994 35.8974107,107.055995 L35.8974107,109.178444 C35.8974107,109.514498 35.6259141,109.788648 35.2898597,109.788648" id="Fill-363" fill="#525656"></path>
                        <path d="M60.2339413,132.481165 C60.0261182,132.481165 59.8209481,132.410417 59.6538053,132.277764 L53.6357781,127.298852 L47.6177509,132.277764 C47.3453699,132.498852 46.9695196,132.54307 46.6502679,132.401573 C46.3319005,132.251233 46.1276148,131.924022 46.1276148,131.570281 L46.1276148,113.379124 C46.1276148,112.875043 46.5353019,112.46824 47.0376148,112.46824 C47.5399277,112.46824 47.9476148,112.875043 47.9476148,113.379124 L47.9476148,129.642389 L53.055642,125.415179 C53.3925808,125.132185 53.8798597,125.132185 54.2159141,125.415179 L59.3239413,129.642389 L59.3239413,113.379124 C59.3239413,112.875043 59.7316284,112.46824 60.2339413,112.46824 C60.7371386,112.46824 61.1448257,112.875043 61.1448257,113.379124 L61.1448257,131.570281 C61.1448257,131.924022 60.94054,132.251233 60.6221726,132.401573 C60.4974787,132.454634 60.36571,132.481165 60.2339413,132.481165" id="Fill-364" fill="#525656"></path>
                        <path d="M100.430472,113.379124 L37.0267304,113.379124 C36.690676,113.379124 36.4200638,113.104974 36.4200638,112.76892 C36.4200638,112.432866 36.690676,112.16756 37.0267304,112.16756 L100.430472,112.16756 C100.765642,112.16756 101.037139,112.432866 101.037139,112.76892 C101.037139,113.104974 100.765642,113.379124 100.430472,113.379124" id="Fill-365" fill="#525656"></path>
                        <path d="M104.272989,116.978444 L90.8246216,116.978444 C90.4885672,116.978444 90.2179549,116.704294 90.2179549,116.36824 C90.2179549,116.041029 90.4885672,115.766879 90.8246216,115.766879 L104.272989,115.766879 C104.608159,115.766879 104.88054,116.041029 104.88054,116.36824 C104.88054,116.704294 104.608159,116.978444 104.272989,116.978444" id="Fill-366" fill="#525656"></path>
                        <path d="M73.7336012,116.978444 L66.9594515,116.978444 C66.6233971,116.978444 66.3519005,116.704294 66.3519005,116.36824 C66.3519005,116.041029 66.6233971,115.766879 66.9594515,115.766879 L73.7336012,115.766879 C74.0696556,115.766879 74.3402679,116.041029 74.3402679,116.36824 C74.3402679,116.704294 74.0696556,116.978444 73.7336012,116.978444" id="Fill-367" fill="#525656"></path>
                        <path d="M99.5717645,120.577764 L72.0153019,120.577764 C71.6801318,120.577764 71.4086352,120.312457 71.4086352,119.976403 C71.4086352,119.640349 71.6801318,119.366199 72.0153019,119.366199 L99.5717645,119.366199 C99.9069345,119.366199 100.178431,119.640349 100.178431,119.976403 C100.178431,120.312457 99.9069345,120.577764 99.5717645,120.577764" id="Fill-368" fill="#525656"></path>
                        <path d="M90.8246216,34.8485119 L51.2842815,34.8485119 C50.7828529,34.8485119 50.3751658,34.4417092 50.3751658,33.9376276 C50.3751658,33.4335459 50.7828529,33.0267432 51.2842815,33.0267432 L90.8246216,33.0267432 C91.3260502,33.0267432 91.7337372,33.4335459 91.7337372,33.9376276 C91.7337372,34.4417092 91.3260502,34.8485119 90.8246216,34.8485119" id="Fill-369" fill="#B5B6BD"></path>
                        <path d="M84.7561862,40.5172194 L57.3518325,40.5172194 C56.8504039,40.5172194 56.4427168,40.1015731 56.4427168,39.606335 C56.4427168,39.1022534 56.8504039,38.6954507 57.3518325,38.6954507 L84.7561862,38.6954507 C85.2584991,38.6954507 85.6661862,39.1022534 85.6661862,39.606335 C85.6661862,40.1015731 85.2584991,40.5172194 84.7561862,40.5172194" id="Fill-370" fill="#E7E6E6"></path>
                        <path d="M109.127207,124.477764 L106.093873,124.477764 C105.59156,124.477764 105.183873,124.070961 105.183873,123.566879 C105.183873,123.062798 105.59156,122.655995 106.093873,122.655995 L108.217207,122.655995 L108.217207,109.178444 C108.217207,108.683206 108.624894,108.26756 109.127207,108.26756 C109.630404,108.26756 110.038091,108.683206 110.038091,109.178444 L110.038091,123.566879 C110.038091,124.070961 109.630404,124.477764 109.127207,124.477764" id="Fill-371" fill="#525656"></path>
                        <path d="M102.700608,52.2791241 C102.564418,52.2791241 102.427343,52.24375 102.298227,52.1818452 C101.847207,51.9607568 101.662377,51.4124575 101.885234,50.9614371 C102.412309,49.9002126 102.498975,48.5206207 102.131969,47.0879677 C101.816254,45.8498724 101.360812,44.4614371 100.383601,43.4798044 C98.0418325,41.1274235 96.4261182,37.9172194 95.710676,34.1852466 C95.133193,31.1802126 95.1252338,27.8196684 95.6867985,23.9143622 L95.7363223,23.5747704 C95.9432611,22.1677636 96.1378189,20.8394643 95.7513563,19.656199 C95.3136012,18.3172874 94.0312883,17.2649065 92.6322406,17.0995323 C91.2296556,16.9323895 89.7395196,17.6531378 88.9993155,18.8505527 C88.7340094,19.2794643 88.1715604,19.4094643 87.7461862,19.1468112 C87.318159,18.8823895 87.185506,18.3225935 87.4499277,17.8945663 C88.5668665,16.0851786 90.7344175,15.0398724 92.8471386,15.2919133 C94.9589753,15.5430697 96.82054,17.0703486 97.4811522,19.0919813 C98.0002679,20.681165 97.7544175,22.358784 97.5377509,23.8391922 L97.488227,24.1734779 C96.9567304,27.8744983 96.9593835,31.038716 97.4979549,33.8403486 C98.1453019,37.2185799 99.5885672,40.1015731 101.672989,42.1974915 C102.959724,43.488648 103.518635,45.1600765 103.894486,46.6369473 C104.370268,48.4852466 104.23673,50.3158588 103.517751,51.766199 C103.358567,52.0845663 103.036662,52.2791241 102.700608,52.2791241" id="Fill-372" fill="#B5B6BD"></path>
                        <path d="M96.520744,52.8627976 L102.925234,74.8301446 L117.953057,70.4525935 L111.548567,48.4852466 L102.072717,43.9485119 L96.520744,52.8627976 Z M102.306186,76.8730017 C102.154077,76.8730017 102.003737,76.8376276 101.867547,76.7580357 C101.656186,76.6430697 101.498771,76.4485119 101.43156,76.2185799 L94.6582951,52.9866071 C94.5857781,52.7389881 94.6229209,52.4648384 94.7591114,52.2525935 L100.957547,42.2947704 C101.202513,41.8968112 101.703941,41.7553146 102.124009,41.9498724 L112.701764,47.0172194 C112.935234,47.1321854 113.109452,47.3355867 113.182853,47.5832058 L119.956118,70.8151786 C120.09673,71.3015731 119.819043,71.8056548 119.336186,71.9471514 L102.56088,76.8376276 C102.476866,76.8641582 102.3902,76.8730017 102.306186,76.8730017 L102.306186,76.8730017 Z" id="Fill-373" fill="#B5B6BD"></path>
                        <path d="M104.069588,48.9804847 C103.898907,48.9804847 103.729111,49.0070153 103.5602,49.051233 C103.098567,49.1838861 102.714758,49.4934099 102.483057,49.9178997 C102.251356,50.3423895 102.197411,50.828784 102.333601,51.288648 C102.468023,51.7573554 102.775778,52.1376276 103.198499,52.3675595 C103.620336,52.5974915 104.108499,52.6505527 104.572785,52.5178997 C105.527887,52.24375 106.078839,51.2355867 105.800268,50.2804847 C105.664962,49.8206207 105.358091,49.4315051 104.934486,49.2015731 C104.664758,49.051233 104.369384,48.9804847 104.069588,48.9804847 Z M104.068703,53.8090561 C102.75986,53.8090561 101.552717,52.951233 101.168023,51.6335459 C100.943397,50.8553146 101.031832,50.0417092 101.420064,49.3342262 C101.807411,48.6267432 102.447683,48.113818 103.222377,47.8838861 C104.81952,47.4240221 106.499792,48.34375 106.964962,49.9444303 C107.190472,50.713818 107.101152,51.5274235 106.713805,52.2349065 C106.325574,52.9423895 105.686186,53.4553146 104.912377,53.6852466 C104.630268,53.7648384 104.347275,53.8090561 104.068703,53.8090561 L104.068703,53.8090561 Z" id="Fill-374" fill="#B5B6BD"></path>
                        <path d="M106.817275,68.6750425 C106.583805,68.6750425 106.355642,68.5866071 106.184962,68.4185799 C105.955914,68.188648 105.867479,67.8525935 105.952377,67.5430697 C106.284894,66.3403486 106.201764,65.0403486 105.718023,63.8818452 L105.118431,62.4491922 C104.812445,61.7151786 104.836322,60.8927296 105.18122,60.1764031 C105.527003,59.4689201 106.164622,58.9383078 106.927819,58.7172194 C108.395846,58.3192602 109.923125,59.1770833 110.330812,60.6451105 C110.420132,60.9634779 110.23088,61.2995323 109.908975,61.3879677 C109.587071,61.4764031 109.251901,61.2906888 109.160812,60.9723214 C108.932649,60.1410289 108.07571,59.6634779 107.252377,59.8934099 C106.824349,60.0083759 106.467955,60.3090561 106.273397,60.7070153 C106.079724,61.1049745 106.066458,61.573682 106.238907,61.9804847 L106.838499,63.4131378 C107.354962,64.651233 107.49469,66.0219813 107.246186,67.3308248 L111.252309,66.2165391 C111.57156,66.1281037 111.908499,66.3226616 111.998703,66.6410289 C112.088023,66.9682398 111.899656,67.2954507 111.576866,67.3927296 L107.056935,68.6485119 C106.978227,68.666199 106.897751,68.6750425 106.817275,68.6750425" id="Fill-375" fill="#B5B6BD"></path>
                        <path d="M105.235166,65.5444303 C104.968975,65.5444303 104.725778,65.3764031 104.650608,65.1022534 C104.560404,64.7838861 104.749656,64.4478316 105.072445,64.3593963 L108.880472,63.2981718 C109.198839,63.2097364 109.536662,63.3954507 109.627751,63.7226616 C109.717071,64.0410289 109.528703,64.3770833 109.20503,64.4655187 L105.397887,65.5267432 L105.235166,65.5444303" id="Fill-376" fill="#B5B6BD"></path>
                        <path d="M91.9468665,19.3864711 L82.7009481,19.3864711 C82.1986352,19.3864711 81.7909481,18.978784 81.7909481,18.4755867 C81.7909481,17.9732738 82.1986352,17.5655867 82.7009481,17.5655867 L91.9468665,17.5655867 C92.4491794,17.5655867 92.8568665,17.9732738 92.8568665,18.4755867 C92.8568665,18.978784 92.4491794,19.3864711 91.9468665,19.3864711" id="Fill-377" fill="#525656"></path>
                        <path d="M121.17122,140.652594 C120.668907,140.652594 120.26122,140.245791 120.26122,139.741709 L120.26122,133.215179 L122.082105,133.215179 L122.082105,139.741709 C122.082105,140.245791 121.674418,140.652594 121.17122,140.652594 M122.082105,131.39341 L120.26122,131.39341 L120.26122,124.866879 C120.26122,124.362798 120.668907,123.955995 121.17122,123.955995 C121.674418,123.955995 122.082105,124.362798 122.082105,124.866879 L122.082105,131.39341" id="Fill-378" fill="#B2DACE"></path>
                        <path d="M128.60952,133.215179 L113.732921,133.215179 C113.230608,133.215179 112.822921,132.808376 112.822921,132.304294 C112.822921,131.800213 113.230608,131.39341 113.732921,131.39341 L128.60952,131.39341 C129.111832,131.39341 129.51952,131.800213 129.51952,132.304294 C129.51952,132.808376 129.111832,133.215179 128.60952,133.215179" id="Fill-379" fill="#B2DACE"></path>
                        <path d="M8.85298895,51.1206207 C8.35067602,51.1206207 7.94210459,50.713818 7.94210459,50.2097364 L7.94210459,43.6832058 L9.76298895,43.6832058 L9.76298895,50.2097364 C9.76298895,50.713818 9.35530187,51.1206207 8.85298895,51.1206207 M9.76298895,41.8614371 L7.94210459,41.8614371 L7.94210459,35.3349065 C7.94210459,34.8308248 8.35067602,34.4240221 8.85298895,34.4240221 C9.35530187,34.4240221 9.76298895,34.8308248 9.76298895,35.3349065 L9.76298895,41.8614371" id="Fill-380" fill="#B2DACE"></path>
                        <path d="M16.2904039,43.6832058 L1.41380527,43.6832058 C0.912376701,43.6832058 0.504689626,43.2764031 0.504689626,42.7723214 C0.504689626,42.2682398 0.912376701,41.8614371 1.41380527,41.8614371 L16.2904039,41.8614371 C16.7927168,41.8614371 17.2004039,42.2682398 17.2004039,42.7723214 C17.2004039,43.2764031 16.7927168,43.6832058 16.2904039,43.6832058" id="Fill-381" fill="#B2DACE"></path>
                        <path d="M102.063873,9.64089286 C101.562445,9.64089286 101.154758,9.23320578 101.154758,8.73089286 L101.154758,5.92218537 L102.973873,5.92218537 L102.973873,8.73089286 C102.973873,9.23320578 102.566186,9.64089286 102.063873,9.64089286 M102.973873,4.10218537 L101.154758,4.10218537 L101.154758,1.29347789 C101.154758,0.790280612 101.562445,0.383477891 102.063873,0.383477891 C102.566186,0.383477891 102.973873,0.790280612 102.973873,1.29347789 L102.973873,4.10218537" id="Fill-382" fill="#B2DACE"></path>
                        <path d="M105.782581,5.92218537 L98.3451658,5.92218537 C97.8428529,5.92218537 97.4351658,5.5144983 97.4351658,5.01218537 C97.4351658,4.50987245 97.8428529,4.10218537 98.3451658,4.10218537 L105.782581,4.10218537 C106.284894,4.10218537 106.692581,4.50987245 106.692581,5.01218537 C106.692581,5.5144983 106.284894,5.92218537 105.782581,5.92218537" id="Fill-383" fill="#B2DACE"></path>
                        <path d="M27.8250298,139.91858 C27.3227168,139.91858 26.9141454,139.511777 26.9141454,139.016539 L26.9141454,136.204294 L28.7350298,136.204294 L28.7350298,139.016539 C28.7350298,139.511777 28.3273427,139.91858 27.8250298,139.91858 M28.7350298,134.382526 L26.9141454,134.382526 L26.9141454,131.570281 C26.9141454,131.075043 27.3227168,130.66824 27.8250298,130.66824 C28.3273427,130.66824 28.7350298,131.075043 28.7350298,131.570281 L28.7350298,134.382526" id="Fill-384" fill="#B2DACE"></path>
                        <path d="M31.5437372,136.204294 L24.1054379,136.204294 C23.6040094,136.204294 23.1954379,135.797491 23.1954379,135.29341 C23.1954379,134.789328 23.6040094,134.382526 24.1054379,134.382526 L31.5437372,134.382526 C32.0460502,134.382526 32.4537372,134.789328 32.4537372,135.29341 C32.4537372,135.797491 32.0460502,136.204294 31.5437372,136.204294" id="Fill-385" fill="#B2DACE"></path>
                        <path d="M16.2904039,114.334226 C15.9552338,114.334226 15.6837372,114.060077 15.6837372,113.724022 L15.6837372,112.742389 L16.8970706,112.742389 L16.8970706,113.724022 C16.8970706,114.060077 16.625574,114.334226 16.2904039,114.334226 M16.8970706,111.530825 L15.6837372,111.530825 L15.6837372,110.549192 C15.6837372,110.213138 15.9552338,109.938988 16.2904039,109.938988 C16.625574,109.938988 16.8970706,110.213138 16.8970706,110.549192 L16.8970706,111.530825" id="Fill-386" fill="#B2DACE"></path>
                        <path d="M17.8778189,112.742389 L14.7038733,112.742389 C14.3678189,112.742389 14.0963223,112.46824 14.0963223,112.132185 C14.0963223,111.804974 14.3678189,111.530825 14.7038733,111.530825 L17.8778189,111.530825 C18.2129889,111.530825 18.4844855,111.804974 18.4844855,112.132185 C18.4844855,112.46824 18.2129889,112.742389 17.8778189,112.742389" id="Fill-387" fill="#B2DACE"></path>
                        <path d="M120.668023,46.5485119 C120.332853,46.5485119 120.062241,46.2832058 120.062241,45.9471514 L120.062241,44.9655187 L121.275574,44.9655187 L121.275574,45.9471514 C121.275574,46.2832058 121.004077,46.5485119 120.668023,46.5485119 M121.275574,43.7539541 L120.062241,43.7539541 L120.062241,42.7723214 C120.062241,42.436267 120.332853,42.1621173 120.668023,42.1621173 C121.004077,42.1621173 121.275574,42.436267 121.275574,42.7723214 L121.275574,43.7539541" id="Fill-388" fill="#B2DACE"></path>
                        <path d="M122.255438,44.9655187 L119.081492,44.9655187 C118.746322,44.9655187 118.47571,44.691369 118.47571,44.3641582 C118.47571,44.0281037 118.746322,43.7539541 119.081492,43.7539541 L122.255438,43.7539541 C122.590608,43.7539541 122.862105,44.0281037 122.862105,44.3641582 C122.862105,44.691369 122.590608,44.9655187 122.255438,44.9655187" id="Fill-389" fill="#B2DACE"></path>
                    </g>
                </g>
            </g>
        </g>
    </g>
</svg>